<ttFont>
    <TTGlyph name=".notdef" xMin="35" yMin="0" xMax="565" yMax="660">
      <contour>
        <pt x="35" y="660" on="1"/>
        <pt x="565" y="660" on="1"/>
        <pt x="565" y="0" on="1"/>
        <pt x="35" y="0" on="1"/>
      </contour>
      <contour>
        <pt x="228" y="340" on="1"/>
        <pt x="134" y="526" on="1"/>
        <pt x="134" y="155" on="1"/>
      </contour>
      <contour>
        <pt x="466" y="155" on="1"/>
        <pt x="466" y="526" on="1"/>
        <pt x="372" y="340" on="1"/>
      </contour>
      <contour>
        <pt x="382" y="91" on="1"/>
        <pt x="343" y="168" on="1"/>
        <pt x="302" y="266" on="1"/>
        <pt x="298" y="266" on="1"/>
        <pt x="257" y="168" on="1"/>
        <pt x="218" y="91" on="1"/>
      </contour>
      <contour>
        <pt x="302" y="414" on="1"/>
        <pt x="344" y="509" on="1"/>
        <pt x="376" y="568" on="1"/>
        <pt x="224" y="568" on="1"/>
        <pt x="255" y="509" on="1"/>
        <pt x="298" y="414" on="1"/>
      </contour>
    </TTGlyph>
    <TTGlyph name="A" xMin="9" yMin="0" xMax="591" yMax="652">
      <contour>
        <pt x="366" y="270" on="1"/>
        <pt x="351" y="330" on="1"/>
        <pt x="338" y="379" on="0"/>
        <pt x="312" y="489" on="0"/>
        <pt x="299" y="540" on="1"/>
        <pt x="295" y="540" on="1"/>
        <pt x="283" y="488" on="0"/>
        <pt x="257" y="379" on="0"/>
        <pt x="244" y="330" on="1"/>
        <pt x="229" y="270" on="1"/>
      </contour>
      <contour>
        <pt x="396" y="155" on="1"/>
        <pt x="199" y="155" on="1"/>
        <pt x="159" y="0" on="1"/>
        <pt x="9" y="0" on="1"/>
        <pt x="212" y="652" on="1"/>
        <pt x="388" y="652" on="1"/>
        <pt x="591" y="0" on="1"/>
        <pt x="435" y="0" on="1"/>
      </contour>
    </TTGlyph>
    <TTGlyph name="AE" xMin="-3" yMin="0" xMax="595" yMax="652">
      <contour>
        <pt x="311" y="263" on="1"/>
        <pt x="311" y="541" on="1"/>
        <pt x="308" y="541" on="1"/>
        <pt x="295" y="492" on="0"/>
        <pt x="267" y="399" on="0"/>
        <pt x="255" y="356" on="1"/>
        <pt x="227" y="263" on="1"/>
      </contour>
      <contour>
        <pt x="595" y="124" on="1"/>
        <pt x="595" y="0" on="1"/>
        <pt x="311" y="0" on="1"/>
        <pt x="311" y="149" on="1"/>
        <pt x="193" y="149" on="1"/>
        <pt x="148" y="0" on="1"/>
        <pt x="-3" y="0" on="1"/>
        <pt x="206" y="652" on="1"/>
        <pt x="586" y="652" on="1"/>
        <pt x="586" y="528" on="1"/>
        <pt x="441" y="528" on="1"/>
        <pt x="441" y="399" on="1"/>
        <pt x="559" y="399" on="1"/>
        <pt x="559" y="275" on="1"/>
        <pt x="441" y="275" on="1"/>
        <pt x="441" y="124" on="1"/>
      </contour>
    </TTGlyph>
    <TTGlyph name="Aacute" xMin="9" yMin="0" xMax="591" yMax="822">
      <component glyphName="A" x="0" y="0" flags="0x204"/>
      <component glyphName="uni0301.cap" x="0" y="0" flags="0x4"/>
    </TTGlyph>
    <TTGlyph name="Abreve" xMin="9" yMin="0" xMax="591" yMax="822">
      <component glyphName="A" x="0" y="0" flags="0x204"/>
      <component glyphName="uni0306.cap" x="0" y="0" flags="0x4"/>
    </TTGlyph>
    <TTGlyph name="Acircumflex" xMin="9" yMin="0" xMax="591" yMax="822">
      <component glyphName="A" x="0" y="0" flags="0x204"/>
      <component glyphName="uni0302.cap" x="0" y="0" flags="0x4"/>
    </TTGlyph>
    <TTGlyph name="Adieresis" xMin="9" yMin="0" xMax="591" yMax="840">
      <component glyphName="A" x="0" y="0" flags="0x204"/>
      <component glyphName="uni0308.cap" x="0" y="0" flags="0x4"/>
    </TTGlyph>
    <TTGlyph name="Agrave" xMin="9" yMin="0" xMax="591" yMax="822">
      <component glyphName="A" x="0" y="0" flags="0x204"/>
      <component glyphName="uni0300.cap" x="0" y="0" flags="0x4"/>
    </TTGlyph>
    <TTGlyph name="Amacron" xMin="9" yMin="0" xMax="591" yMax="813">
      <component glyphName="A" x="0" y="0" flags="0x204"/>
      <component glyphName="uni0304.cap" x="0" y="0" flags="0x4"/>
    </TTGlyph>
    <TTGlyph name="Aogonek" xMin="9" yMin="-223" xMax="613" yMax="652">
      <contour>
        <pt x="366" y="270" on="1"/>
        <pt x="351" y="330" on="1"/>
        <pt x="338" y="379" on="0"/>
        <pt x="312" y="489" on="0"/>
        <pt x="299" y="540" on="1"/>
        <pt x="295" y="540" on="1"/>
        <pt x="283" y="488" on="0"/>
        <pt x="258" y="379" on="0"/>
        <pt x="244" y="330" on="1"/>
        <pt x="229" y="270" on="1"/>
      </contour>
      <contour>
        <pt x="613" y="-188" on="1"/>
        <pt x="593" y="-203" on="0"/>
        <pt x="534" y="-223" on="0"/>
        <pt x="508" y="-223" on="1"/>
        <pt x="460" y="-223" on="0"/>
        <pt x="394" y="-174" on="0"/>
        <pt x="394" y="-129" on="1"/>
        <pt x="394" y="-106" on="0"/>
        <pt x="410" y="-65" on="0"/>
        <pt x="434" y="-32" on="0"/>
        <pt x="463" y="-7" on="0"/>
        <pt x="475" y="0" on="1"/>
        <pt x="435" y="0" on="1"/>
        <pt x="396" y="155" on="1"/>
        <pt x="199" y="155" on="1"/>
        <pt x="159" y="0" on="1"/>
        <pt x="9" y="0" on="1"/>
        <pt x="212" y="652" on="1"/>
        <pt x="388" y="652" on="1"/>
        <pt x="591" y="0" on="1"/>
        <pt x="570" y="-2" on="0"/>
        <pt x="537" y="-19" on="0"/>
        <pt x="514" y="-45" on="0"/>
        <pt x="501" y="-75" on="0"/>
        <pt x="501" y="-90" on="1"/>
        <pt x="501" y="-109" on="0"/>
        <pt x="524" y="-128" on="0"/>
        <pt x="540" y="-128" on="1"/>
        <pt x="551" y="-128" on="0"/>
        <pt x="571" y="-119" on="0"/>
        <pt x="579" y="-114" on="1"/>
      </contour>
    </TTGlyph>
    <TTGlyph name="Aring" xMin="9" yMin="0" xMax="591" yMax="893">
      <component glyphName="A" x="0" y="0" flags="0x204"/>
      <component glyphName="uni030A.cap" x="0" y="0" flags="0x4"/>
    </TTGlyph>
    <TTGlyph name="Atilde" xMin="9" yMin="0" xMax="591" yMax="839">
      <component glyphName="A" x="0" y="0" flags="0x204"/>
      <component glyphName="uni0303.cap" x="0" y="0" flags="0x4"/>
    </TTGlyph>
    <TTGlyph name="B" xMin="84" yMin="0" xMax="557" yMax="652">
      <contour>
        <pt x="84" y="652" on="1"/>
        <pt x="288" y="652" on="1"/>
        <pt x="339" y="652" on="0"/>
        <pt x="426" y="637" on="0"/>
        <pt x="490" y="599" on="0"/>
        <pt x="527" y="537" on="0"/>
        <pt x="527" y="490" on="1"/>
        <pt x="527" y="468" on="0"/>
        <pt x="514" y="424" on="0"/>
        <pt x="486" y="386" on="0"/>
        <pt x="444" y="356" on="0"/>
        <pt x="415" y="349" on="1"/>
        <pt x="415" y="345" on="1"/>
        <pt x="485" y="332" on="0"/>
        <pt x="557" y="258" on="0"/>
        <pt x="557" y="192" on="1"/>
        <pt x="557" y="142" on="0"/>
        <pt x="519" y="70" on="0"/>
        <pt x="451" y="23" on="0"/>
        <pt x="360" y="0" on="0"/>
        <pt x="307" y="0" on="1"/>
        <pt x="84" y="0" on="1"/>
      </contour>
      <contour>
        <pt x="281" y="389" on="1"/>
        <pt x="335" y="389" on="0"/>
        <pt x="383" y="432" on="0"/>
        <pt x="383" y="469" on="1"/>
        <pt x="383" y="506" on="0"/>
        <pt x="334" y="538" on="0"/>
        <pt x="282" y="538" on="1"/>
        <pt x="231" y="538" on="1"/>
        <pt x="231" y="389" on="1"/>
      </contour>
      <contour>
        <pt x="295" y="114" on="1"/>
        <pt x="413" y="114" on="0"/>
        <pt x="413" y="203" on="1"/>
        <pt x="413" y="246" on="0"/>
        <pt x="356" y="285" on="0"/>
        <pt x="295" y="285" on="1"/>
        <pt x="231" y="285" on="1"/>
        <pt x="231" y="114" on="1"/>
      </contour>
    </TTGlyph>
    <TTGlyph name="C" xMin="55" yMin="-12" xMax="569" yMax="664">
      <contour>
        <pt x="55" y="322" on="1"/>
        <pt x="55" y="403" on="0"/>
        <pt x="103" y="530" on="0"/>
        <pt x="187" y="618" on="0"/>
        <pt x="301" y="664" on="0"/>
        <pt x="366" y="664" on="1"/>
        <pt x="429" y="664" on="0"/>
        <pt x="526" y="613" on="0"/>
        <pt x="559" y="581" on="1"/>
        <pt x="478" y="490" on="1"/>
        <pt x="455" y="511" on="0"/>
        <pt x="401" y="537" on="0"/>
        <pt x="366" y="537" on="1"/>
        <pt x="331" y="537" on="0"/>
        <pt x="273" y="508" on="0"/>
        <pt x="230" y="454" on="0"/>
        <pt x="206" y="376" on="0"/>
        <pt x="206" y="327" on="1"/>
        <pt x="206" y="226" on="0"/>
        <pt x="298" y="115" on="0"/>
        <pt x="372" y="115" on="1"/>
        <pt x="407" y="115" on="0"/>
        <pt x="464" y="147" on="0"/>
        <pt x="488" y="173" on="1"/>
        <pt x="569" y="84" on="1"/>
        <pt x="487" y="-12" on="0"/>
        <pt x="363" y="-12" on="1"/>
        <pt x="300" y="-12" on="0"/>
        <pt x="188" y="31" on="0"/>
        <pt x="104" y="115" on="0"/>
        <pt x="55" y="240" on="0"/>
      </contour>
    </TTGlyph>
    <TTGlyph name="Cacute" xMin="55" yMin="-12" xMax="569" yMax="822">
      <component glyphName="C" x="0" y="0" flags="0x204"/>
      <component glyphName="uni0301.cap" x="54" y="0" flags="0x4"/>
    </TTGlyph>
    <TTGlyph name="Ccaron" xMin="55" yMin="-12" xMax="569" yMax="822">
      <component glyphName="C" x="0" y="0" flags="0x204"/>
      <component glyphName="uni030C.cap" x="54" y="0" flags="0x4"/>
    </TTGlyph>
    <TTGlyph name="Ccedilla" xMin="55" yMin="-221" xMax="569" yMax="664">
      <component glyphName="C" x="0" y="0" flags="0x204"/>
      <component glyphName="uni0327.cap" x="48" y="0" flags="0x4"/>
    </TTGlyph>
    <TTGlyph name="Ccircumflex" xMin="55" yMin="-12" xMax="569" yMax="822">
      <component glyphName="C" x="0" y="0" flags="0x204"/>
      <component glyphName="uni0302.cap" x="54" y="0" flags="0x4"/>
    </TTGlyph>
    <TTGlyph name="Cdotaccent" xMin="55" yMin="-12" xMax="569" yMax="855">
      <component glyphName="C" x="0" y="0" flags="0x204"/>
      <component glyphName="uni0307.cap" x="54" y="0" flags="0x4"/>
    </TTGlyph>
    <TTGlyph name="D" xMin="65" yMin="0" xMax="556" yMax="652">
      <contour>
        <pt x="65" y="652" on="1"/>
        <pt x="242" y="652" on="1"/>
        <pt x="313" y="652" on="0"/>
        <pt x="429" y="614" on="0"/>
        <pt x="511" y="535" on="0"/>
        <pt x="556" y="413" on="0"/>
        <pt x="556" y="329" on="1"/>
        <pt x="556" y="245" on="0"/>
        <pt x="511" y="121" on="0"/>
        <pt x="430" y="40" on="0"/>
        <pt x="318" y="0" on="0"/>
        <pt x="250" y="0" on="1"/>
        <pt x="65" y="0" on="1"/>
      </contour>
      <contour>
        <pt x="234" y="119" on="1"/>
        <pt x="272" y="119" on="0"/>
        <pt x="335" y="141" on="0"/>
        <pt x="380" y="190" on="0"/>
        <pt x="405" y="270" on="0"/>
        <pt x="405" y="329" on="1"/>
        <pt x="405" y="387" on="0"/>
        <pt x="380" y="466" on="0"/>
        <pt x="335" y="513" on="0"/>
        <pt x="272" y="533" on="0"/>
        <pt x="234" y="533" on="1"/>
        <pt x="213" y="533" on="1"/>
        <pt x="213" y="119" on="1"/>
      </contour>
    </TTGlyph>
    <TTGlyph name="Dcaron" xMin="65" yMin="0" xMax="556" yMax="822">
      <component glyphName="D" x="0" y="0" flags="0x204"/>
      <component glyphName="uni030C.cap" x="-2" y="0" flags="0x4"/>
    </TTGlyph>
    <TTGlyph name="Dcroat" xMin="2" yMin="0" xMax="562" yMax="652">
      <component glyphName="Eth" x="0" y="0" flags="0x204"/>
    </TTGlyph>
    <TTGlyph name="E" xMin="94" yMin="0" xMax="534" yMax="652">
      <contour>
        <pt x="94" y="652" on="1"/>
        <pt x="524" y="652" on="1"/>
        <pt x="524" y="528" on="1"/>
        <pt x="241" y="528" on="1"/>
        <pt x="241" y="397" on="1"/>
        <pt x="481" y="397" on="1"/>
        <pt x="481" y="274" on="1"/>
        <pt x="241" y="274" on="1"/>
        <pt x="241" y="124" on="1"/>
        <pt x="534" y="124" on="1"/>
        <pt x="534" y="0" on="1"/>
        <pt x="94" y="0" on="1"/>
      </contour>
    </TTGlyph>
    <TTGlyph name="Eacute" xMin="94" yMin="0" xMax="534" yMax="822">
      <component glyphName="E" x="0" y="0" flags="0x204"/>
      <component glyphName="uni0301.cap" x="22" y="0" flags="0x4"/>
    </TTGlyph>
    <TTGlyph name="Ebreve" xMin="94" yMin="0" xMax="534" yMax="822">
      <component glyphName="E" x="0" y="0" flags="0x204"/>
      <component glyphName="uni0306.cap" x="22" y="0" flags="0x4"/>
    </TTGlyph>
    <TTGlyph name="Ecaron" xMin="94" yMin="0" xMax="534" yMax="822">
      <component glyphName="E" x="0" y="0" flags="0x204"/>
      <component glyphName="uni030C.cap" x="22" y="0" flags="0x4"/>
    </TTGlyph>
    <TTGlyph name="Ecircumflex" xMin="94" yMin="0" xMax="534" yMax="822">
      <component glyphName="E" x="0" y="0" flags="0x204"/>
      <component glyphName="uni0302.cap" x="22" y="0" flags="0x4"/>
    </TTGlyph>
    <TTGlyph name="Edieresis" xMin="94" yMin="0" xMax="534" yMax="840">
      <component glyphName="E" x="0" y="0" flags="0x204"/>
      <component glyphName="uni0308.cap" x="22" y="0" flags="0x4"/>
    </TTGlyph>
    <TTGlyph name="Edotaccent" xMin="94" yMin="0" xMax="534" yMax="855">
      <component glyphName="E" x="0" y="0" flags="0x204"/>
      <component glyphName="uni0307.cap" x="22" y="0" flags="0x4"/>
    </TTGlyph>
    <TTGlyph name="Egrave" xMin="94" yMin="0" xMax="534" yMax="822">
      <component glyphName="E" x="0" y="0" flags="0x204"/>
      <component glyphName="uni0300.cap" x="22" y="0" flags="0x4"/>
    </TTGlyph>
    <TTGlyph name="Emacron" xMin="94" yMin="0" xMax="534" yMax="813">
      <component glyphName="E" x="0" y="0" flags="0x204"/>
      <component glyphName="uni0304.cap" x="22" y="0" flags="0x4"/>
    </TTGlyph>
    <TTGlyph name="Eogonek" xMin="94" yMin="-223" xMax="554" yMax="652">
      <contour>
        <pt x="94" y="652" on="1"/>
        <pt x="524" y="652" on="1"/>
        <pt x="524" y="528" on="1"/>
        <pt x="241" y="528" on="1"/>
        <pt x="241" y="397" on="1"/>
        <pt x="481" y="397" on="1"/>
        <pt x="481" y="274" on="1"/>
        <pt x="241" y="274" on="1"/>
        <pt x="241" y="124" on="1"/>
        <pt x="534" y="124" on="1"/>
        <pt x="534" y="0" on="1"/>
        <pt x="529" y="0" on="1"/>
        <pt x="512" y="-1" on="0"/>
        <pt x="481" y="-17" on="0"/>
        <pt x="457" y="-42" on="0"/>
        <pt x="443" y="-74" on="0"/>
        <pt x="443" y="-90" on="1"/>
        <pt x="443" y="-110" on="0"/>
        <pt x="469" y="-128" on="0"/>
        <pt x="485" y="-128" on="1"/>
        <pt x="495" y="-128" on="0"/>
        <pt x="513" y="-119" on="0"/>
        <pt x="521" y="-114" on="1"/>
        <pt x="554" y="-188" on="1"/>
        <pt x="535" y="-203" on="0"/>
        <pt x="476" y="-223" on="0"/>
        <pt x="450" y="-223" on="1"/>
        <pt x="402" y="-223" on="0"/>
        <pt x="335" y="-174" on="0"/>
        <pt x="335" y="-129" on="1"/>
        <pt x="335" y="-106" on="0"/>
        <pt x="350" y="-66" on="0"/>
        <pt x="373" y="-33" on="0"/>
        <pt x="401" y="-8" on="0"/>
        <pt x="414" y="0" on="1"/>
        <pt x="94" y="0" on="1"/>
      </contour>
    </TTGlyph>
    <TTGlyph name="Eth" xMin="2" yMin="0" xMax="562" yMax="652">
      <contour>
        <pt x="71" y="301" on="1"/>
        <pt x="2" y="301" on="1"/>
        <pt x="2" y="367" on="1"/>
        <pt x="71" y="372" on="1"/>
        <pt x="71" y="652" on="1"/>
        <pt x="249" y="652" on="1"/>
        <pt x="319" y="652" on="0"/>
        <pt x="435" y="614" on="0"/>
        <pt x="517" y="535" on="0"/>
        <pt x="562" y="413" on="0"/>
        <pt x="562" y="329" on="1"/>
        <pt x="562" y="245" on="0"/>
        <pt x="517" y="121" on="0"/>
        <pt x="437" y="40" on="0"/>
        <pt x="324" y="0" on="0"/>
        <pt x="257" y="0" on="1"/>
        <pt x="71" y="0" on="1"/>
      </contour>
      <contour>
        <pt x="240" y="119" on="1"/>
        <pt x="278" y="119" on="0"/>
        <pt x="341" y="141" on="0"/>
        <pt x="386" y="190" on="0"/>
        <pt x="411" y="270" on="0"/>
        <pt x="411" y="329" on="1"/>
        <pt x="411" y="387" on="0"/>
        <pt x="386" y="466" on="0"/>
        <pt x="341" y="513" on="0"/>
        <pt x="278" y="533" on="0"/>
        <pt x="240" y="533" on="1"/>
        <pt x="219" y="533" on="1"/>
        <pt x="219" y="372" on="1"/>
        <pt x="326" y="372" on="1"/>
        <pt x="326" y="301" on="1"/>
        <pt x="219" y="301" on="1"/>
        <pt x="219" y="119" on="1"/>
      </contour>
    </TTGlyph>
    <TTGlyph name="Euro" xMin="45" yMin="-12" xMax="583" yMax="647">
      <contour>
        <pt x="583" y="80" on="1"/>
        <pt x="542" y="35" on="0"/>
        <pt x="442" y="-12" on="0"/>
        <pt x="381" y="-12" on="1"/>
        <pt x="330" y="-12" on="0"/>
        <pt x="242" y="17" on="0"/>
        <pt x="171" y="74" on="0"/>
        <pt x="121" y="159" on="0"/>
        <pt x="109" y="215" on="1"/>
        <pt x="45" y="215" on="1"/>
        <pt x="45" y="284" on="1"/>
        <pt x="100" y="288" on="1"/>
        <pt x="99" y="295" on="0"/>
        <pt x="99" y="307" on="0"/>
        <pt x="99" y="314" on="1"/>
        <pt x="99" y="321" on="0"/>
        <pt x="99" y="333" on="0"/>
        <pt x="100" y="340" on="1"/>
        <pt x="45" y="340" on="1"/>
        <pt x="45" y="408" on="1"/>
        <pt x="109" y="413" on="1"/>
        <pt x="134" y="525" on="0"/>
        <pt x="284" y="647" on="0"/>
        <pt x="392" y="647" on="1"/>
        <pt x="443" y="647" on="0"/>
        <pt x="538" y="607" on="0"/>
        <pt x="575" y="569" on="1"/>
        <pt x="494" y="490" on="1"/>
        <pt x="471" y="509" on="0"/>
        <pt x="419" y="533" on="0"/>
        <pt x="387" y="533" on="1"/>
        <pt x="336" y="533" on="0"/>
        <pt x="270" y="471" on="0"/>
        <pt x="256" y="414" on="1"/>
        <pt x="509" y="414" on="1"/>
        <pt x="509" y="340" on="1"/>
        <pt x="246" y="340" on="1"/>
        <pt x="246" y="319" on="1"/>
        <pt x="246" y="311" on="0"/>
        <pt x="246" y="297" on="0"/>
        <pt x="247" y="290" on="1"/>
        <pt x="469" y="290" on="1"/>
        <pt x="469" y="215" on="1"/>
        <pt x="259" y="215" on="1"/>
        <pt x="275" y="160" on="0"/>
        <pt x="341" y="102" on="0"/>
        <pt x="390" y="102" on="1"/>
        <pt x="425" y="102" on="0"/>
        <pt x="479" y="130" on="0"/>
        <pt x="502" y="156" on="1"/>
      </contour>
    </TTGlyph>
    <TTGlyph name="F" xMin="108" yMin="0" xMax="538" yMax="652">
      <contour>
        <pt x="108" y="652" on="1"/>
        <pt x="538" y="652" on="1"/>
        <pt x="538" y="528" on="1"/>
        <pt x="255" y="528" on="1"/>
        <pt x="255" y="377" on="1"/>
        <pt x="496" y="377" on="1"/>
        <pt x="496" y="253" on="1"/>
        <pt x="255" y="253" on="1"/>
        <pt x="255" y="0" on="1"/>
        <pt x="108" y="0" on="1"/>
      </contour>
    </TTGlyph>
    <TTGlyph name="G" xMin="44" yMin="-12" xMax="547" yMax="664">
      <contour>
        <pt x="44" y="322" on="1"/>
        <pt x="44" y="404" on="0"/>
        <pt x="91" y="531" on="0"/>
        <pt x="172" y="618" on="0"/>
        <pt x="282" y="664" on="0"/>
        <pt x="345" y="664" on="1"/>
        <pt x="411" y="664" on="0"/>
        <pt x="504" y="613" on="0"/>
        <pt x="536" y="581" on="1"/>
        <pt x="455" y="490" on="1"/>
        <pt x="434" y="511" on="0"/>
        <pt x="384" y="537" on="0"/>
        <pt x="345" y="537" on="1"/>
        <pt x="313" y="537" on="0"/>
        <pt x="259" y="508" on="0"/>
        <pt x="219" y="454" on="0"/>
        <pt x="196" y="376" on="0"/>
        <pt x="196" y="327" on="1"/>
        <pt x="196" y="226" on="0"/>
        <pt x="273" y="115" on="0"/>
        <pt x="351" y="115" on="1"/>
        <pt x="370" y="115" on="0"/>
        <pt x="404" y="125" on="0"/>
        <pt x="415" y="135" on="1"/>
        <pt x="415" y="247" on="1"/>
        <pt x="320" y="247" on="1"/>
        <pt x="320" y="367" on="1"/>
        <pt x="547" y="367" on="1"/>
        <pt x="547" y="67" on="1"/>
        <pt x="514" y="36" on="0"/>
        <pt x="406" y="-12" on="0"/>
        <pt x="343" y="-12" on="1"/>
        <pt x="280" y="-12" on="0"/>
        <pt x="171" y="31" on="0"/>
        <pt x="90" y="115" on="0"/>
        <pt x="44" y="240" on="0"/>
      </contour>
    </TTGlyph>
    <TTGlyph name="Gbreve" xMin="44" yMin="-12" xMax="547" yMax="822">
      <component glyphName="G" x="0" y="0" flags="0x204"/>
      <component glyphName="uni0306.cap" x="30" y="0" flags="0x4"/>
    </TTGlyph>
    <TTGlyph name="Gcaron" xMin="44" yMin="-12" xMax="547" yMax="822">
      <component glyphName="G" x="0" y="0" flags="0x204"/>
      <component glyphName="uni030C.cap" x="30" y="0" flags="0x4"/>
    </TTGlyph>
    <TTGlyph name="Gcircumflex" xMin="44" yMin="-12" xMax="547" yMax="822">
      <component glyphName="G" x="0" y="0" flags="0x204"/>
      <component glyphName="uni0302.cap" x="30" y="0" flags="0x4"/>
    </TTGlyph>
    <TTGlyph name="Gdotaccent" xMin="44" yMin="-12" xMax="547" yMax="855">
      <component glyphName="G" x="0" y="0" flags="0x204"/>
      <component glyphName="uni0307.cap" x="30" y="0" flags="0x4"/>
    </TTGlyph>
    <TTGlyph name="H" xMin="64" yMin="0" xMax="536" yMax="652">
      <contour>
        <pt x="64" y="652" on="1"/>
        <pt x="211" y="652" on="1"/>
        <pt x="211" y="401" on="1"/>
        <pt x="389" y="401" on="1"/>
        <pt x="389" y="652" on="1"/>
        <pt x="536" y="652" on="1"/>
        <pt x="536" y="0" on="1"/>
        <pt x="389" y="0" on="1"/>
        <pt x="389" y="272" on="1"/>
        <pt x="211" y="272" on="1"/>
        <pt x="211" y="0" on="1"/>
        <pt x="64" y="0" on="1"/>
      </contour>
    </TTGlyph>
    <TTGlyph name="Hbar" xMin="3" yMin="0" xMax="597" yMax="652">
      <contour>
        <pt x="389" y="486" on="1"/>
        <pt x="211" y="486" on="1"/>
        <pt x="211" y="401" on="1"/>
        <pt x="389" y="401" on="1"/>
      </contour>
      <contour>
        <pt x="597" y="486" on="1"/>
        <pt x="536" y="486" on="1"/>
        <pt x="536" y="0" on="1"/>
        <pt x="389" y="0" on="1"/>
        <pt x="389" y="272" on="1"/>
        <pt x="211" y="272" on="1"/>
        <pt x="211" y="0" on="1"/>
        <pt x="64" y="0" on="1"/>
        <pt x="64" y="486" on="1"/>
        <pt x="3" y="486" on="1"/>
        <pt x="3" y="551" on="1"/>
        <pt x="64" y="556" on="1"/>
        <pt x="64" y="652" on="1"/>
        <pt x="211" y="652" on="1"/>
        <pt x="211" y="557" on="1"/>
        <pt x="389" y="557" on="1"/>
        <pt x="389" y="652" on="1"/>
        <pt x="536" y="652" on="1"/>
        <pt x="536" y="557" on="1"/>
        <pt x="597" y="557" on="1"/>
      </contour>
    </TTGlyph>
    <TTGlyph name="Hcircumflex" xMin="64" yMin="0" xMax="536" yMax="822">
      <component glyphName="H" x="0" y="0" flags="0x204"/>
      <component glyphName="uni0302.cap" x="0" y="0" flags="0x4"/>
    </TTGlyph>
    <TTGlyph name="I" xMin="74" yMin="0" xMax="526" yMax="652">
      <contour>
        <pt x="74" y="124" on="1"/>
        <pt x="226" y="124" on="1"/>
        <pt x="226" y="528" on="1"/>
        <pt x="74" y="528" on="1"/>
        <pt x="74" y="652" on="1"/>
        <pt x="526" y="652" on="1"/>
        <pt x="526" y="528" on="1"/>
        <pt x="374" y="528" on="1"/>
        <pt x="374" y="124" on="1"/>
        <pt x="526" y="124" on="1"/>
        <pt x="526" y="0" on="1"/>
        <pt x="74" y="0" on="1"/>
      </contour>
    </TTGlyph>
    <TTGlyph name="Iacute" xMin="74" yMin="0" xMax="526" yMax="822">
      <component glyphName="I" x="0" y="0" flags="0x204"/>
      <component glyphName="uni0301.cap" x="0" y="0" flags="0x4"/>
    </TTGlyph>
    <TTGlyph name="Icircumflex" xMin="74" yMin="0" xMax="526" yMax="822">
      <component glyphName="I" x="0" y="0" flags="0x204"/>
      <component glyphName="uni0302.cap" x="0" y="0" flags="0x4"/>
    </TTGlyph>
    <TTGlyph name="Idieresis" xMin="74" yMin="0" xMax="526" yMax="840">
      <component glyphName="I" x="0" y="0" flags="0x204"/>
      <component glyphName="uni0308.cap" x="0" y="0" flags="0x4"/>
    </TTGlyph>
    <TTGlyph name="Idotaccent" xMin="74" yMin="0" xMax="526" yMax="855">
      <component glyphName="I" x="0" y="0" flags="0x204"/>
      <component glyphName="uni0307.cap" x="0" y="0" flags="0x4"/>
    </TTGlyph>
    <TTGlyph name="Igrave" xMin="74" yMin="0" xMax="526" yMax="822">
      <component glyphName="I" x="0" y="0" flags="0x204"/>
      <component glyphName="uni0300.cap" x="0" y="0" flags="0x4"/>
    </TTGlyph>
    <TTGlyph name="Imacron" xMin="74" yMin="0" xMax="526" yMax="813">
      <component glyphName="I" x="0" y="0" flags="0x204"/>
      <component glyphName="uni0304.cap" x="0" y="0" flags="0x4"/>
    </TTGlyph>
    <TTGlyph name="Iogonek" xMin="74" yMin="-223" xMax="526" yMax="652">
      <contour>
        <pt x="74" y="124" on="1"/>
        <pt x="226" y="124" on="1"/>
        <pt x="226" y="528" on="1"/>
        <pt x="74" y="528" on="1"/>
        <pt x="74" y="652" on="1"/>
        <pt x="526" y="652" on="1"/>
        <pt x="526" y="528" on="1"/>
        <pt x="374" y="528" on="1"/>
        <pt x="374" y="124" on="1"/>
        <pt x="526" y="124" on="1"/>
        <pt x="526" y="0" on="1"/>
        <pt x="374" y="0" on="1"/>
        <pt x="333" y="-17" on="0"/>
        <pt x="299" y="-64" on="0"/>
        <pt x="299" y="-90" on="1"/>
        <pt x="299" y="-110" on="0"/>
        <pt x="325" y="-128" on="0"/>
        <pt x="340" y="-128" on="1"/>
        <pt x="351" y="-128" on="0"/>
        <pt x="370" y="-119" on="0"/>
        <pt x="377" y="-114" on="1"/>
        <pt x="411" y="-188" on="1"/>
        <pt x="391" y="-203" on="0"/>
        <pt x="332" y="-223" on="0"/>
        <pt x="306" y="-223" on="1"/>
        <pt x="282" y="-223" on="0"/>
        <pt x="241" y="-211" on="0"/>
        <pt x="210" y="-187" on="0"/>
        <pt x="192" y="-152" on="0"/>
        <pt x="192" y="-129" on="1"/>
        <pt x="192" y="-105" on="0"/>
        <pt x="207" y="-65" on="0"/>
        <pt x="229" y="-32" on="0"/>
        <pt x="255" y="-8" on="0"/>
        <pt x="266" y="0" on="1"/>
        <pt x="74" y="0" on="1"/>
      </contour>
    </TTGlyph>
    <TTGlyph name="Itilde" xMin="74" yMin="0" xMax="526" yMax="839">
      <component glyphName="I" x="0" y="0" flags="0x204"/>
      <component glyphName="uni0303.cap" x="0" y="0" flags="0x4"/>
    </TTGlyph>
    <TTGlyph name="J" xMin="59" yMin="-12" xMax="516" yMax="652">
      <contour>
        <pt x="144" y="187" on="1"/>
        <pt x="202" y="115" on="0"/>
        <pt x="268" y="115" on="1"/>
        <pt x="319" y="115" on="0"/>
        <pt x="369" y="166" on="0"/>
        <pt x="369" y="234" on="1"/>
        <pt x="369" y="529" on="1"/>
        <pt x="114" y="529" on="1"/>
        <pt x="114" y="652" on="1"/>
        <pt x="516" y="652" on="1"/>
        <pt x="516" y="222" on="1"/>
        <pt x="516" y="174" on="0"/>
        <pt x="491" y="89" on="0"/>
        <pt x="433" y="25" on="0"/>
        <pt x="340" y="-12" on="0"/>
        <pt x="273" y="-12" on="1"/>
        <pt x="246" y="-12" on="0"/>
        <pt x="188" y="-1" on="0"/>
        <pt x="132" y="25" on="0"/>
        <pt x="80" y="66" on="0"/>
        <pt x="59" y="96" on="1"/>
      </contour>
    </TTGlyph>
    <TTGlyph name="Jcircumflex" xMin="59" yMin="-12" xMax="516" yMax="822">
      <component glyphName="J" x="0" y="0" flags="0x204"/>
      <component glyphName="uni0302.cap" x="22" y="0" flags="0x4"/>
    </TTGlyph>
    <TTGlyph name="K" xMin="68" yMin="0" xMax="594" yMax="652">
      <contour>
        <pt x="68" y="652" on="1"/>
        <pt x="217" y="652" on="1"/>
        <pt x="217" y="385" on="1"/>
        <pt x="220" y="385" on="1"/>
        <pt x="413" y="652" on="1"/>
        <pt x="575" y="652" on="1"/>
        <pt x="380" y="392" on="1"/>
        <pt x="594" y="0" on="1"/>
        <pt x="431" y="0" on="1"/>
        <pt x="293" y="275" on="1"/>
        <pt x="217" y="175" on="1"/>
        <pt x="217" y="0" on="1"/>
        <pt x="68" y="0" on="1"/>
      </contour>
    </TTGlyph>
    <TTGlyph name="L" xMin="107" yMin="0" xMax="544" yMax="652">
      <contour>
        <pt x="107" y="652" on="1"/>
        <pt x="254" y="652" on="1"/>
        <pt x="254" y="124" on="1"/>
        <pt x="544" y="124" on="1"/>
        <pt x="544" y="0" on="1"/>
        <pt x="107" y="0" on="1"/>
      </contour>
    </TTGlyph>
    <TTGlyph name="Lacute" xMin="107" yMin="0" xMax="544" yMax="822">
      <component glyphName="L" x="0" y="0" flags="0x204"/>
      <component glyphName="uni0301.cap" x="-104" y="0" flags="0x4"/>
    </TTGlyph>
    <TTGlyph name="Lcaron" xMin="107" yMin="0" xMax="544" yMax="733">
      <component glyphName="L" x="0" y="0" flags="0x204"/>
      <component glyphName="uni030C.a" x="128" y="-37" flags="0x4"/>
    </TTGlyph>
    <TTGlyph name="Ldot" xMin="107" yMin="0" xMax="551" yMax="652">
      <component glyphName="L" x="0" y="0" flags="0x204"/>
      <component glyphName="uni0307" x="153" y="-304" flags="0x4"/>
    </TTGlyph>
    <TTGlyph name="Lslash" xMin="33" yMin="0" xMax="544" yMax="652">
      <contour>
        <pt x="544" y="124" on="1"/>
        <pt x="544" y="0" on="1"/>
        <pt x="107" y="0" on="1"/>
        <pt x="107" y="198" on="1"/>
        <pt x="33" y="157" on="1"/>
        <pt x="33" y="271" on="1"/>
        <pt x="107" y="312" on="1"/>
        <pt x="107" y="652" on="1"/>
        <pt x="254" y="652" on="1"/>
        <pt x="254" y="384" on="1"/>
        <pt x="460" y="497" on="1"/>
        <pt x="460" y="383" on="1"/>
        <pt x="254" y="270" on="1"/>
        <pt x="254" y="124" on="1"/>
      </contour>
    </TTGlyph>
    <TTGlyph name="M" xMin="65" yMin="0" xMax="535" yMax="652">
      <contour>
        <pt x="65" y="652" on="1"/>
        <pt x="212" y="652" on="1"/>
        <pt x="278" y="421" on="1"/>
        <pt x="300" y="331" on="1"/>
        <pt x="303" y="331" on="1"/>
        <pt x="325" y="421" on="1"/>
        <pt x="388" y="652" on="1"/>
        <pt x="535" y="652" on="1"/>
        <pt x="535" y="0" on="1"/>
        <pt x="416" y="0" on="1"/>
        <pt x="416" y="213" on="1"/>
        <pt x="416" y="240" on="0"/>
        <pt x="420" y="319" on="0"/>
        <pt x="426" y="403" on="0"/>
        <pt x="432" y="482" on="0"/>
        <pt x="435" y="508" on="1"/>
        <pt x="432" y="508" on="1"/>
        <pt x="381" y="329" on="1"/>
        <pt x="331" y="174" on="1"/>
        <pt x="266" y="174" on="1"/>
        <pt x="216" y="329" on="1"/>
        <pt x="167" y="508" on="1"/>
        <pt x="163" y="508" on="1"/>
        <pt x="166" y="482" on="0"/>
        <pt x="172" y="403" on="0"/>
        <pt x="178" y="319" on="0"/>
        <pt x="182" y="240" on="0"/>
        <pt x="182" y="213" on="1"/>
        <pt x="182" y="0" on="1"/>
        <pt x="65" y="0" on="1"/>
      </contour>
    </TTGlyph>
    <TTGlyph name="N" xMin="66" yMin="0" xMax="534" yMax="652">
      <contour>
        <pt x="66" y="652" on="1"/>
        <pt x="216" y="652" on="1"/>
        <pt x="354" y="327" on="1"/>
        <pt x="410" y="184" on="1"/>
        <pt x="414" y="184" on="1"/>
        <pt x="409" y="236" on="0"/>
        <pt x="393" y="364" on="0"/>
        <pt x="393" y="421" on="1"/>
        <pt x="393" y="652" on="1"/>
        <pt x="534" y="652" on="1"/>
        <pt x="534" y="0" on="1"/>
        <pt x="384" y="0" on="1"/>
        <pt x="246" y="325" on="1"/>
        <pt x="190" y="467" on="1"/>
        <pt x="186" y="467" on="1"/>
        <pt x="191" y="413" on="0"/>
        <pt x="207" y="289" on="0"/>
        <pt x="207" y="231" on="1"/>
        <pt x="207" y="0" on="1"/>
        <pt x="66" y="0" on="1"/>
      </contour>
    </TTGlyph>
    <TTGlyph name="Nacute" xMin="66" yMin="0" xMax="534" yMax="822">
      <component glyphName="N" x="0" y="0" flags="0x204"/>
      <component glyphName="uni0301.cap" x="6" y="0" flags="0x4"/>
    </TTGlyph>
    <TTGlyph name="Ncaron" xMin="66" yMin="0" xMax="534" yMax="822">
      <component glyphName="N" x="0" y="0" flags="0x204"/>
      <component glyphName="uni030C.cap" x="6" y="0" flags="0x4"/>
    </TTGlyph>
    <TTGlyph name="Ntilde" xMin="66" yMin="0" xMax="534" yMax="839">
      <component glyphName="N" x="0" y="0" flags="0x204"/>
      <component glyphName="uni0303.cap" x="6" y="0" flags="0x4"/>
    </TTGlyph>
    <TTGlyph name="O" xMin="38" yMin="-12" xMax="562" yMax="664">
      <contour>
        <pt x="300" y="-12" on="1"/>
        <pt x="242" y="-12" on="0"/>
        <pt x="145" y="35" on="0"/>
        <pt x="76" y="123" on="0"/>
        <pt x="38" y="249" on="0"/>
        <pt x="38" y="329" on="1"/>
        <pt x="38" y="409" on="0"/>
        <pt x="76" y="534" on="0"/>
        <pt x="145" y="619" on="0"/>
        <pt x="242" y="664" on="0"/>
        <pt x="300" y="664" on="1"/>
        <pt x="358" y="664" on="0"/>
        <pt x="455" y="619" on="0"/>
        <pt x="524" y="533" on="0"/>
        <pt x="562" y="408" on="0"/>
        <pt x="562" y="329" on="1"/>
        <pt x="562" y="249" on="0"/>
        <pt x="524" y="123" on="0"/>
        <pt x="455" y="35" on="0"/>
        <pt x="358" y="-12" on="0"/>
      </contour>
      <contour>
        <pt x="300" y="115" on="1"/>
        <pt x="351" y="115" on="0"/>
        <pt x="411" y="230" on="0"/>
        <pt x="411" y="329" on="1"/>
        <pt x="411" y="427" on="0"/>
        <pt x="351" y="537" on="0"/>
        <pt x="300" y="537" on="1"/>
        <pt x="249" y="537" on="0"/>
        <pt x="189" y="427" on="0"/>
        <pt x="189" y="329" on="1"/>
        <pt x="189" y="230" on="0"/>
        <pt x="249" y="115" on="0"/>
      </contour>
    </TTGlyph>
    <TTGlyph name="OE" xMin="19" yMin="0" xMax="595" yMax="652">
      <contour>
        <pt x="19" y="329" on="1"/>
        <pt x="19" y="413" on="0"/>
        <pt x="61" y="535" on="0"/>
        <pt x="135" y="614" on="0"/>
        <pt x="236" y="652" on="0"/>
        <pt x="295" y="652" on="1"/>
        <pt x="585" y="652" on="1"/>
        <pt x="585" y="529" on="1"/>
        <pt x="425" y="529" on="1"/>
        <pt x="425" y="397" on="1"/>
        <pt x="546" y="397" on="1"/>
        <pt x="546" y="274" on="1"/>
        <pt x="425" y="274" on="1"/>
        <pt x="425" y="124" on="1"/>
        <pt x="595" y="124" on="1"/>
        <pt x="595" y="0" on="1"/>
        <pt x="287" y="0" on="1"/>
        <pt x="229" y="0" on="0"/>
        <pt x="131" y="40" on="0"/>
        <pt x="59" y="121" on="0"/>
        <pt x="19" y="245" on="0"/>
      </contour>
      <contour>
        <pt x="170" y="329" on="1"/>
        <pt x="170" y="270" on="0"/>
        <pt x="185" y="189" on="0"/>
        <pt x="213" y="140" on="0"/>
        <pt x="253" y="119" on="0"/>
        <pt x="278" y="119" on="1"/>
        <pt x="294" y="119" on="1"/>
        <pt x="294" y="533" on="1"/>
        <pt x="278" y="533" on="1"/>
        <pt x="253" y="533" on="0"/>
        <pt x="213" y="513" on="0"/>
        <pt x="185" y="466" on="0"/>
        <pt x="170" y="388" on="0"/>
      </contour>
    </TTGlyph>
    <TTGlyph name="Oacute" xMin="38" yMin="-12" xMax="562" yMax="822">
      <component glyphName="O" x="0" y="0" flags="0x204"/>
      <component glyphName="uni0301.cap" x="0" y="0" flags="0x4"/>
    </TTGlyph>
    <TTGlyph name="Ocircumflex" xMin="38" yMin="-12" xMax="562" yMax="822">
      <component glyphName="O" x="0" y="0" flags="0x204"/>
      <component glyphName="uni0302.cap" x="0" y="0" flags="0x4"/>
    </TTGlyph>
    <TTGlyph name="Odieresis" xMin="38" yMin="-12" xMax="562" yMax="840">
      <component glyphName="O" x="0" y="0" flags="0x204"/>
      <component glyphName="uni0308.cap" x="0" y="0" flags="0x4"/>
    </TTGlyph>
    <TTGlyph name="Ograve" xMin="38" yMin="-12" xMax="562" yMax="822">
      <component glyphName="O" x="0" y="0" flags="0x204"/>
      <component glyphName="uni0300.cap" x="0" y="0" flags="0x4"/>
    </TTGlyph>
    <TTGlyph name="Ohorn" xMin="38" yMin="-12" xMax="595" yMax="784">
      <contour>
        <pt x="300" y="115" on="1"/>
        <pt x="351" y="115" on="0"/>
        <pt x="411" y="230" on="0"/>
        <pt x="411" y="329" on="1"/>
        <pt x="411" y="427" on="0"/>
        <pt x="351" y="537" on="0"/>
        <pt x="300" y="537" on="1"/>
        <pt x="249" y="537" on="0"/>
        <pt x="189" y="427" on="0"/>
        <pt x="189" y="329" on="1"/>
        <pt x="189" y="230" on="0"/>
        <pt x="249" y="115" on="0"/>
      </contour>
      <contour>
        <pt x="566" y="784" on="1"/>
        <pt x="577" y="770" on="0"/>
        <pt x="595" y="729" on="0"/>
        <pt x="595" y="704" on="1"/>
        <pt x="595" y="653" on="0"/>
        <pt x="533" y="593" on="0"/>
        <pt x="485" y="581" on="1"/>
        <pt x="521" y="538" on="0"/>
        <pt x="562" y="411" on="0"/>
        <pt x="562" y="329" on="1"/>
        <pt x="562" y="249" on="0"/>
        <pt x="524" y="123" on="0"/>
        <pt x="455" y="35" on="0"/>
        <pt x="358" y="-12" on="0"/>
        <pt x="300" y="-12" on="1"/>
        <pt x="242" y="-12" on="0"/>
        <pt x="145" y="35" on="0"/>
        <pt x="76" y="123" on="0"/>
        <pt x="38" y="249" on="0"/>
        <pt x="38" y="329" on="1"/>
        <pt x="38" y="409" on="0"/>
        <pt x="76" y="534" on="0"/>
        <pt x="145" y="619" on="0"/>
        <pt x="242" y="664" on="0"/>
        <pt x="300" y="664" on="1"/>
        <pt x="366" y="664" on="0"/>
        <pt x="422" y="633" on="1"/>
        <pt x="449" y="639" on="0"/>
        <pt x="481" y="665" on="0"/>
        <pt x="481" y="694" on="1"/>
        <pt x="481" y="708" on="0"/>
        <pt x="471" y="731" on="0"/>
        <pt x="466" y="740" on="1"/>
      </contour>
    </TTGlyph>
    <TTGlyph name="Ohungarumlaut" xMin="38" yMin="-12" xMax="562" yMax="822">
      <component glyphName="O" x="0" y="0" flags="0x204"/>
      <component glyphName="uni030B.cap" x="0" y="0" flags="0x4"/>
    </TTGlyph>
    <TTGlyph name="Omacron" xMin="38" yMin="-12" xMax="562" yMax="813">
      <component glyphName="O" x="0" y="0" flags="0x204"/>
      <component glyphName="uni0304.cap" x="0" y="0" flags="0x4"/>
    </TTGlyph>
    <TTGlyph name="Oslash" xMin="30" yMin="-41" xMax="579" yMax="693">
      <contour>
        <pt x="237" y="146" on="1"/>
        <pt x="263" y="115" on="0"/>
        <pt x="300" y="115" on="1"/>
        <pt x="351" y="115" on="0"/>
        <pt x="411" y="230" on="0"/>
        <pt x="411" y="329" on="1"/>
        <pt x="411" y="346" on="0"/>
        <pt x="409" y="379" on="0"/>
        <pt x="407" y="393" on="1"/>
      </contour>
      <contour>
        <pt x="369" y="501" on="1"/>
        <pt x="341" y="537" on="0"/>
        <pt x="300" y="537" on="1"/>
        <pt x="249" y="537" on="0"/>
        <pt x="189" y="427" on="0"/>
        <pt x="189" y="329" on="1"/>
        <pt x="189" y="285" on="0"/>
        <pt x="195" y="249" on="1"/>
      </contour>
      <contour>
        <pt x="511" y="544" on="1"/>
        <pt x="536" y="502" on="0"/>
        <pt x="562" y="395" on="0"/>
        <pt x="562" y="329" on="1"/>
        <pt x="562" y="249" on="0"/>
        <pt x="524" y="123" on="0"/>
        <pt x="455" y="35" on="0"/>
        <pt x="358" y="-12" on="0"/>
        <pt x="300" y="-12" on="1"/>
        <pt x="218" y="-12" on="0"/>
        <pt x="159" y="32" on="1"/>
        <pt x="108" y="-41" on="1"/>
        <pt x="30" y="9" on="1"/>
        <pt x="94" y="102" on="1"/>
        <pt x="67" y="145" on="0"/>
        <pt x="38" y="259" on="0"/>
        <pt x="38" y="329" on="1"/>
        <pt x="38" y="409" on="0"/>
        <pt x="76" y="534" on="0"/>
        <pt x="145" y="619" on="0"/>
        <pt x="242" y="664" on="0"/>
        <pt x="300" y="664" on="1"/>
        <pt x="385" y="664" on="0"/>
        <pt x="448" y="616" on="1"/>
        <pt x="501" y="693" on="1"/>
        <pt x="579" y="643" on="1"/>
      </contour>
    </TTGlyph>
    <TTGlyph name="Otilde" xMin="38" yMin="-12" xMax="562" yMax="839">
      <component glyphName="O" x="0" y="0" flags="0x204"/>
      <component glyphName="uni0303.cap" x="0" y="0" flags="0x4"/>
    </TTGlyph>
    <TTGlyph name="P" xMin="74" yMin="0" xMax="567" yMax="652">
      <contour>
        <pt x="74" y="652" on="1"/>
        <pt x="312" y="652" on="1"/>
        <pt x="365" y="652" on="0"/>
        <pt x="458" y="631" on="0"/>
        <pt x="527" y="582" on="0"/>
        <pt x="567" y="501" on="0"/>
        <pt x="567" y="442" on="1"/>
        <pt x="567" y="385" on="0"/>
        <pt x="526" y="301" on="0"/>
        <pt x="456" y="247" on="0"/>
        <pt x="364" y="221" on="0"/>
        <pt x="312" y="221" on="1"/>
        <pt x="221" y="221" on="1"/>
        <pt x="221" y="0" on="1"/>
        <pt x="74" y="0" on="1"/>
      </contour>
      <contour>
        <pt x="303" y="338" on="1"/>
        <pt x="422" y="338" on="0"/>
        <pt x="422" y="442" on="1"/>
        <pt x="422" y="493" on="0"/>
        <pt x="362" y="535" on="0"/>
        <pt x="303" y="535" on="1"/>
        <pt x="221" y="535" on="1"/>
        <pt x="221" y="338" on="1"/>
      </contour>
    </TTGlyph>
    <TTGlyph name="Q" xMin="36" yMin="-178" xMax="580" yMax="664">
      <contour>
        <pt x="297" y="537" on="1"/>
        <pt x="245" y="537" on="0"/>
        <pt x="187" y="427" on="0"/>
        <pt x="187" y="329" on="1"/>
        <pt x="187" y="230" on="0"/>
        <pt x="245" y="115" on="0"/>
        <pt x="297" y="115" on="1"/>
        <pt x="348" y="115" on="0"/>
        <pt x="407" y="230" on="0"/>
        <pt x="407" y="329" on="1"/>
        <pt x="407" y="427" on="0"/>
        <pt x="348" y="537" on="0"/>
      </contour>
      <contour>
        <pt x="580" y="-157" on="1"/>
        <pt x="563" y="-166" on="0"/>
        <pt x="515" y="-178" on="0"/>
        <pt x="484" y="-178" on="1"/>
        <pt x="436" y="-178" on="0"/>
        <pt x="356" y="-152" on="0"/>
        <pt x="291" y="-106" on="0"/>
        <pt x="243" y="-41" on="0"/>
        <pt x="228" y="-3" on="1"/>
        <pt x="140" y="22" on="0"/>
        <pt x="36" y="193" on="0"/>
        <pt x="36" y="329" on="1"/>
        <pt x="36" y="409" on="0"/>
        <pt x="74" y="534" on="0"/>
        <pt x="142" y="619" on="0"/>
        <pt x="238" y="664" on="0"/>
        <pt x="297" y="664" on="1"/>
        <pt x="355" y="664" on="0"/>
        <pt x="451" y="619" on="0"/>
        <pt x="519" y="533" on="0"/>
        <pt x="557" y="408" on="0"/>
        <pt x="557" y="329" on="1"/>
        <pt x="557" y="200" on="0"/>
        <pt x="463" y="31" on="0"/>
        <pt x="382" y="2" on="1"/>
        <pt x="399" y="-33" on="0"/>
        <pt x="466" y="-60" on="0"/>
        <pt x="501" y="-60" on="1"/>
        <pt x="516" y="-60" on="0"/>
        <pt x="543" y="-52" on="0"/>
        <pt x="554" y="-47" on="1"/>
      </contour>
    </TTGlyph>
    <TTGlyph name="R" xMin="70" yMin="0" xMax="584" yMax="652">
      <contour>
        <pt x="217" y="352" on="1"/>
        <pt x="289" y="352" on="1"/>
        <pt x="408" y="352" on="0"/>
        <pt x="408" y="449" on="1"/>
        <pt x="408" y="497" on="0"/>
        <pt x="348" y="535" on="0"/>
        <pt x="289" y="535" on="1"/>
        <pt x="217" y="535" on="1"/>
      </contour>
      <contour>
        <pt x="419" y="0" on="1"/>
        <pt x="294" y="235" on="1"/>
        <pt x="217" y="235" on="1"/>
        <pt x="217" y="0" on="1"/>
        <pt x="70" y="0" on="1"/>
        <pt x="70" y="652" on="1"/>
        <pt x="301" y="652" on="1"/>
        <pt x="353" y="652" on="0"/>
        <pt x="444" y="632" on="0"/>
        <pt x="513" y="585" on="0"/>
        <pt x="553" y="507" on="0"/>
        <pt x="553" y="449" on="1"/>
        <pt x="553" y="377" on="0"/>
        <pt x="489" y="284" on="0"/>
        <pt x="437" y="261" on="1"/>
        <pt x="584" y="0" on="1"/>
      </contour>
    </TTGlyph>
    <TTGlyph name="Racute" xMin="70" yMin="0" xMax="584" yMax="822">
      <component glyphName="R" x="0" y="0" flags="0x204"/>
      <component glyphName="uni0301.cap" x="3" y="0" flags="0x4"/>
    </TTGlyph>
    <TTGlyph name="Rcaron" xMin="70" yMin="0" xMax="584" yMax="822">
      <component glyphName="R" x="0" y="0" flags="0x204"/>
      <component glyphName="uni030C.cap" x="3" y="0" flags="0x4"/>
    </TTGlyph>
    <TTGlyph name="S" xMin="50" yMin="-12" xMax="551" yMax="664">
      <contour>
        <pt x="135" y="183" on="1"/>
        <pt x="172" y="153" on="0"/>
        <pt x="259" y="115" on="0"/>
        <pt x="302" y="115" on="1"/>
        <pt x="353" y="115" on="0"/>
        <pt x="400" y="149" on="0"/>
        <pt x="400" y="178" on="1"/>
        <pt x="400" y="193" on="0"/>
        <pt x="386" y="215" on="0"/>
        <pt x="360" y="232" on="0"/>
        <pt x="323" y="247" on="0"/>
        <pt x="299" y="256" on="1"/>
        <pt x="215" y="292" on="1"/>
        <pt x="188" y="302" on="0"/>
        <pt x="137" y="334" on="0"/>
        <pt x="99" y="377" on="0"/>
        <pt x="76" y="434" on="0"/>
        <pt x="76" y="470" on="1"/>
        <pt x="76" y="510" on="0"/>
        <pt x="111" y="581" on="0"/>
        <pt x="174" y="634" on="0"/>
        <pt x="262" y="664" on="0"/>
        <pt x="315" y="664" on="1"/>
        <pt x="375" y="664" on="0"/>
        <pt x="487" y="620" on="0"/>
        <pt x="532" y="578" on="1"/>
        <pt x="457" y="485" on="1"/>
        <pt x="423" y="510" on="0"/>
        <pt x="357" y="537" on="0"/>
        <pt x="315" y="537" on="1"/>
        <pt x="272" y="537" on="0"/>
        <pt x="225" y="506" on="0"/>
        <pt x="225" y="478" on="1"/>
        <pt x="225" y="448" on="0"/>
        <pt x="285" y="418" on="0"/>
        <pt x="332" y="401" on="1"/>
        <pt x="411" y="367" on="1"/>
        <pt x="476" y="343" on="0"/>
        <pt x="551" y="259" on="0"/>
        <pt x="551" y="190" on="1"/>
        <pt x="551" y="149" on="0"/>
        <pt x="517" y="76" on="0"/>
        <pt x="453" y="21" on="0"/>
        <pt x="359" y="-12" on="0"/>
        <pt x="298" y="-12" on="1"/>
        <pt x="232" y="-12" on="0"/>
        <pt x="103" y="35" on="0"/>
        <pt x="50" y="82" on="1"/>
      </contour>
    </TTGlyph>
    <TTGlyph name="Sacute" xMin="50" yMin="-12" xMax="551" yMax="822">
      <component glyphName="S" x="0" y="0" flags="0x204"/>
      <component glyphName="uni0301.cap" x="7" y="0" flags="0x4"/>
    </TTGlyph>
    <TTGlyph name="Scaron" xMin="50" yMin="-12" xMax="551" yMax="822">
      <component glyphName="S" x="0" y="0" flags="0x204"/>
      <component glyphName="uni030C.cap" x="7" y="0" flags="0x4"/>
    </TTGlyph>
    <TTGlyph name="Scircumflex" xMin="50" yMin="-12" xMax="551" yMax="822">
      <component glyphName="S" x="0" y="0" flags="0x204"/>
      <component glyphName="uni0302.cap" x="7" y="0" flags="0x4"/>
    </TTGlyph>
    <TTGlyph name="T" xMin="31" yMin="0" xMax="569" yMax="652">
      <contour>
        <pt x="226" y="528" on="1"/>
        <pt x="31" y="528" on="1"/>
        <pt x="31" y="652" on="1"/>
        <pt x="569" y="652" on="1"/>
        <pt x="569" y="528" on="1"/>
        <pt x="374" y="528" on="1"/>
        <pt x="374" y="0" on="1"/>
        <pt x="226" y="0" on="1"/>
      </contour>
    </TTGlyph>
    <TTGlyph name="Tcaron" xMin="31" yMin="0" xMax="569" yMax="822">
      <component glyphName="T" x="0" y="0" flags="0x204"/>
      <component glyphName="uni030C.cap" x="0" y="0" flags="0x4"/>
    </TTGlyph>
    <TTGlyph name="Thorn" xMin="73" yMin="0" xMax="566" yMax="652">
      <contour>
        <pt x="73" y="652" on="1"/>
        <pt x="220" y="652" on="1"/>
        <pt x="220" y="553" on="1"/>
        <pt x="311" y="553" on="1"/>
        <pt x="364" y="553" on="0"/>
        <pt x="457" y="532" on="0"/>
        <pt x="526" y="483" on="0"/>
        <pt x="566" y="403" on="0"/>
        <pt x="566" y="344" on="1"/>
        <pt x="566" y="286" on="0"/>
        <pt x="525" y="203" on="0"/>
        <pt x="455" y="149" on="0"/>
        <pt x="363" y="123" on="0"/>
        <pt x="311" y="123" on="1"/>
        <pt x="220" y="123" on="1"/>
        <pt x="220" y="0" on="1"/>
        <pt x="73" y="0" on="1"/>
      </contour>
      <contour>
        <pt x="302" y="240" on="1"/>
        <pt x="421" y="240" on="0"/>
        <pt x="421" y="344" on="1"/>
        <pt x="421" y="395" on="0"/>
        <pt x="361" y="436" on="0"/>
        <pt x="302" y="436" on="1"/>
        <pt x="220" y="436" on="1"/>
        <pt x="220" y="240" on="1"/>
      </contour>
    </TTGlyph>
    <TTGlyph name="U" xMin="64" yMin="-12" xMax="536" yMax="652">
      <contour>
        <pt x="64" y="652" on="1"/>
        <pt x="211" y="652" on="1"/>
        <pt x="211" y="236" on="1"/>
        <pt x="211" y="177" on="0"/>
        <pt x="255" y="115" on="0"/>
        <pt x="302" y="115" on="1"/>
        <pt x="349" y="115" on="0"/>
        <pt x="394" y="177" on="0"/>
        <pt x="394" y="236" on="1"/>
        <pt x="394" y="652" on="1"/>
        <pt x="536" y="652" on="1"/>
        <pt x="536" y="251" on="1"/>
        <pt x="536" y="123" on="0"/>
        <pt x="421" y="-12" on="0"/>
        <pt x="302" y="-12" on="1"/>
        <pt x="182" y="-12" on="0"/>
        <pt x="64" y="123" on="0"/>
        <pt x="64" y="251" on="1"/>
      </contour>
    </TTGlyph>
    <TTGlyph name="Uacute" xMin="64" yMin="-12" xMax="536" yMax="822">
      <component glyphName="U" x="0" y="0" flags="0x204"/>
      <component glyphName="uni0301.cap" x="0" y="0" flags="0x4"/>
    </TTGlyph>
    <TTGlyph name="Ubreve" xMin="64" yMin="-12" xMax="536" yMax="822">
      <component glyphName="U" x="0" y="0" flags="0x204"/>
      <component glyphName="uni0306.cap" x="0" y="0" flags="0x4"/>
    </TTGlyph>
    <TTGlyph name="Ucircumflex" xMin="64" yMin="-12" xMax="536" yMax="822">
      <component glyphName="U" x="0" y="0" flags="0x204"/>
      <component glyphName="uni0302.cap" x="0" y="0" flags="0x4"/>
    </TTGlyph>
    <TTGlyph name="Udieresis" xMin="64" yMin="-12" xMax="536" yMax="840">
      <component glyphName="U" x="0" y="0" flags="0x204"/>
      <component glyphName="uni0308.cap" x="0" y="0" flags="0x4"/>
    </TTGlyph>
    <TTGlyph name="Ugrave" xMin="64" yMin="-12" xMax="536" yMax="822">
      <component glyphName="U" x="0" y="0" flags="0x204"/>
      <component glyphName="uni0300.cap" x="0" y="0" flags="0x4"/>
    </TTGlyph>
    <TTGlyph name="Uhorn" xMin="64" yMin="-12" xMax="660" yMax="804">
      <contour>
        <pt x="631" y="804" on="1"/>
        <pt x="642" y="790" on="0"/>
        <pt x="660" y="749" on="0"/>
        <pt x="660" y="724" on="1"/>
        <pt x="660" y="696" on="0"/>
        <pt x="641" y="653" on="0"/>
        <pt x="608" y="622" on="0"/>
        <pt x="562" y="603" on="0"/>
        <pt x="536" y="598" on="1"/>
        <pt x="536" y="251" on="1"/>
        <pt x="536" y="123" on="0"/>
        <pt x="421" y="-12" on="0"/>
        <pt x="302" y="-12" on="1"/>
        <pt x="182" y="-12" on="0"/>
        <pt x="64" y="123" on="0"/>
        <pt x="64" y="251" on="1"/>
        <pt x="64" y="652" on="1"/>
        <pt x="211" y="652" on="1"/>
        <pt x="211" y="236" on="1"/>
        <pt x="211" y="177" on="0"/>
        <pt x="255" y="115" on="0"/>
        <pt x="302" y="115" on="1"/>
        <pt x="349" y="115" on="0"/>
        <pt x="394" y="177" on="0"/>
        <pt x="394" y="236" on="1"/>
        <pt x="394" y="652" on="1"/>
        <pt x="464" y="652" on="1"/>
        <pt x="479" y="653" on="0"/>
        <pt x="508" y="658" on="0"/>
        <pt x="532" y="671" on="0"/>
        <pt x="546" y="694" on="0"/>
        <pt x="546" y="714" on="1"/>
        <pt x="546" y="728" on="0"/>
        <pt x="536" y="751" on="0"/>
        <pt x="531" y="760" on="1"/>
      </contour>
    </TTGlyph>
    <TTGlyph name="Uhungarumlaut" xMin="64" yMin="-12" xMax="536" yMax="822">
      <component glyphName="U" x="0" y="0" flags="0x204"/>
      <component glyphName="uni030B.cap" x="0" y="0" flags="0x4"/>
    </TTGlyph>
    <TTGlyph name="Umacron" xMin="64" yMin="-12" xMax="536" yMax="813">
      <component glyphName="U" x="0" y="0" flags="0x204"/>
      <component glyphName="uni0304.cap" x="0" y="0" flags="0x4"/>
    </TTGlyph>
    <TTGlyph name="Uogonek" xMin="64" yMin="-223" xMax="536" yMax="652">
      <contour>
        <pt x="64" y="652" on="1"/>
        <pt x="211" y="652" on="1"/>
        <pt x="211" y="236" on="1"/>
        <pt x="211" y="177" on="0"/>
        <pt x="255" y="115" on="0"/>
        <pt x="301" y="115" on="1"/>
        <pt x="348" y="115" on="0"/>
        <pt x="394" y="177" on="0"/>
        <pt x="394" y="236" on="1"/>
        <pt x="394" y="652" on="1"/>
        <pt x="536" y="652" on="1"/>
        <pt x="536" y="251" on="1"/>
        <pt x="536" y="157" on="0"/>
        <pt x="474" y="38" on="0"/>
        <pt x="412" y="9" on="1"/>
        <pt x="383" y="-5" on="0"/>
        <pt x="347" y="-31" on="0"/>
        <pt x="326" y="-56" on="0"/>
        <pt x="318" y="-80" on="0"/>
        <pt x="318" y="-90" on="1"/>
        <pt x="318" y="-110" on="0"/>
        <pt x="344" y="-128" on="0"/>
        <pt x="360" y="-128" on="1"/>
        <pt x="370" y="-128" on="0"/>
        <pt x="388" y="-119" on="0"/>
        <pt x="395" y="-114" on="1"/>
        <pt x="429" y="-188" on="1"/>
        <pt x="410" y="-203" on="0"/>
        <pt x="351" y="-223" on="0"/>
        <pt x="325" y="-223" on="1"/>
        <pt x="277" y="-223" on="0"/>
        <pt x="210" y="-174" on="0"/>
        <pt x="210" y="-129" on="1"/>
        <pt x="210" y="-106" on="0"/>
        <pt x="225" y="-68" on="0"/>
        <pt x="246" y="-38" on="0"/>
        <pt x="268" y="-16" on="0"/>
        <pt x="274" y="-10" on="1"/>
        <pt x="168" y="-3" on="0"/>
        <pt x="64" y="133" on="0"/>
        <pt x="64" y="251" on="1"/>
      </contour>
    </TTGlyph>
    <TTGlyph name="Uring" xMin="64" yMin="-12" xMax="536" yMax="893">
      <component glyphName="U" x="0" y="0" flags="0x204"/>
      <component glyphName="uni030A.cap" x="0" y="0" flags="0x4"/>
    </TTGlyph>
    <TTGlyph name="Utilde" xMin="64" yMin="-12" xMax="536" yMax="839">
      <component glyphName="U" x="0" y="0" flags="0x204"/>
      <component glyphName="uni0303.cap" x="0" y="0" flags="0x4"/>
    </TTGlyph>
    <TTGlyph name="V" xMin="15" yMin="0" xMax="585" yMax="652">
      <contour>
        <pt x="15" y="652" on="1"/>
        <pt x="171" y="652" on="1"/>
        <pt x="249" y="348" on="1"/>
        <pt x="264" y="294" on="0"/>
        <pt x="287" y="193" on="0"/>
        <pt x="301" y="139" on="1"/>
        <pt x="305" y="139" on="1"/>
        <pt x="320" y="193" on="0"/>
        <pt x="344" y="294" on="0"/>
        <pt x="358" y="348" on="1"/>
        <pt x="435" y="652" on="1"/>
        <pt x="585" y="652" on="1"/>
        <pt x="389" y="0" on="1"/>
        <pt x="212" y="0" on="1"/>
      </contour>
    </TTGlyph>
    <TTGlyph name="W" xMin="4" yMin="0" xMax="596" yMax="652">
      <contour>
        <pt x="4" y="652" on="1"/>
        <pt x="154" y="652" on="1"/>
        <pt x="175" y="305" on="1"/>
        <pt x="176" y="263" on="0"/>
        <pt x="178" y="181" on="0"/>
        <pt x="179" y="139" on="1"/>
        <pt x="182" y="139" on="1"/>
        <pt x="190" y="181" on="0"/>
        <pt x="209" y="263" on="0"/>
        <pt x="217" y="305" on="1"/>
        <pt x="262" y="486" on="1"/>
        <pt x="351" y="486" on="1"/>
        <pt x="394" y="305" on="1"/>
        <pt x="402" y="265" on="0"/>
        <pt x="420" y="181" on="0"/>
        <pt x="428" y="139" on="1"/>
        <pt x="432" y="139" on="1"/>
        <pt x="434" y="181" on="0"/>
        <pt x="435" y="264" on="0"/>
        <pt x="437" y="305" on="1"/>
        <pt x="456" y="652" on="1"/>
        <pt x="596" y="652" on="1"/>
        <pt x="515" y="0" on="1"/>
        <pt x="361" y="0" on="1"/>
        <pt x="320" y="205" on="1"/>
        <pt x="314" y="236" on="0"/>
        <pt x="304" y="301" on="0"/>
        <pt x="302" y="330" on="1"/>
        <pt x="299" y="330" on="1"/>
        <pt x="296" y="301" on="0"/>
        <pt x="287" y="236" on="0"/>
        <pt x="281" y="205" on="1"/>
        <pt x="242" y="0" on="1"/>
        <pt x="91" y="0" on="1"/>
      </contour>
    </TTGlyph>
    <TTGlyph name="Wacute" xMin="4" yMin="0" xMax="596" yMax="822">
      <component glyphName="W" x="0" y="0" flags="0x204"/>
      <component glyphName="uni0301.cap" x="0" y="0" flags="0x4"/>
    </TTGlyph>
    <TTGlyph name="Wcircumflex" xMin="4" yMin="0" xMax="596" yMax="822">
      <component glyphName="W" x="0" y="0" flags="0x204"/>
      <component glyphName="uni0302.cap" x="0" y="0" flags="0x4"/>
    </TTGlyph>
    <TTGlyph name="Wdieresis" xMin="4" yMin="0" xMax="596" yMax="840">
      <component glyphName="W" x="0" y="0" flags="0x204"/>
      <component glyphName="uni0308.cap" x="0" y="0" flags="0x4"/>
    </TTGlyph>
    <TTGlyph name="Wgrave" xMin="4" yMin="0" xMax="596" yMax="822">
      <component glyphName="W" x="0" y="0" flags="0x204"/>
      <component glyphName="uni0300.cap" x="0" y="0" flags="0x4"/>
    </TTGlyph>
    <TTGlyph name="X" xMin="18" yMin="0" xMax="582" yMax="652">
      <contour>
        <pt x="208" y="335" on="1"/>
        <pt x="29" y="652" on="1"/>
        <pt x="194" y="652" on="1"/>
        <pt x="257" y="529" on="1"/>
        <pt x="268" y="506" on="0"/>
        <pt x="292" y="455" on="0"/>
        <pt x="307" y="424" on="1"/>
        <pt x="311" y="424" on="1"/>
        <pt x="323" y="455" on="0"/>
        <pt x="344" y="506" on="0"/>
        <pt x="355" y="529" on="1"/>
        <pt x="413" y="652" on="1"/>
        <pt x="571" y="652" on="1"/>
        <pt x="392" y="328" on="1"/>
        <pt x="582" y="0" on="1"/>
        <pt x="418" y="0" on="1"/>
        <pt x="347" y="133" on="1"/>
        <pt x="333" y="159" on="0"/>
        <pt x="309" y="210" on="0"/>
        <pt x="295" y="240" on="1"/>
        <pt x="291" y="240" on="1"/>
        <pt x="279" y="210" on="0"/>
        <pt x="255" y="159" on="0"/>
        <pt x="243" y="133" on="1"/>
        <pt x="175" y="0" on="1"/>
        <pt x="18" y="0" on="1"/>
      </contour>
    </TTGlyph>
    <TTGlyph name="Y" xMin="16" yMin="0" xMax="584" yMax="652">
      <contour>
        <pt x="226" y="220" on="1"/>
        <pt x="16" y="652" on="1"/>
        <pt x="174" y="652" on="1"/>
        <pt x="240" y="495" on="1"/>
        <pt x="254" y="457" on="0"/>
        <pt x="284" y="385" on="0"/>
        <pt x="299" y="346" on="1"/>
        <pt x="303" y="346" on="1"/>
        <pt x="319" y="385" on="0"/>
        <pt x="349" y="457" on="0"/>
        <pt x="364" y="495" on="1"/>
        <pt x="430" y="652" on="1"/>
        <pt x="584" y="652" on="1"/>
        <pt x="374" y="220" on="1"/>
        <pt x="374" y="0" on="1"/>
        <pt x="226" y="0" on="1"/>
      </contour>
    </TTGlyph>
    <TTGlyph name="Yacute" xMin="16" yMin="0" xMax="584" yMax="822">
      <component glyphName="Y" x="0" y="0" flags="0x204"/>
      <component glyphName="uni0301.cap" x="0" y="0" flags="0x4"/>
    </TTGlyph>
    <TTGlyph name="Ycircumflex" xMin="16" yMin="0" xMax="584" yMax="822">
      <component glyphName="Y" x="0" y="0" flags="0x204"/>
      <component glyphName="uni0302.cap" x="0" y="0" flags="0x4"/>
    </TTGlyph>
    <TTGlyph name="Ydieresis" xMin="16" yMin="0" xMax="584" yMax="840">
      <component glyphName="Y" x="0" y="0" flags="0x204"/>
      <component glyphName="uni0308.cap" x="0" y="0" flags="0x4"/>
    </TTGlyph>
    <TTGlyph name="Ygrave" xMin="16" yMin="0" xMax="584" yMax="822">
      <component glyphName="Y" x="0" y="0" flags="0x204"/>
      <component glyphName="uni0300.cap" x="0" y="0" flags="0x4"/>
    </TTGlyph>
    <TTGlyph name="Z" xMin="56" yMin="0" xMax="547" yMax="652">
      <contour>
        <pt x="56" y="89" on="1"/>
        <pt x="362" y="529" on="1"/>
        <pt x="85" y="529" on="1"/>
        <pt x="85" y="652" on="1"/>
        <pt x="543" y="652" on="1"/>
        <pt x="543" y="563" on="1"/>
        <pt x="238" y="124" on="1"/>
        <pt x="547" y="124" on="1"/>
        <pt x="547" y="0" on="1"/>
        <pt x="56" y="0" on="1"/>
      </contour>
    </TTGlyph>
    <TTGlyph name="Zacute" xMin="56" yMin="0" xMax="547" yMax="822">
      <component glyphName="Z" x="0" y="0" flags="0x204"/>
      <component glyphName="uni0301.cap" x="14" y="0" flags="0x4"/>
    </TTGlyph>
    <TTGlyph name="Zcaron" xMin="56" yMin="0" xMax="547" yMax="822">
      <component glyphName="Z" x="0" y="0" flags="0x204"/>
      <component glyphName="uni030C.cap" x="14" y="0" flags="0x4"/>
    </TTGlyph>
    <TTGlyph name="Zdotaccent" xMin="56" yMin="0" xMax="547" yMax="855">
      <component glyphName="Z" x="0" y="0" flags="0x204"/>
      <component glyphName="uni0307.cap" x="14" y="0" flags="0x4"/>
    </TTGlyph>
    <TTGlyph name="a" xMin="61" yMin="-12" xMax="535" yMax="508">
      <contour>
        <pt x="61" y="138" on="1"/>
        <pt x="61" y="180" on="0"/>
        <pt x="97" y="243" on="0"/>
        <pt x="176" y="287" on="0"/>
        <pt x="300" y="314" on="0"/>
        <pt x="388" y="319" on="1"/>
        <pt x="384" y="353" on="0"/>
        <pt x="333" y="391" on="0"/>
        <pt x="282" y="391" on="1"/>
        <pt x="246" y="391" on="0"/>
        <pt x="173" y="366" on="0"/>
        <pt x="131" y="345" on="1"/>
        <pt x="79" y="441" on="1"/>
        <pt x="130" y="470" on="0"/>
        <pt x="247" y="508" on="0"/>
        <pt x="311" y="508" on="1"/>
        <pt x="415" y="508" on="0"/>
        <pt x="535" y="398" on="0"/>
        <pt x="535" y="284" on="1"/>
        <pt x="535" y="0" on="1"/>
        <pt x="415" y="0" on="1"/>
        <pt x="404" y="56" on="1"/>
        <pt x="400" y="56" on="1"/>
        <pt x="362" y="27" on="0"/>
        <pt x="272" y="-12" on="0"/>
        <pt x="224" y="-12" on="1"/>
        <pt x="186" y="-12" on="0"/>
        <pt x="126" y="11" on="0"/>
        <pt x="84" y="52" on="0"/>
        <pt x="61" y="106" on="0"/>
      </contour>
      <contour>
        <pt x="202" y="149" on="1"/>
        <pt x="202" y="125" on="0"/>
        <pt x="239" y="102" on="0"/>
        <pt x="271" y="102" on="1"/>
        <pt x="304" y="102" on="0"/>
        <pt x="362" y="129" on="0"/>
        <pt x="388" y="149" on="1"/>
        <pt x="388" y="231" on="1"/>
        <pt x="333" y="228" on="0"/>
        <pt x="261" y="214" on="0"/>
        <pt x="219" y="193" on="0"/>
        <pt x="202" y="165" on="0"/>
      </contour>
    </TTGlyph>
    <TTGlyph name="a.a" xMin="47" yMin="-12" xMax="528" yMax="508">
      <component glyphName="uni0251" x="0" y="0" flags="0x204"/>
    </TTGlyph>
    <TTGlyph name="a.supa" xMin="128" yMin="252" xMax="452" yMax="597">
      <contour>
        <pt x="235" y="425" on="1"/>
        <pt x="235" y="378" on="0"/>
        <pt x="268" y="336" on="0"/>
        <pt x="295" y="336" on="1"/>
        <pt x="310" y="336" on="0"/>
        <pt x="337" y="347" on="0"/>
        <pt x="349" y="363" on="1"/>
        <pt x="349" y="493" on="1"/>
        <pt x="336" y="504" on="0"/>
        <pt x="307" y="513" on="0"/>
        <pt x="293" y="513" on="1"/>
        <pt x="271" y="513" on="0"/>
        <pt x="235" y="471" on="0"/>
      </contour>
      <contour>
        <pt x="128" y="424" on="1"/>
        <pt x="128" y="464" on="0"/>
        <pt x="152" y="529" on="0"/>
        <pt x="192" y="573" on="0"/>
        <pt x="244" y="597" on="0"/>
        <pt x="272" y="597" on="1"/>
        <pt x="322" y="597" on="0"/>
        <pt x="360" y="556" on="1"/>
        <pt x="363" y="556" on="1"/>
        <pt x="372" y="589" on="1"/>
        <pt x="452" y="589" on="1"/>
        <pt x="452" y="260" on="1"/>
        <pt x="368" y="260" on="1"/>
        <pt x="360" y="292" on="1"/>
        <pt x="358" y="292" on="1"/>
        <pt x="341" y="275" on="0"/>
        <pt x="291" y="252" on="0"/>
        <pt x="267" y="252" on="1"/>
        <pt x="204" y="252" on="0"/>
        <pt x="128" y="343" on="0"/>
      </contour>
    </TTGlyph>
    <TTGlyph name="a.sups" xMin="154" yMin="252" xMax="453" yMax="597">
      <contour>
        <pt x="154" y="351" on="1"/>
        <pt x="154" y="404" on="0"/>
        <pt x="246" y="462" on="0"/>
        <pt x="349" y="472" on="1"/>
        <pt x="346" y="515" on="0"/>
        <pt x="293" y="515" on="1"/>
        <pt x="273" y="515" on="0"/>
        <pt x="227" y="500" on="0"/>
        <pt x="202" y="486" on="1"/>
        <pt x="165" y="553" on="1"/>
        <pt x="198" y="573" on="0"/>
        <pt x="274" y="597" on="0"/>
        <pt x="314" y="597" on="1"/>
        <pt x="379" y="597" on="0"/>
        <pt x="453" y="524" on="0"/>
        <pt x="453" y="446" on="1"/>
        <pt x="453" y="260" on="1"/>
        <pt x="368" y="260" on="1"/>
        <pt x="361" y="293" on="1"/>
        <pt x="359" y="293" on="1"/>
        <pt x="337" y="275" on="0"/>
        <pt x="286" y="252" on="0"/>
        <pt x="259" y="252" on="1"/>
        <pt x="211" y="252" on="0"/>
        <pt x="154" y="310" on="0"/>
      </contour>
      <contour>
        <pt x="254" y="360" on="1"/>
        <pt x="254" y="346" on="0"/>
        <pt x="275" y="331" on="0"/>
        <pt x="292" y="331" on="1"/>
        <pt x="308" y="331" on="0"/>
        <pt x="337" y="345" on="0"/>
        <pt x="349" y="357" on="1"/>
        <pt x="349" y="410" on="1"/>
        <pt x="295" y="403" on="0"/>
        <pt x="254" y="377" on="0"/>
      </contour>
    </TTGlyph>
    <TTGlyph name="aacute" xMin="61" yMin="-12" xMax="535" yMax="741">
      <component glyphName="a" x="0" y="0" flags="0x204"/>
      <component glyphName="uni0301" x="8" y="0" flags="0x4"/>
    </TTGlyph>
    <TTGlyph name="aacute.a" xMin="47" yMin="-12" xMax="528" yMax="741">
      <component glyphName="uni0251" x="0" y="0" flags="0x204"/>
      <component glyphName="uni0301" x="14" y="0" flags="0x4"/>
    </TTGlyph>
    <TTGlyph name="abreve" xMin="61" yMin="-12" xMax="535" yMax="730">
      <component glyphName="a" x="0" y="0" flags="0x204"/>
      <component glyphName="uni0306" x="8" y="0" flags="0x4"/>
    </TTGlyph>
    <TTGlyph name="abreve.a" xMin="47" yMin="-12" xMax="528" yMax="730">
      <component glyphName="uni0251" x="0" y="0" flags="0x204"/>
      <component glyphName="uni0306" x="14" y="0" flags="0x4"/>
    </TTGlyph>
    <TTGlyph name="acircumflex" xMin="61" yMin="-12" xMax="535" yMax="741">
      <component glyphName="a" x="0" y="0" flags="0x204"/>
      <component glyphName="uni0302" x="8" y="0" flags="0x4"/>
    </TTGlyph>
    <TTGlyph name="acircumflex.a" xMin="47" yMin="-12" xMax="528" yMax="741">
      <component glyphName="uni0251" x="0" y="0" flags="0x204"/>
      <component glyphName="uni0302" x="14" y="0" flags="0x4"/>
    </TTGlyph>
    <TTGlyph name="acute" xMin="218" yMin="574" xMax="457" yMax="741">
      <component glyphName="uni0301" x="0" y="0" flags="0x204"/>
    </TTGlyph>
    <TTGlyph name="adieresis" xMin="61" yMin="-12" xMax="535" yMax="728">
      <component glyphName="a" x="0" y="0" flags="0x204"/>
      <component glyphName="uni0308" x="8" y="0" flags="0x4"/>
    </TTGlyph>
    <TTGlyph name="adieresis.a" xMin="47" yMin="-12" xMax="528" yMax="728">
      <component glyphName="uni0251" x="0" y="0" flags="0x204"/>
      <component glyphName="uni0308" x="14" y="0" flags="0x4"/>
    </TTGlyph>
    <TTGlyph name="ae" xMin="16" yMin="-12" xMax="593" yMax="508">
      <contour>
        <pt x="16" y="138" on="1"/>
        <pt x="16" y="215" on="0"/>
        <pt x="127" y="298" on="0"/>
        <pt x="241" y="320" on="1"/>
        <pt x="238" y="355" on="0"/>
        <pt x="213" y="391" on="0"/>
        <pt x="184" y="391" on="1"/>
        <pt x="164" y="391" on="0"/>
        <pt x="107" y="373" on="0"/>
        <pt x="81" y="357" on="1"/>
        <pt x="29" y="453" on="1"/>
        <pt x="71" y="478" on="0"/>
        <pt x="151" y="508" on="0"/>
        <pt x="194" y="508" on="1"/>
        <pt x="238" y="508" on="0"/>
        <pt x="293" y="468" on="0"/>
        <pt x="310" y="435" on="1"/>
        <pt x="336" y="472" on="0"/>
        <pt x="394" y="508" on="0"/>
        <pt x="438" y="508" on="1"/>
        <pt x="476" y="508" on="0"/>
        <pt x="534" y="470" on="0"/>
        <pt x="573" y="405" on="0"/>
        <pt x="593" y="318" on="0"/>
        <pt x="593" y="269" on="1"/>
        <pt x="593" y="249" on="0"/>
        <pt x="588" y="215" on="0"/>
        <pt x="586" y="205" on="1"/>
        <pt x="359" y="205" on="1"/>
        <pt x="367" y="154" on="0"/>
        <pt x="415" y="103" on="0"/>
        <pt x="450" y="103" on="1"/>
        <pt x="471" y="103" on="0"/>
        <pt x="508" y="115" on="0"/>
        <pt x="528" y="129" on="1"/>
        <pt x="578" y="35" on="1"/>
        <pt x="549" y="12" on="0"/>
        <pt x="477" y="-12" on="0"/>
        <pt x="445" y="-12" on="1"/>
        <pt x="391" y="-12" on="0"/>
        <pt x="320" y="30" on="0"/>
        <pt x="294" y="65" on="1"/>
        <pt x="255" y="24" on="0"/>
        <pt x="188" y="-12" on="0"/>
        <pt x="154" y="-12" on="1"/>
        <pt x="120" y="-12" on="0"/>
        <pt x="69" y="12" on="0"/>
        <pt x="34" y="52" on="0"/>
        <pt x="16" y="107" on="0"/>
      </contour>
      <contour>
        <pt x="476" y="295" on="1"/>
        <pt x="476" y="316" on="0"/>
        <pt x="471" y="352" on="0"/>
        <pt x="459" y="380" on="0"/>
        <pt x="439" y="396" on="0"/>
        <pt x="424" y="396" on="1"/>
        <pt x="399" y="396" on="0"/>
        <pt x="362" y="347" on="0"/>
        <pt x="357" y="295" on="1"/>
      </contour>
      <contour>
        <pt x="148" y="150" on="1"/>
        <pt x="148" y="102" on="0"/>
        <pt x="194" y="102" on="1"/>
        <pt x="208" y="102" on="0"/>
        <pt x="241" y="119" on="0"/>
        <pt x="255" y="136" on="1"/>
        <pt x="249" y="152" on="0"/>
        <pt x="243" y="191" on="0"/>
        <pt x="241" y="210" on="1"/>
        <pt x="240" y="231" on="1"/>
        <pt x="191" y="220" on="0"/>
        <pt x="148" y="179" on="0"/>
      </contour>
    </TTGlyph>
    <TTGlyph name="agrave" xMin="61" yMin="-12" xMax="535" yMax="741">
      <component glyphName="a" x="0" y="0" flags="0x204"/>
      <component glyphName="uni0300" x="8" y="0" flags="0x4"/>
    </TTGlyph>
    <TTGlyph name="agrave.a" xMin="47" yMin="-12" xMax="528" yMax="741">
      <component glyphName="uni0251" x="0" y="0" flags="0x204"/>
      <component glyphName="uni0300" x="14" y="0" flags="0x4"/>
    </TTGlyph>
    <TTGlyph name="amacron" xMin="61" yMin="-12" xMax="535" yMax="685">
      <component glyphName="a" x="0" y="0" flags="0x204"/>
      <component glyphName="uni0304" x="8" y="0" flags="0x4"/>
    </TTGlyph>
    <TTGlyph name="amacron.a" xMin="47" yMin="-12" xMax="528" yMax="685">
      <component glyphName="uni0251" x="0" y="0" flags="0x204"/>
      <component glyphName="uni0304" x="14" y="0" flags="0x4"/>
    </TTGlyph>
    <TTGlyph name="ampersand" xMin="23" yMin="-12" xMax="586" yMax="664">
      <contour>
        <pt x="162" y="183" on="1"/>
        <pt x="162" y="146" on="0"/>
        <pt x="211" y="100" on="0"/>
        <pt x="251" y="100" on="1"/>
        <pt x="283" y="100" on="0"/>
        <pt x="315" y="123" on="1"/>
        <pt x="280" y="153" on="0"/>
        <pt x="217" y="220" on="0"/>
        <pt x="191" y="256" on="1"/>
        <pt x="177" y="239" on="0"/>
        <pt x="162" y="203" on="0"/>
      </contour>
      <contour>
        <pt x="207" y="494" on="1"/>
        <pt x="207" y="460" on="0"/>
        <pt x="226" y="419" on="1"/>
        <pt x="254" y="439" on="0"/>
        <pt x="291" y="485" on="0"/>
        <pt x="291" y="516" on="1"/>
        <pt x="291" y="539" on="0"/>
        <pt x="273" y="567" on="0"/>
        <pt x="250" y="567" on="1"/>
        <pt x="231" y="567" on="0"/>
        <pt x="207" y="528" on="0"/>
      </contour>
      <contour>
        <pt x="586" y="368" on="1"/>
        <pt x="571" y="308" on="0"/>
        <pt x="527" y="199" on="0"/>
        <pt x="495" y="148" on="1"/>
        <pt x="546" y="116" on="0"/>
        <pt x="586" y="107" on="1"/>
        <pt x="551" y="-12" on="1"/>
        <pt x="483" y="4" on="0"/>
        <pt x="413" y="51" on="1"/>
        <pt x="376" y="22" on="0"/>
        <pt x="287" y="-12" on="0"/>
        <pt x="232" y="-12" on="1"/>
        <pt x="181" y="-12" on="0"/>
        <pt x="103" y="18" on="0"/>
        <pt x="50" y="69" on="0"/>
        <pt x="23" y="136" on="0"/>
        <pt x="23" y="174" on="1"/>
        <pt x="23" y="206" on="0"/>
        <pt x="40" y="259" on="0"/>
        <pt x="69" y="302" on="0"/>
        <pt x="107" y="338" on="0"/>
        <pt x="128" y="353" on="1"/>
        <pt x="108" y="391" on="0"/>
        <pt x="86" y="462" on="0"/>
        <pt x="86" y="493" on="1"/>
        <pt x="86" y="528" on="0"/>
        <pt x="108" y="590" on="0"/>
        <pt x="150" y="637" on="0"/>
        <pt x="210" y="664" on="0"/>
        <pt x="247" y="664" on="1"/>
        <pt x="321" y="664" on="0"/>
        <pt x="404" y="584" on="0"/>
        <pt x="404" y="516" on="1"/>
        <pt x="404" y="485" on="0"/>
        <pt x="382" y="434" on="0"/>
        <pt x="347" y="390" on="0"/>
        <pt x="303" y="352" on="0"/>
        <pt x="280" y="334" on="1"/>
        <pt x="304" y="303" on="0"/>
        <pt x="365" y="244" on="0"/>
        <pt x="397" y="218" on="1"/>
        <pt x="415" y="250" on="0"/>
        <pt x="443" y="324" on="0"/>
        <pt x="452" y="368" on="1"/>
      </contour>
    </TTGlyph>
    <TTGlyph name="aogonek" xMin="61" yMin="-210" xMax="555" yMax="508">
      <contour>
        <pt x="61" y="138" on="1"/>
        <pt x="61" y="180" on="0"/>
        <pt x="97" y="243" on="0"/>
        <pt x="176" y="287" on="0"/>
        <pt x="300" y="314" on="0"/>
        <pt x="388" y="319" on="1"/>
        <pt x="384" y="353" on="0"/>
        <pt x="333" y="391" on="0"/>
        <pt x="282" y="391" on="1"/>
        <pt x="246" y="391" on="0"/>
        <pt x="173" y="366" on="0"/>
        <pt x="131" y="345" on="1"/>
        <pt x="79" y="441" on="1"/>
        <pt x="130" y="470" on="0"/>
        <pt x="247" y="508" on="0"/>
        <pt x="311" y="508" on="1"/>
        <pt x="415" y="508" on="0"/>
        <pt x="535" y="398" on="0"/>
        <pt x="535" y="284" on="1"/>
        <pt x="535" y="0" on="1"/>
        <pt x="486" y="-14" on="0"/>
        <pt x="447" y="-62" on="0"/>
        <pt x="447" y="-85" on="1"/>
        <pt x="447" y="-105" on="0"/>
        <pt x="473" y="-123" on="0"/>
        <pt x="489" y="-123" on="1"/>
        <pt x="499" y="-123" on="0"/>
        <pt x="517" y="-116" on="0"/>
        <pt x="524" y="-111" on="1"/>
        <pt x="555" y="-177" on="1"/>
        <pt x="535" y="-192" on="0"/>
        <pt x="477" y="-210" on="0"/>
        <pt x="454" y="-210" on="1"/>
        <pt x="409" y="-210" on="0"/>
        <pt x="348" y="-164" on="0"/>
        <pt x="348" y="-119" on="1"/>
        <pt x="348" y="-97" on="0"/>
        <pt x="362" y="-60" on="0"/>
        <pt x="383" y="-30" on="0"/>
        <pt x="407" y="-8" on="0"/>
        <pt x="416" y="-2" on="1"/>
        <pt x="404" y="56" on="1"/>
        <pt x="400" y="56" on="1"/>
        <pt x="362" y="27" on="0"/>
        <pt x="272" y="-12" on="0"/>
        <pt x="224" y="-12" on="1"/>
        <pt x="186" y="-12" on="0"/>
        <pt x="126" y="11" on="0"/>
        <pt x="84" y="52" on="0"/>
        <pt x="61" y="106" on="0"/>
      </contour>
      <contour>
        <pt x="202" y="149" on="1"/>
        <pt x="202" y="125" on="0"/>
        <pt x="239" y="102" on="0"/>
        <pt x="271" y="102" on="1"/>
        <pt x="304" y="102" on="0"/>
        <pt x="362" y="129" on="0"/>
        <pt x="388" y="149" on="1"/>
        <pt x="388" y="231" on="1"/>
        <pt x="333" y="228" on="0"/>
        <pt x="261" y="214" on="0"/>
        <pt x="219" y="193" on="0"/>
        <pt x="202" y="165" on="0"/>
      </contour>
    </TTGlyph>
    <TTGlyph name="aogonek.a" xMin="47" yMin="-210" xMax="548" yMax="508">
      <contour>
        <pt x="198" y="250" on="1"/>
        <pt x="198" y="176" on="0"/>
        <pt x="248" y="108" on="0"/>
        <pt x="294" y="108" on="1"/>
        <pt x="319" y="108" on="0"/>
        <pt x="361" y="129" on="0"/>
        <pt x="381" y="154" on="1"/>
        <pt x="381" y="355" on="1"/>
        <pt x="361" y="373" on="0"/>
        <pt x="320" y="388" on="0"/>
        <pt x="298" y="388" on="1"/>
        <pt x="257" y="388" on="0"/>
        <pt x="198" y="320" on="0"/>
      </contour>
      <contour>
        <pt x="47" y="248" on="1"/>
        <pt x="47" y="309" on="0"/>
        <pt x="83" y="405" on="0"/>
        <pt x="142" y="472" on="0"/>
        <pt x="220" y="508" on="0"/>
        <pt x="262" y="508" on="1"/>
        <pt x="300" y="508" on="0"/>
        <pt x="367" y="478" on="0"/>
        <pt x="397" y="445" on="1"/>
        <pt x="401" y="445" on="1"/>
        <pt x="413" y="496" on="1"/>
        <pt x="528" y="496" on="1"/>
        <pt x="528" y="0" on="1"/>
        <pt x="478" y="-15" on="0"/>
        <pt x="440" y="-62" on="0"/>
        <pt x="440" y="-85" on="1"/>
        <pt x="440" y="-105" on="0"/>
        <pt x="465" y="-123" on="0"/>
        <pt x="482" y="-123" on="1"/>
        <pt x="492" y="-123" on="0"/>
        <pt x="511" y="-116" on="0"/>
        <pt x="518" y="-111" on="1"/>
        <pt x="548" y="-177" on="1"/>
        <pt x="529" y="-192" on="0"/>
        <pt x="471" y="-210" on="0"/>
        <pt x="447" y="-210" on="1"/>
        <pt x="402" y="-210" on="0"/>
        <pt x="341" y="-164" on="0"/>
        <pt x="341" y="-119" on="1"/>
        <pt x="341" y="-97" on="0"/>
        <pt x="355" y="-60" on="0"/>
        <pt x="376" y="-30" on="0"/>
        <pt x="400" y="-9" on="0"/>
        <pt x="410" y="-2" on="1"/>
        <pt x="397" y="51" on="1"/>
        <pt x="394" y="51" on="1"/>
        <pt x="367" y="24" on="0"/>
        <pt x="292" y="-12" on="0"/>
        <pt x="256" y="-12" on="1"/>
        <pt x="209" y="-12" on="0"/>
        <pt x="132" y="24" on="0"/>
        <pt x="77" y="91" on="0"/>
        <pt x="47" y="187" on="0"/>
      </contour>
    </TTGlyph>
    <TTGlyph name="approxequal" xMin="52" yMin="119" xMax="548" yMax="542">
      <component glyphName="asciitilde" x="0" y="116" flags="0x204"/>
      <component glyphName="asciitilde" x="0" y="-115" flags="0x4"/>
    </TTGlyph>
    <TTGlyph name="aring" xMin="61" yMin="-12" xMax="535" yMax="752">
      <component glyphName="a" x="0" y="0" flags="0x204"/>
      <component glyphName="uni030A" x="8" y="0" flags="0x4"/>
    </TTGlyph>
    <TTGlyph name="aring.a" xMin="47" yMin="-12" xMax="528" yMax="752">
      <component glyphName="uni0251" x="0" y="0" flags="0x204"/>
      <component glyphName="uni030A" x="14" y="0" flags="0x4"/>
    </TTGlyph>
    <TTGlyph name="arrowdown" xMin="31" yMin="-26" xMax="569" yMax="529">
      <contour>
        <pt x="298" y="-26" on="1"/>
        <pt x="31" y="252" on="1"/>
        <pt x="110" y="322" on="1"/>
        <pt x="242" y="172" on="1"/>
        <pt x="242" y="529" on="1"/>
        <pt x="358" y="529" on="1"/>
        <pt x="358" y="172" on="1"/>
        <pt x="490" y="322" on="1"/>
        <pt x="569" y="252" on="1"/>
        <pt x="302" y="-26" on="1"/>
      </contour>
    </TTGlyph>
    <TTGlyph name="arrowup" xMin="31" yMin="-26" xMax="569" yMax="529">
      <contour>
        <pt x="302" y="529" on="1"/>
        <pt x="569" y="251" on="1"/>
        <pt x="490" y="182" on="1"/>
        <pt x="358" y="332" on="1"/>
        <pt x="358" y="-26" on="1"/>
        <pt x="242" y="-26" on="1"/>
        <pt x="242" y="332" on="1"/>
        <pt x="110" y="182" on="1"/>
        <pt x="31" y="251" on="1"/>
        <pt x="298" y="529" on="1"/>
      </contour>
    </TTGlyph>
    <TTGlyph name="asciicircum" xMin="86" yMin="274" xMax="514" yMax="670">
      <contour>
        <pt x="241" y="670" on="1"/>
        <pt x="359" y="670" on="1"/>
        <pt x="514" y="274" on="1"/>
        <pt x="393" y="274" on="1"/>
        <pt x="347" y="402" on="1"/>
        <pt x="302" y="537" on="1"/>
        <pt x="298" y="537" on="1"/>
        <pt x="253" y="402" on="1"/>
        <pt x="207" y="274" on="1"/>
        <pt x="86" y="274" on="1"/>
      </contour>
    </TTGlyph>
    <TTGlyph name="asciitilde" xMin="52" yMin="234" xMax="548" yMax="426">
      <contour>
        <pt x="52" y="275" on="1"/>
        <pt x="84" y="353" on="0"/>
        <pt x="168" y="420" on="0"/>
        <pt x="215" y="420" on="1"/>
        <pt x="246" y="420" on="0"/>
        <pt x="292" y="396" on="0"/>
        <pt x="331" y="368" on="0"/>
        <pt x="366" y="344" on="0"/>
        <pt x="387" y="344" on="1"/>
        <pt x="408" y="344" on="0"/>
        <pt x="446" y="384" on="0"/>
        <pt x="460" y="426" on="1"/>
        <pt x="548" y="385" on="1"/>
        <pt x="516" y="307" on="0"/>
        <pt x="432" y="240" on="0"/>
        <pt x="385" y="240" on="1"/>
        <pt x="354" y="240" on="0"/>
        <pt x="308" y="264" on="0"/>
        <pt x="269" y="292" on="0"/>
        <pt x="234" y="316" on="0"/>
        <pt x="213" y="316" on="1"/>
        <pt x="193" y="316" on="0"/>
        <pt x="154" y="276" on="0"/>
        <pt x="140" y="234" on="1"/>
      </contour>
    </TTGlyph>
    <TTGlyph name="asterisk" xMin="64" yMin="91" xMax="536" yMax="566">
      <contour>
        <pt x="120" y="135" on="1"/>
        <pt x="217" y="292" on="1"/>
        <pt x="64" y="360" on="1"/>
        <pt x="87" y="431" on="1"/>
        <pt x="249" y="388" on="1"/>
        <pt x="261" y="566" on="1"/>
        <pt x="339" y="566" on="1"/>
        <pt x="351" y="388" on="1"/>
        <pt x="513" y="431" on="1"/>
        <pt x="536" y="360" on="1"/>
        <pt x="383" y="292" on="1"/>
        <pt x="480" y="135" on="1"/>
        <pt x="416" y="91" on="1"/>
        <pt x="300" y="233" on="1"/>
        <pt x="184" y="91" on="1"/>
      </contour>
    </TTGlyph>
    <TTGlyph name="asterisk.a" xMin="84" yMin="279" xMax="516" yMax="712">
      <contour>
        <pt x="135" y="323" on="1"/>
        <pt x="217" y="463" on="1"/>
        <pt x="84" y="519" on="1"/>
        <pt x="107" y="591" on="1"/>
        <pt x="249" y="559" on="1"/>
        <pt x="261" y="712" on="1"/>
        <pt x="339" y="712" on="1"/>
        <pt x="351" y="559" on="1"/>
        <pt x="493" y="591" on="1"/>
        <pt x="516" y="519" on="1"/>
        <pt x="383" y="463" on="1"/>
        <pt x="465" y="323" on="1"/>
        <pt x="401" y="279" on="1"/>
        <pt x="300" y="405" on="1"/>
        <pt x="199" y="279" on="1"/>
      </contour>
    </TTGlyph>
    <TTGlyph name="at" xMin="31" yMin="-147" xMax="550" yMax="644">
      <contour>
        <pt x="550" y="100" on="1"/>
        <pt x="472" y="100" on="1"/>
        <pt x="461" y="151" on="1"/>
        <pt x="457" y="151" on="1"/>
        <pt x="438" y="123" on="0"/>
        <pt x="378" y="88" on="0"/>
        <pt x="337" y="88" on="1"/>
        <pt x="310" y="88" on="0"/>
        <pt x="263" y="110" on="0"/>
        <pt x="229" y="148" on="0"/>
        <pt x="210" y="199" on="0"/>
        <pt x="210" y="228" on="1"/>
        <pt x="210" y="268" on="0"/>
        <pt x="245" y="327" on="0"/>
        <pt x="310" y="368" on="0"/>
        <pt x="402" y="393" on="0"/>
        <pt x="459" y="400" on="1"/>
        <pt x="459" y="416" on="1"/>
        <pt x="459" y="444" on="0"/>
        <pt x="443" y="494" on="0"/>
        <pt x="411" y="533" on="0"/>
        <pt x="361" y="556" on="0"/>
        <pt x="328" y="556" on="1"/>
        <pt x="293" y="556" on="0"/>
        <pt x="223" y="522" on="0"/>
        <pt x="167" y="448" on="0"/>
        <pt x="132" y="331" on="0"/>
        <pt x="132" y="249" on="1"/>
        <pt x="132" y="171" on="0"/>
        <pt x="168" y="56" on="0"/>
        <pt x="227" y="-21" on="0"/>
        <pt x="303" y="-58" on="0"/>
        <pt x="344" y="-58" on="1"/>
        <pt x="389" y="-58" on="0"/>
        <pt x="448" y="-37" on="0"/>
        <pt x="477" y="-20" on="1"/>
        <pt x="519" y="-93" on="1"/>
        <pt x="477" y="-118" on="0"/>
        <pt x="393" y="-147" on="0"/>
        <pt x="339" y="-147" on="1"/>
        <pt x="279" y="-147" on="0"/>
        <pt x="168" y="-99" on="0"/>
        <pt x="82" y="0" on="0"/>
        <pt x="31" y="151" on="0"/>
        <pt x="31" y="253" on="1"/>
        <pt x="31" y="355" on="0"/>
        <pt x="79" y="502" on="0"/>
        <pt x="161" y="598" on="0"/>
        <pt x="270" y="644" on="0"/>
        <pt x="331" y="644" on="1"/>
        <pt x="388" y="644" on="0"/>
        <pt x="471" y="606" on="0"/>
        <pt x="524" y="540" on="0"/>
        <pt x="550" y="451" on="0"/>
        <pt x="550" y="399" on="1"/>
      </contour>
      <contour>
        <pt x="317" y="232" on="1"/>
        <pt x="317" y="209" on="0"/>
        <pt x="345" y="184" on="0"/>
        <pt x="370" y="184" on="1"/>
        <pt x="392" y="184" on="0"/>
        <pt x="427" y="203" on="0"/>
        <pt x="444" y="220" on="1"/>
        <pt x="444" y="312" on="1"/>
        <pt x="374" y="301" on="0"/>
        <pt x="317" y="265" on="0"/>
      </contour>
    </TTGlyph>
    <TTGlyph name="at.case" xMin="31" yMin="-25" xMax="550" yMax="664">
      <contour>
        <pt x="550" y="164" on="1"/>
        <pt x="472" y="164" on="1"/>
        <pt x="461" y="214" on="1"/>
        <pt x="457" y="214" on="1"/>
        <pt x="438" y="187" on="0"/>
        <pt x="378" y="152" on="0"/>
        <pt x="337" y="152" on="1"/>
        <pt x="310" y="152" on="0"/>
        <pt x="263" y="174" on="0"/>
        <pt x="229" y="212" on="0"/>
        <pt x="210" y="263" on="0"/>
        <pt x="210" y="292" on="1"/>
        <pt x="210" y="332" on="0"/>
        <pt x="245" y="391" on="0"/>
        <pt x="310" y="431" on="0"/>
        <pt x="402" y="456" on="0"/>
        <pt x="459" y="464" on="1"/>
        <pt x="459" y="471" on="1"/>
        <pt x="459" y="492" on="0"/>
        <pt x="443" y="529" on="0"/>
        <pt x="412" y="558" on="0"/>
        <pt x="365" y="575" on="0"/>
        <pt x="334" y="575" on="1"/>
        <pt x="299" y="575" on="0"/>
        <pt x="227" y="547" on="0"/>
        <pt x="169" y="485" on="0"/>
        <pt x="132" y="385" on="0"/>
        <pt x="132" y="313" on="1"/>
        <pt x="132" y="250" on="0"/>
        <pt x="168" y="156" on="0"/>
        <pt x="227" y="94" on="0"/>
        <pt x="303" y="64" on="0"/>
        <pt x="344" y="64" on="1"/>
        <pt x="389" y="64" on="0"/>
        <pt x="448" y="84" on="0"/>
        <pt x="477" y="102" on="1"/>
        <pt x="519" y="29" on="1"/>
        <pt x="477" y="4" on="0"/>
        <pt x="393" y="-25" on="0"/>
        <pt x="339" y="-25" on="1"/>
        <pt x="279" y="-25" on="0"/>
        <pt x="168" y="17" on="0"/>
        <pt x="82" y="101" on="0"/>
        <pt x="31" y="229" on="0"/>
        <pt x="31" y="316" on="1"/>
        <pt x="31" y="408" on="0"/>
        <pt x="81" y="540" on="0"/>
        <pt x="165" y="624" on="0"/>
        <pt x="276" y="664" on="0"/>
        <pt x="338" y="664" on="1"/>
        <pt x="393" y="664" on="0"/>
        <pt x="473" y="630" on="0"/>
        <pt x="525" y="570" on="0"/>
        <pt x="550" y="491" on="0"/>
        <pt x="550" y="446" on="1"/>
      </contour>
      <contour>
        <pt x="317" y="295" on="1"/>
        <pt x="317" y="273" on="0"/>
        <pt x="345" y="247" on="0"/>
        <pt x="370" y="247" on="1"/>
        <pt x="392" y="247" on="0"/>
        <pt x="427" y="267" on="0"/>
        <pt x="444" y="284" on="1"/>
        <pt x="444" y="375" on="1"/>
        <pt x="374" y="364" on="0"/>
        <pt x="317" y="329" on="0"/>
      </contour>
    </TTGlyph>
    <TTGlyph name="atilde" xMin="61" yMin="-12" xMax="535" yMax="718">
      <component glyphName="a" x="0" y="0" flags="0x204"/>
      <component glyphName="uni0303" x="8" y="0" flags="0x4"/>
    </TTGlyph>
    <TTGlyph name="atilde.a" xMin="47" yMin="-12" xMax="528" yMax="718">
      <component glyphName="uni0251" x="0" y="0" flags="0x204"/>
      <component glyphName="uni0303" x="14" y="0" flags="0x4"/>
    </TTGlyph>
    <TTGlyph name="b" xMin="72" yMin="-12" xMax="553" yMax="701">
      <contour>
        <pt x="72" y="701" on="1"/>
        <pt x="219" y="701" on="1"/>
        <pt x="219" y="529" on="1"/>
        <pt x="215" y="451" on="1"/>
        <pt x="244" y="478" on="0"/>
        <pt x="317" y="508" on="0"/>
        <pt x="353" y="508" on="1"/>
        <pt x="399" y="508" on="0"/>
        <pt x="474" y="472" on="0"/>
        <pt x="525" y="407" on="0"/>
        <pt x="553" y="314" on="0"/>
        <pt x="553" y="257" on="1"/>
        <pt x="553" y="193" on="0"/>
        <pt x="517" y="93" on="0"/>
        <pt x="457" y="24" on="0"/>
        <pt x="380" y="-12" on="0"/>
        <pt x="338" y="-12" on="1"/>
        <pt x="303" y="-12" on="0"/>
        <pt x="234" y="22" on="0"/>
        <pt x="203" y="54" on="1"/>
        <pt x="199" y="54" on="1"/>
        <pt x="187" y="0" on="1"/>
        <pt x="72" y="0" on="1"/>
      </contour>
      <contour>
        <pt x="219" y="141" on="1"/>
        <pt x="240" y="123" on="0"/>
        <pt x="285" y="108" on="0"/>
        <pt x="305" y="108" on="1"/>
        <pt x="346" y="108" on="0"/>
        <pt x="402" y="177" on="0"/>
        <pt x="402" y="254" on="1"/>
        <pt x="402" y="388" on="0"/>
        <pt x="311" y="388" on="1"/>
        <pt x="264" y="388" on="0"/>
        <pt x="219" y="342" on="1"/>
      </contour>
    </TTGlyph>
    <TTGlyph name="b.sups" xMin="154" yMin="252" xMax="478" yMax="722">
      <contour>
        <pt x="154" y="722" on="1"/>
        <pt x="258" y="722" on="1"/>
        <pt x="258" y="610" on="1"/>
        <pt x="256" y="561" on="1"/>
        <pt x="274" y="578" on="0"/>
        <pt x="321" y="597" on="0"/>
        <pt x="344" y="597" on="1"/>
        <pt x="407" y="597" on="0"/>
        <pt x="478" y="505" on="0"/>
        <pt x="478" y="430" on="1"/>
        <pt x="478" y="388" on="0"/>
        <pt x="454" y="321" on="0"/>
        <pt x="414" y="276" on="0"/>
        <pt x="363" y="252" on="0"/>
        <pt x="335" y="252" on="1"/>
        <pt x="287" y="252" on="0"/>
        <pt x="246" y="295" on="1"/>
        <pt x="244" y="295" on="1"/>
        <pt x="235" y="260" on="1"/>
        <pt x="154" y="260" on="1"/>
      </contour>
      <contour>
        <pt x="258" y="355" on="1"/>
        <pt x="271" y="344" on="0"/>
        <pt x="297" y="336" on="0"/>
        <pt x="310" y="336" on="1"/>
        <pt x="336" y="336" on="0"/>
        <pt x="371" y="378" on="0"/>
        <pt x="371" y="428" on="1"/>
        <pt x="371" y="513" on="0"/>
        <pt x="315" y="513" on="1"/>
        <pt x="286" y="513" on="0"/>
        <pt x="258" y="485" on="1"/>
      </contour>
    </TTGlyph>
    <TTGlyph name="backslash" xMin="74" yMin="-160" xMax="526" yMax="710">
      <contour>
        <pt x="74" y="710" on="1"/>
        <pt x="197" y="710" on="1"/>
        <pt x="526" y="-160" on="1"/>
        <pt x="403" y="-160" on="1"/>
      </contour>
    </TTGlyph>
    <TTGlyph name="bar" xMin="235" yMin="-250" xMax="365" yMax="750">
      <contour>
        <pt x="235" y="750" on="1"/>
        <pt x="365" y="750" on="1"/>
        <pt x="365" y="-250" on="1"/>
        <pt x="235" y="-250" on="1"/>
      </contour>
    </TTGlyph>
    <TTGlyph name="braceleft" xMin="106" yMin="-152" xMax="496" yMax="708">
      <contour>
        <pt x="233" y="-10" on="1"/>
        <pt x="233" y="17" on="0"/>
        <pt x="236" y="59" on="0"/>
        <pt x="240" y="98" on="0"/>
        <pt x="243" y="137" on="0"/>
        <pt x="243" y="161" on="1"/>
        <pt x="243" y="174" on="0"/>
        <pt x="231" y="200" on="0"/>
        <pt x="199" y="221" on="0"/>
        <pt x="146" y="234" on="0"/>
        <pt x="106" y="235" on="1"/>
        <pt x="106" y="321" on="1"/>
        <pt x="146" y="322" on="0"/>
        <pt x="199" y="335" on="0"/>
        <pt x="231" y="356" on="0"/>
        <pt x="243" y="382" on="0"/>
        <pt x="243" y="395" on="1"/>
        <pt x="243" y="418" on="0"/>
        <pt x="240" y="458" on="0"/>
        <pt x="236" y="497" on="0"/>
        <pt x="233" y="540" on="0"/>
        <pt x="233" y="566" on="1"/>
        <pt x="233" y="647" on="0"/>
        <pt x="323" y="708" on="0"/>
        <pt x="419" y="708" on="1"/>
        <pt x="496" y="708" on="1"/>
        <pt x="496" y="630" on="1"/>
        <pt x="455" y="630" on="1"/>
        <pt x="424" y="630" on="0"/>
        <pt x="384" y="624" on="0"/>
        <pt x="362" y="608" on="0"/>
        <pt x="353" y="581" on="0"/>
        <pt x="353" y="560" on="1"/>
        <pt x="353" y="520" on="0"/>
        <pt x="358" y="442" on="0"/>
        <pt x="358" y="397" on="1"/>
        <pt x="358" y="340" on="0"/>
        <pt x="312" y="289" on="0"/>
        <pt x="258" y="280" on="1"/>
        <pt x="258" y="276" on="1"/>
        <pt x="312" y="267" on="0"/>
        <pt x="358" y="216" on="0"/>
        <pt x="358" y="159" on="1"/>
        <pt x="358" y="113" on="0"/>
        <pt x="353" y="37" on="0"/>
        <pt x="353" y="-4" on="1"/>
        <pt x="353" y="-25" on="0"/>
        <pt x="362" y="-52" on="0"/>
        <pt x="384" y="-68" on="0"/>
        <pt x="424" y="-74" on="0"/>
        <pt x="455" y="-74" on="1"/>
        <pt x="496" y="-74" on="1"/>
        <pt x="496" y="-152" on="1"/>
        <pt x="419" y="-152" on="1"/>
        <pt x="323" y="-152" on="0"/>
        <pt x="233" y="-91" on="0"/>
      </contour>
    </TTGlyph>
    <TTGlyph name="braceright" xMin="105" yMin="-152" xMax="495" yMax="708">
      <contour>
        <pt x="146" y="-74" on="1"/>
        <pt x="177" y="-74" on="0"/>
        <pt x="216" y="-68" on="0"/>
        <pt x="238" y="-52" on="0"/>
        <pt x="247" y="-25" on="0"/>
        <pt x="247" y="-4" on="1"/>
        <pt x="247" y="37" on="0"/>
        <pt x="243" y="113" on="0"/>
        <pt x="243" y="159" on="1"/>
        <pt x="243" y="216" on="0"/>
        <pt x="289" y="267" on="0"/>
        <pt x="343" y="276" on="1"/>
        <pt x="343" y="280" on="1"/>
        <pt x="289" y="289" on="0"/>
        <pt x="243" y="340" on="0"/>
        <pt x="243" y="397" on="1"/>
        <pt x="243" y="442" on="0"/>
        <pt x="247" y="520" on="0"/>
        <pt x="247" y="560" on="1"/>
        <pt x="247" y="581" on="0"/>
        <pt x="238" y="608" on="0"/>
        <pt x="216" y="624" on="0"/>
        <pt x="177" y="630" on="0"/>
        <pt x="146" y="630" on="1"/>
        <pt x="105" y="630" on="1"/>
        <pt x="105" y="708" on="1"/>
        <pt x="182" y="708" on="1"/>
        <pt x="278" y="708" on="0"/>
        <pt x="368" y="647" on="0"/>
        <pt x="368" y="566" on="1"/>
        <pt x="368" y="540" on="0"/>
        <pt x="365" y="497" on="0"/>
        <pt x="360" y="458" on="0"/>
        <pt x="357" y="418" on="0"/>
        <pt x="357" y="395" on="1"/>
        <pt x="357" y="382" on="0"/>
        <pt x="369" y="356" on="0"/>
        <pt x="401" y="335" on="0"/>
        <pt x="454" y="322" on="0"/>
        <pt x="495" y="321" on="1"/>
        <pt x="495" y="235" on="1"/>
        <pt x="454" y="234" on="0"/>
        <pt x="401" y="221" on="0"/>
        <pt x="369" y="200" on="0"/>
        <pt x="357" y="174" on="0"/>
        <pt x="357" y="161" on="1"/>
        <pt x="357" y="137" on="0"/>
        <pt x="360" y="98" on="0"/>
        <pt x="365" y="59" on="0"/>
        <pt x="368" y="17" on="0"/>
        <pt x="368" y="-10" on="1"/>
        <pt x="368" y="-91" on="0"/>
        <pt x="278" y="-152" on="0"/>
        <pt x="182" y="-152" on="1"/>
        <pt x="105" y="-152" on="1"/>
        <pt x="105" y="-74" on="1"/>
      </contour>
    </TTGlyph>
    <TTGlyph name="bracketleft" xMin="201" yMin="-152" xMax="496" yMax="708">
      <contour>
        <pt x="201" y="708" on="1"/>
        <pt x="496" y="708" on="1"/>
        <pt x="496" y="630" on="1"/>
        <pt x="313" y="630" on="1"/>
        <pt x="313" y="-74" on="1"/>
        <pt x="496" y="-74" on="1"/>
        <pt x="496" y="-152" on="1"/>
        <pt x="201" y="-152" on="1"/>
      </contour>
    </TTGlyph>
    <TTGlyph name="bracketright" xMin="105" yMin="-152" xMax="400" yMax="708">
      <contour>
        <pt x="287" y="-74" on="1"/>
        <pt x="287" y="630" on="1"/>
        <pt x="105" y="630" on="1"/>
        <pt x="105" y="708" on="1"/>
        <pt x="400" y="708" on="1"/>
        <pt x="400" y="-152" on="1"/>
        <pt x="105" y="-152" on="1"/>
        <pt x="105" y="-74" on="1"/>
      </contour>
    </TTGlyph>
    <TTGlyph name="breve" xMin="153" yMin="574" xMax="447" yMax="730">
      <component glyphName="uni0306" x="0" y="0" flags="0x204"/>
    </TTGlyph>
    <TTGlyph name="brokenbar" xMin="235" yMin="-250" xMax="365" yMax="750">
      <contour>
        <pt x="235" y="750" on="1"/>
        <pt x="365" y="750" on="1"/>
        <pt x="365" y="312" on="1"/>
        <pt x="235" y="312" on="1"/>
      </contour>
      <contour>
        <pt x="365" y="204" on="1"/>
        <pt x="365" y="-250" on="1"/>
        <pt x="235" y="-250" on="1"/>
        <pt x="235" y="204" on="1"/>
      </contour>
    </TTGlyph>
    <TTGlyph name="bullet" xMin="136" yMin="101" xMax="464" yMax="423">
      <contour>
        <pt x="300" y="101" on="1"/>
        <pt x="265" y="101" on="0"/>
        <pt x="205" y="125" on="0"/>
        <pt x="161" y="169" on="0"/>
        <pt x="136" y="227" on="0"/>
        <pt x="136" y="262" on="1"/>
        <pt x="136" y="296" on="0"/>
        <pt x="161" y="355" on="0"/>
        <pt x="205" y="399" on="0"/>
        <pt x="265" y="423" on="0"/>
        <pt x="300" y="423" on="1"/>
        <pt x="335" y="423" on="0"/>
        <pt x="395" y="399" on="0"/>
        <pt x="439" y="355" on="0"/>
        <pt x="464" y="296" on="0"/>
        <pt x="464" y="262" on="1"/>
        <pt x="464" y="227" on="0"/>
        <pt x="439" y="169" on="0"/>
        <pt x="395" y="125" on="0"/>
        <pt x="335" y="101" on="0"/>
      </contour>
    </TTGlyph>
    <TTGlyph name="c" xMin="67" yMin="-12" xMax="548" yMax="508">
      <contour>
        <pt x="67" y="248" on="1"/>
        <pt x="67" y="310" on="0"/>
        <pt x="114" y="407" on="0"/>
        <pt x="193" y="473" on="0"/>
        <pt x="297" y="508" on="0"/>
        <pt x="354" y="508" on="1"/>
        <pt x="413" y="508" on="0"/>
        <pt x="508" y="470" on="0"/>
        <pt x="540" y="441" on="1"/>
        <pt x="472" y="350" on="1"/>
        <pt x="417" y="389" on="0"/>
        <pt x="362" y="389" on="1"/>
        <pt x="298" y="389" on="0"/>
        <pt x="218" y="313" on="0"/>
        <pt x="218" y="248" on="1"/>
        <pt x="218" y="183" on="0"/>
        <pt x="295" y="107" on="0"/>
        <pt x="357" y="107" on="1"/>
        <pt x="396" y="107" on="0"/>
        <pt x="462" y="135" on="0"/>
        <pt x="488" y="154" on="1"/>
        <pt x="548" y="61" on="1"/>
        <pt x="503" y="23" on="0"/>
        <pt x="394" y="-12" on="0"/>
        <pt x="343" y="-12" on="1"/>
        <pt x="284" y="-12" on="0"/>
        <pt x="184" y="23" on="0"/>
        <pt x="109" y="89" on="0"/>
        <pt x="67" y="186" on="0"/>
      </contour>
    </TTGlyph>
    <TTGlyph name="c.sups" xMin="170" yMin="252" xMax="466" yMax="597">
      <contour>
        <pt x="170" y="424" on="1"/>
        <pt x="170" y="465" on="0"/>
        <pt x="201" y="529" on="0"/>
        <pt x="252" y="574" on="0"/>
        <pt x="319" y="597" on="0"/>
        <pt x="356" y="597" on="1"/>
        <pt x="390" y="597" on="0"/>
        <pt x="443" y="576" on="0"/>
        <pt x="461" y="559" on="1"/>
        <pt x="413" y="495" on="1"/>
        <pt x="388" y="514" on="0"/>
        <pt x="362" y="514" on="1"/>
        <pt x="323" y="514" on="0"/>
        <pt x="276" y="466" on="0"/>
        <pt x="276" y="424" on="1"/>
        <pt x="276" y="383" on="0"/>
        <pt x="323" y="334" on="0"/>
        <pt x="359" y="334" on="1"/>
        <pt x="379" y="334" on="0"/>
        <pt x="411" y="349" on="0"/>
        <pt x="425" y="358" on="1"/>
        <pt x="466" y="293" on="1"/>
        <pt x="440" y="272" on="0"/>
        <pt x="376" y="252" on="0"/>
        <pt x="347" y="252" on="1"/>
        <pt x="309" y="252" on="0"/>
        <pt x="245" y="275" on="0"/>
        <pt x="197" y="319" on="0"/>
        <pt x="170" y="383" on="0"/>
      </contour>
    </TTGlyph>
    <TTGlyph name="cacute" xMin="67" yMin="-12" xMax="548" yMax="741">
      <component glyphName="c" x="0" y="0" flags="0x204"/>
      <component glyphName="uni0301" x="41" y="0" flags="0x4"/>
    </TTGlyph>
    <TTGlyph name="caron" xMin="138" yMin="574" xMax="462" yMax="741">
      <component glyphName="uni030C" x="0" y="0" flags="0x204"/>
    </TTGlyph>
    <TTGlyph name="ccaron" xMin="67" yMin="-12" xMax="548" yMax="741">
      <component glyphName="c" x="0" y="0" flags="0x204"/>
      <component glyphName="uni030C" x="41" y="0" flags="0x4"/>
    </TTGlyph>
    <TTGlyph name="ccedilla" xMin="67" yMin="-221" xMax="548" yMax="508">
      <component glyphName="c" x="0" y="0" flags="0x204"/>
      <component glyphName="uni0327" x="41" y="0" flags="0x4"/>
    </TTGlyph>
    <TTGlyph name="ccircumflex" xMin="67" yMin="-12" xMax="548" yMax="741">
      <component glyphName="c" x="0" y="0" flags="0x204"/>
      <component glyphName="uni0302" x="41" y="0" flags="0x4"/>
    </TTGlyph>
    <TTGlyph name="cdotaccent" xMin="67" yMin="-12" xMax="548" yMax="750">
      <component glyphName="c" x="0" y="0" flags="0x204"/>
      <component glyphName="uni0307" x="41" y="0" flags="0x4"/>
    </TTGlyph>
    <TTGlyph name="cedilla" xMin="199" yMin="-221" xMax="387" yMax="4">
      <component glyphName="uni0327" x="2" y="0" flags="0x204"/>
    </TTGlyph>
    <TTGlyph name="cent" xMin="96" yMin="-41" xMax="523" yMax="655">
      <contour>
        <pt x="311" y="432" on="1"/>
        <pt x="275" y="416" on="0"/>
        <pt x="239" y="352" on="0"/>
        <pt x="239" y="307" on="1"/>
        <pt x="239" y="262" on="0"/>
        <pt x="276" y="197" on="0"/>
        <pt x="311" y="182" on="1"/>
      </contour>
      <contour>
        <pt x="523" y="113" on="1"/>
        <pt x="494" y="88" on="0"/>
        <pt x="426" y="59" on="0"/>
        <pt x="392" y="54" on="1"/>
        <pt x="392" y="-41" on="1"/>
        <pt x="311" y="-41" on="1"/>
        <pt x="311" y="54" on="1"/>
        <pt x="262" y="60" on="0"/>
        <pt x="183" y="100" on="0"/>
        <pt x="127" y="165" on="0"/>
        <pt x="96" y="253" on="0"/>
        <pt x="96" y="307" on="1"/>
        <pt x="96" y="360" on="0"/>
        <pt x="128" y="446" on="0"/>
        <pt x="186" y="509" on="0"/>
        <pt x="264" y="550" on="0"/>
        <pt x="311" y="558" on="1"/>
        <pt x="311" y="655" on="1"/>
        <pt x="392" y="655" on="1"/>
        <pt x="392" y="562" on="1"/>
        <pt x="431" y="558" on="0"/>
        <pt x="494" y="529" on="0"/>
        <pt x="516" y="506" on="1"/>
        <pt x="449" y="416" on="1"/>
        <pt x="419" y="440" on="0"/>
        <pt x="392" y="443" on="1"/>
        <pt x="392" y="171" on="1"/>
        <pt x="413" y="175" on="0"/>
        <pt x="449" y="194" on="0"/>
        <pt x="464" y="206" on="1"/>
      </contour>
    </TTGlyph>
    <TTGlyph name="circumflex" xMin="138" yMin="574" xMax="462" yMax="741">
      <component glyphName="uni0302" x="0" y="0" flags="0x204"/>
    </TTGlyph>
    <TTGlyph name="colon" xMin="184" yMin="-12" xMax="416" yMax="546">
      <component glyphName="period" x="0" y="323" flags="0x204"/>
      <component glyphName="period" x="0" y="0" flags="0x4"/>
    </TTGlyph>
    <TTGlyph name="colonmonetary" xMin="79" yMin="-110" xMax="563" yMax="745">
      <contour>
        <pt x="306" y="118" on="1"/>
        <pt x="315" y="113" on="0"/>
        <pt x="334" y="106" on="0"/>
        <pt x="345" y="104" on="1"/>
        <pt x="395" y="530" on="1"/>
        <pt x="381" y="533" on="0"/>
        <pt x="367" y="533" on="1"/>
        <pt x="356" y="533" on="1"/>
      </contour>
      <contour>
        <pt x="304" y="517" on="1"/>
        <pt x="266" y="495" on="0"/>
        <pt x="226" y="394" on="0"/>
        <pt x="226" y="319" on="1"/>
        <pt x="226" y="217" on="0"/>
        <pt x="262" y="162" on="1"/>
      </contour>
      <contour>
        <pt x="563" y="80" on="1"/>
        <pt x="525" y="39" on="0"/>
        <pt x="435" y="-7" on="0"/>
        <pt x="381" y="-11" on="1"/>
        <pt x="369" y="-110" on="1"/>
        <pt x="319" y="-110" on="1"/>
        <pt x="331" y="-11" on="1"/>
        <pt x="310" y="-8" on="0"/>
        <pt x="292" y="-5" on="1"/>
        <pt x="279" y="-110" on="1"/>
        <pt x="229" y="-110" on="1"/>
        <pt x="243" y="11" on="1"/>
        <pt x="168" y="43" on="0"/>
        <pt x="79" y="196" on="0"/>
        <pt x="79" y="314" on="1"/>
        <pt x="79" y="384" on="0"/>
        <pt x="113" y="497" on="0"/>
        <pt x="176" y="581" on="0"/>
        <pt x="264" y="633" on="0"/>
        <pt x="319" y="642" on="1"/>
        <pt x="331" y="745" on="1"/>
        <pt x="381" y="745" on="1"/>
        <pt x="369" y="647" on="1"/>
        <pt x="377" y="647" on="1"/>
        <pt x="385" y="647" on="0"/>
        <pt x="401" y="646" on="0"/>
        <pt x="409" y="645" on="1"/>
        <pt x="421" y="745" on="1"/>
        <pt x="471" y="745" on="1"/>
        <pt x="458" y="632" on="1"/>
        <pt x="484" y="622" on="0"/>
        <pt x="534" y="591" on="0"/>
        <pt x="555" y="569" on="1"/>
        <pt x="474" y="490" on="1"/>
        <pt x="460" y="501" on="0"/>
        <pt x="443" y="512" on="1"/>
        <pt x="395" y="104" on="1"/>
        <pt x="445" y="113" on="0"/>
        <pt x="482" y="156" on="1"/>
      </contour>
    </TTGlyph>
    <TTGlyph name="comma" xMin="182" yMin="-217" xMax="429" yMax="215">
      <contour>
        <pt x="182" y="-131" on="1"/>
        <pt x="312" y="-86" on="0"/>
        <pt x="312" y="11" on="1"/>
        <pt x="308" y="10" on="0"/>
        <pt x="301" y="10" on="1"/>
        <pt x="280" y="10" on="0"/>
        <pt x="241" y="23" on="0"/>
        <pt x="211" y="49" on="0"/>
        <pt x="193" y="87" on="0"/>
        <pt x="193" y="112" on="1"/>
        <pt x="193" y="159" on="0"/>
        <pt x="258" y="215" on="0"/>
        <pt x="305" y="215" on="1"/>
        <pt x="367" y="215" on="0"/>
        <pt x="429" y="124" on="0"/>
        <pt x="429" y="43" on="1"/>
        <pt x="429" y="-53" on="0"/>
        <pt x="323" y="-185" on="0"/>
        <pt x="219" y="-217" on="1"/>
      </contour>
    </TTGlyph>
    <TTGlyph name="comma.dnom" xMin="227" yMin="-130" xMax="373" yMax="121">
      <contour>
        <pt x="227" y="-75" on="1"/>
        <pt x="265" y="-63" on="0"/>
        <pt x="304" y="-28" on="0"/>
        <pt x="304" y="1" on="1"/>
        <pt x="300" y="1" on="1"/>
        <pt x="275" y="1" on="0"/>
        <pt x="237" y="32" on="0"/>
        <pt x="237" y="61" on="1"/>
        <pt x="237" y="87" on="0"/>
        <pt x="275" y="121" on="0"/>
        <pt x="302" y="121" on="1"/>
        <pt x="336" y="121" on="0"/>
        <pt x="373" y="71" on="0"/>
        <pt x="373" y="24" on="1"/>
        <pt x="373" y="-33" on="0"/>
        <pt x="309" y="-113" on="0"/>
        <pt x="249" y="-130" on="1"/>
      </contour>
    </TTGlyph>
    <TTGlyph name="comma.numr" xMin="227" yMin="132" xMax="373" yMax="383">
      <component glyphName="comma.dnom" x="0" y="262" flags="0x204"/>
    </TTGlyph>
    <TTGlyph name="comma.subs" xMin="227" yMin="-299" xMax="373" yMax="-48">
      <component glyphName="comma.dnom" x="0" y="-169" flags="0x204"/>
    </TTGlyph>
    <TTGlyph name="comma.sups" xMin="227" yMin="310" xMax="373" yMax="561">
      <component glyphName="comma.dnom" x="0" y="440" flags="0x204"/>
    </TTGlyph>
    <TTGlyph name="copyright" xMin="19" yMin="-9" xMax="581" yMax="655">
      <contour>
        <pt x="19" y="325" on="1"/>
        <pt x="19" y="403" on="0"/>
        <pt x="64" y="525" on="0"/>
        <pt x="141" y="610" on="0"/>
        <pt x="243" y="655" on="0"/>
        <pt x="300" y="655" on="1"/>
        <pt x="357" y="655" on="0"/>
        <pt x="459" y="610" on="0"/>
        <pt x="536" y="525" on="0"/>
        <pt x="581" y="403" on="0"/>
        <pt x="581" y="325" on="1"/>
        <pt x="581" y="247" on="0"/>
        <pt x="536" y="124" on="0"/>
        <pt x="459" y="37" on="0"/>
        <pt x="357" y="-9" on="0"/>
        <pt x="300" y="-9" on="1"/>
        <pt x="243" y="-9" on="0"/>
        <pt x="141" y="37" on="0"/>
        <pt x="64" y="124" on="0"/>
        <pt x="19" y="247" on="0"/>
      </contour>
      <contour>
        <pt x="83" y="325" on="1"/>
        <pt x="83" y="263" on="0"/>
        <pt x="114" y="163" on="0"/>
        <pt x="171" y="91" on="0"/>
        <pt x="251" y="52" on="0"/>
        <pt x="300" y="52" on="1"/>
        <pt x="349" y="52" on="0"/>
        <pt x="429" y="91" on="0"/>
        <pt x="486" y="163" on="0"/>
        <pt x="517" y="263" on="0"/>
        <pt x="517" y="325" on="1"/>
        <pt x="517" y="386" on="0"/>
        <pt x="486" y="486" on="0"/>
        <pt x="429" y="557" on="0"/>
        <pt x="349" y="595" on="0"/>
        <pt x="300" y="595" on="1"/>
        <pt x="251" y="595" on="0"/>
        <pt x="171" y="557" on="0"/>
        <pt x="114" y="486" on="0"/>
        <pt x="83" y="386" on="0"/>
      </contour>
      <contour>
        <pt x="139" y="324" on="1"/>
        <pt x="139" y="368" on="0"/>
        <pt x="167" y="439" on="0"/>
        <pt x="215" y="489" on="0"/>
        <pt x="278" y="516" on="0"/>
        <pt x="312" y="516" on="1"/>
        <pt x="351" y="516" on="0"/>
        <pt x="404" y="487" on="0"/>
        <pt x="424" y="467" on="1"/>
        <pt x="369" y="406" on="1"/>
        <pt x="358" y="417" on="0"/>
        <pt x="335" y="430" on="0"/>
        <pt x="321" y="430" on="1"/>
        <pt x="284" y="430" on="0"/>
        <pt x="245" y="369" on="0"/>
        <pt x="245" y="324" on="1"/>
        <pt x="245" y="273" on="0"/>
        <pt x="283" y="213" on="0"/>
        <pt x="316" y="213" on="1"/>
        <pt x="335" y="213" on="0"/>
        <pt x="362" y="226" on="0"/>
        <pt x="376" y="237" on="1"/>
        <pt x="423" y="169" on="1"/>
        <pt x="400" y="150" on="0"/>
        <pt x="345" y="127" on="0"/>
        <pt x="312" y="127" on="1"/>
        <pt x="274" y="127" on="0"/>
        <pt x="211" y="155" on="0"/>
        <pt x="165" y="206" on="0"/>
        <pt x="139" y="279" on="0"/>
      </contour>
    </TTGlyph>
    <TTGlyph name="currency" xMin="36" yMin="63" xMax="564" yMax="595">
      <contour>
        <pt x="36" y="137" on="1"/>
        <pt x="117" y="219" on="1"/>
        <pt x="83" y="265" on="0"/>
        <pt x="83" y="330" on="1"/>
        <pt x="83" y="362" on="0"/>
        <pt x="100" y="417" on="0"/>
        <pt x="116" y="439" on="1"/>
        <pt x="36" y="521" on="1"/>
        <pt x="109" y="595" on="1"/>
        <pt x="198" y="505" on="1"/>
        <pt x="246" y="530" on="0"/>
        <pt x="300" y="530" on="1"/>
        <pt x="352" y="530" on="0"/>
        <pt x="402" y="505" on="1"/>
        <pt x="491" y="595" on="1"/>
        <pt x="564" y="521" on="1"/>
        <pt x="483" y="439" on="1"/>
        <pt x="517" y="394" on="0"/>
        <pt x="517" y="330" on="1"/>
        <pt x="517" y="297" on="0"/>
        <pt x="499" y="242" on="0"/>
        <pt x="482" y="219" on="1"/>
        <pt x="564" y="137" on="1"/>
        <pt x="491" y="63" on="1"/>
        <pt x="401" y="154" on="1"/>
        <pt x="378" y="142" on="0"/>
        <pt x="326" y="130" on="0"/>
        <pt x="300" y="130" on="1"/>
        <pt x="245" y="130" on="0"/>
        <pt x="199" y="154" on="1"/>
        <pt x="109" y="63" on="1"/>
      </contour>
      <contour>
        <pt x="214" y="330" on="1"/>
        <pt x="214" y="285" on="0"/>
        <pt x="264" y="232" on="0"/>
        <pt x="300" y="232" on="1"/>
        <pt x="336" y="232" on="0"/>
        <pt x="386" y="285" on="0"/>
        <pt x="386" y="330" on="1"/>
        <pt x="386" y="375" on="0"/>
        <pt x="336" y="428" on="0"/>
        <pt x="300" y="428" on="1"/>
        <pt x="264" y="428" on="0"/>
        <pt x="214" y="375" on="0"/>
      </contour>
    </TTGlyph>
    <TTGlyph name="d" xMin="47" yMin="-12" xMax="528" yMax="701">
      <contour>
        <pt x="47" y="248" on="1"/>
        <pt x="47" y="309" on="0"/>
        <pt x="83" y="405" on="0"/>
        <pt x="142" y="472" on="0"/>
        <pt x="218" y="508" on="0"/>
        <pt x="259" y="508" on="1"/>
        <pt x="302" y="508" on="0"/>
        <pt x="360" y="479" on="0"/>
        <pt x="386" y="455" on="1"/>
        <pt x="381" y="532" on="1"/>
        <pt x="381" y="701" on="1"/>
        <pt x="528" y="701" on="1"/>
        <pt x="528" y="0" on="1"/>
        <pt x="408" y="0" on="1"/>
        <pt x="397" y="51" on="1"/>
        <pt x="394" y="51" on="1"/>
        <pt x="366" y="24" on="0"/>
        <pt x="294" y="-12" on="0"/>
        <pt x="256" y="-12" on="1"/>
        <pt x="209" y="-12" on="0"/>
        <pt x="132" y="24" on="0"/>
        <pt x="77" y="91" on="0"/>
        <pt x="47" y="187" on="0"/>
      </contour>
      <contour>
        <pt x="198" y="250" on="1"/>
        <pt x="198" y="176" on="0"/>
        <pt x="248" y="108" on="0"/>
        <pt x="294" y="108" on="1"/>
        <pt x="319" y="108" on="0"/>
        <pt x="361" y="129" on="0"/>
        <pt x="381" y="154" on="1"/>
        <pt x="381" y="355" on="1"/>
        <pt x="361" y="373" on="0"/>
        <pt x="320" y="388" on="0"/>
        <pt x="298" y="388" on="1"/>
        <pt x="257" y="388" on="0"/>
        <pt x="198" y="320" on="0"/>
      </contour>
    </TTGlyph>
    <TTGlyph name="d.sups" xMin="128" yMin="252" xMax="452" yMax="722">
      <contour>
        <pt x="128" y="424" on="1"/>
        <pt x="128" y="464" on="0"/>
        <pt x="152" y="529" on="0"/>
        <pt x="192" y="573" on="0"/>
        <pt x="243" y="597" on="0"/>
        <pt x="270" y="597" on="1"/>
        <pt x="298" y="597" on="0"/>
        <pt x="335" y="578" on="0"/>
        <pt x="352" y="562" on="1"/>
        <pt x="349" y="611" on="1"/>
        <pt x="349" y="722" on="1"/>
        <pt x="452" y="722" on="1"/>
        <pt x="452" y="260" on="1"/>
        <pt x="368" y="260" on="1"/>
        <pt x="360" y="292" on="1"/>
        <pt x="358" y="292" on="1"/>
        <pt x="340" y="275" on="0"/>
        <pt x="292" y="252" on="0"/>
        <pt x="268" y="252" on="1"/>
        <pt x="204" y="252" on="0"/>
        <pt x="128" y="343" on="0"/>
      </contour>
      <contour>
        <pt x="235" y="425" on="1"/>
        <pt x="235" y="378" on="0"/>
        <pt x="266" y="336" on="0"/>
        <pt x="295" y="336" on="1"/>
        <pt x="311" y="336" on="0"/>
        <pt x="337" y="347" on="0"/>
        <pt x="349" y="363" on="1"/>
        <pt x="349" y="493" on="1"/>
        <pt x="336" y="504" on="0"/>
        <pt x="308" y="513" on="0"/>
        <pt x="294" y="513" on="1"/>
        <pt x="271" y="513" on="0"/>
        <pt x="235" y="471" on="0"/>
      </contour>
    </TTGlyph>
    <TTGlyph name="dagger" xMin="89" yMin="-80" xMax="511" yMax="712">
      <contour>
        <pt x="250" y="438" on="1"/>
        <pt x="89" y="430" on="1"/>
        <pt x="89" y="548" on="1"/>
        <pt x="250" y="539" on="1"/>
        <pt x="241" y="712" on="1"/>
        <pt x="359" y="712" on="1"/>
        <pt x="350" y="539" on="1"/>
        <pt x="511" y="548" on="1"/>
        <pt x="511" y="430" on="1"/>
        <pt x="350" y="438" on="1"/>
        <pt x="359" y="-80" on="1"/>
        <pt x="241" y="-80" on="1"/>
      </contour>
    </TTGlyph>
    <TTGlyph name="daggerdbl" xMin="89" yMin="-80" xMax="511" yMax="712">
      <contour>
        <pt x="89" y="202" on="1"/>
        <pt x="250" y="190" on="1"/>
        <pt x="241" y="316" on="1"/>
        <pt x="250" y="442" on="1"/>
        <pt x="89" y="430" on="1"/>
        <pt x="89" y="548" on="1"/>
        <pt x="250" y="539" on="1"/>
        <pt x="241" y="712" on="1"/>
        <pt x="359" y="712" on="1"/>
        <pt x="350" y="539" on="1"/>
        <pt x="511" y="548" on="1"/>
        <pt x="511" y="430" on="1"/>
        <pt x="350" y="442" on="1"/>
        <pt x="359" y="316" on="1"/>
        <pt x="350" y="190" on="1"/>
        <pt x="511" y="202" on="1"/>
        <pt x="511" y="84" on="1"/>
        <pt x="350" y="93" on="1"/>
        <pt x="359" y="-80" on="1"/>
        <pt x="241" y="-80" on="1"/>
        <pt x="250" y="93" on="1"/>
        <pt x="89" y="84" on="1"/>
      </contour>
    </TTGlyph>
    <TTGlyph name="dcaron" xMin="26" yMin="-12" xMax="632" yMax="770">
      <component glyphName="d" x="-21" y="0" flags="0x204"/>
      <component glyphName="uni030C.a" x="285" y="0" flags="0x4"/>
    </TTGlyph>
    <TTGlyph name="dcroat" xMin="47" yMin="-12" xMax="594" yMax="701">
      <contour>
        <pt x="381" y="335" on="1"/>
        <pt x="342" y="368" on="0"/>
        <pt x="300" y="368" on="1"/>
        <pt x="258" y="368" on="0"/>
        <pt x="198" y="306" on="0"/>
        <pt x="198" y="240" on="1"/>
        <pt x="198" y="171" on="0"/>
        <pt x="248" y="108" on="0"/>
        <pt x="294" y="108" on="1"/>
        <pt x="319" y="108" on="0"/>
        <pt x="361" y="129" on="0"/>
        <pt x="381" y="154" on="1"/>
      </contour>
      <contour>
        <pt x="594" y="562" on="1"/>
        <pt x="528" y="557" on="1"/>
        <pt x="528" y="0" on="1"/>
        <pt x="408" y="0" on="1"/>
        <pt x="397" y="51" on="1"/>
        <pt x="394" y="51" on="1"/>
        <pt x="366" y="24" on="0"/>
        <pt x="294" y="-12" on="0"/>
        <pt x="256" y="-12" on="1"/>
        <pt x="209" y="-12" on="0"/>
        <pt x="132" y="22" on="0"/>
        <pt x="77" y="87" on="0"/>
        <pt x="47" y="179" on="0"/>
        <pt x="47" y="238" on="1"/>
        <pt x="47" y="296" on="0"/>
        <pt x="83" y="389" on="0"/>
        <pt x="142" y="454" on="0"/>
        <pt x="218" y="488" on="0"/>
        <pt x="259" y="488" on="1"/>
        <pt x="302" y="488" on="0"/>
        <pt x="360" y="459" on="0"/>
        <pt x="386" y="435" on="1"/>
        <pt x="381" y="512" on="1"/>
        <pt x="381" y="556" on="1"/>
        <pt x="226" y="556" on="1"/>
        <pt x="226" y="627" on="1"/>
        <pt x="381" y="627" on="1"/>
        <pt x="381" y="701" on="1"/>
        <pt x="528" y="701" on="1"/>
        <pt x="528" y="627" on="1"/>
        <pt x="594" y="627" on="1"/>
      </contour>
    </TTGlyph>
    <TTGlyph name="degree" xMin="156" yMin="398" xMax="445" yMax="686">
      <contour>
        <pt x="301" y="398" on="1"/>
        <pt x="271" y="398" on="0"/>
        <pt x="218" y="419" on="0"/>
        <pt x="179" y="458" on="0"/>
        <pt x="156" y="510" on="0"/>
        <pt x="156" y="542" on="1"/>
        <pt x="156" y="573" on="0"/>
        <pt x="179" y="626" on="0"/>
        <pt x="218" y="665" on="0"/>
        <pt x="271" y="686" on="0"/>
        <pt x="301" y="686" on="1"/>
        <pt x="331" y="686" on="0"/>
        <pt x="384" y="665" on="0"/>
        <pt x="423" y="626" on="0"/>
        <pt x="445" y="573" on="0"/>
        <pt x="445" y="542" on="1"/>
        <pt x="445" y="510" on="0"/>
        <pt x="423" y="458" on="0"/>
        <pt x="384" y="419" on="0"/>
        <pt x="331" y="398" on="0"/>
      </contour>
      <contour>
        <pt x="301" y="468" on="1"/>
        <pt x="331" y="468" on="0"/>
        <pt x="368" y="509" on="0"/>
        <pt x="368" y="542" on="1"/>
        <pt x="368" y="574" on="0"/>
        <pt x="331" y="615" on="0"/>
        <pt x="301" y="615" on="1"/>
        <pt x="271" y="615" on="0"/>
        <pt x="234" y="574" on="0"/>
        <pt x="234" y="542" on="1"/>
        <pt x="234" y="509" on="0"/>
        <pt x="271" y="468" on="0"/>
      </contour>
    </TTGlyph>
    <TTGlyph name="dieresis" xMin="112" yMin="571" xMax="488" yMax="728">
      <component glyphName="uni0308" x="0" y="0" flags="0x204"/>
    </TTGlyph>
    <TTGlyph name="divide" xMin="70" yMin="73" xMax="530" yMax="587">
      <contour>
        <pt x="300" y="433" on="1"/>
        <pt x="265" y="433" on="0"/>
        <pt x="219" y="476" on="0"/>
        <pt x="219" y="510" on="1"/>
        <pt x="219" y="544" on="0"/>
        <pt x="265" y="587" on="0"/>
        <pt x="300" y="587" on="1"/>
        <pt x="335" y="587" on="0"/>
        <pt x="381" y="544" on="0"/>
        <pt x="381" y="510" on="1"/>
        <pt x="381" y="476" on="0"/>
        <pt x="335" y="433" on="0"/>
      </contour>
      <contour>
        <pt x="219" y="150" on="1"/>
        <pt x="219" y="184" on="0"/>
        <pt x="265" y="227" on="0"/>
        <pt x="300" y="227" on="1"/>
        <pt x="335" y="227" on="0"/>
        <pt x="381" y="184" on="0"/>
        <pt x="381" y="150" on="1"/>
        <pt x="381" y="116" on="0"/>
        <pt x="335" y="73" on="0"/>
        <pt x="300" y="73" on="1"/>
        <pt x="265" y="73" on="0"/>
        <pt x="219" y="116" on="0"/>
      </contour>
      <contour>
        <pt x="70" y="382" on="1"/>
        <pt x="530" y="382" on="1"/>
        <pt x="530" y="278" on="1"/>
        <pt x="70" y="278" on="1"/>
      </contour>
    </TTGlyph>
    <TTGlyph name="dollar" xMin="64" yMin="-110" xMax="523" yMax="745">
      <contour>
        <pt x="440" y="449" on="1"/>
        <pt x="405" y="474" on="0"/>
        <pt x="342" y="499" on="0"/>
        <pt x="301" y="499" on="1"/>
        <pt x="232" y="499" on="0"/>
        <pt x="232" y="453" on="1"/>
        <pt x="232" y="435" on="0"/>
        <pt x="275" y="411" on="0"/>
        <pt x="340" y="387" on="0"/>
        <pt x="415" y="359" on="0"/>
        <pt x="480" y="316" on="0"/>
        <pt x="523" y="254" on="0"/>
        <pt x="523" y="209" on="1"/>
        <pt x="523" y="146" on="0"/>
        <pt x="437" y="53" on="0"/>
        <pt x="353" y="39" on="1"/>
        <pt x="353" y="-110" on="1"/>
        <pt x="255" y="-110" on="1"/>
        <pt x="255" y="36" on="1"/>
        <pt x="206" y="41" on="0"/>
        <pt x="102" y="82" on="0"/>
        <pt x="64" y="115" on="1"/>
        <pt x="128" y="215" on="1"/>
        <pt x="176" y="186" on="0"/>
        <pt x="261" y="153" on="0"/>
        <pt x="309" y="153" on="1"/>
        <pt x="345" y="153" on="0"/>
        <pt x="383" y="177" on="0"/>
        <pt x="383" y="198" on="1"/>
        <pt x="383" y="219" on="0"/>
        <pt x="340" y="247" on="0"/>
        <pt x="275" y="273" on="0"/>
        <pt x="199" y="301" on="0"/>
        <pt x="134" y="343" on="0"/>
        <pt x="91" y="405" on="0"/>
        <pt x="91" y="451" on="1"/>
        <pt x="91" y="516" on="0"/>
        <pt x="179" y="602" on="0"/>
        <pt x="255" y="614" on="1"/>
        <pt x="255" y="745" on="1"/>
        <pt x="353" y="745" on="1"/>
        <pt x="353" y="615" on="1"/>
        <pt x="405" y="608" on="0"/>
        <pt x="482" y="565" on="0"/>
        <pt x="513" y="533" on="1"/>
      </contour>
    </TTGlyph>
    <TTGlyph name="dollar.a" xMin="64" yMin="-115" xMax="532" yMax="750">
      <contour>
        <pt x="317" y="153" on="1"/>
        <pt x="353" y="153" on="0"/>
        <pt x="391" y="177" on="0"/>
        <pt x="391" y="198" on="1"/>
        <pt x="391" y="215" on="0"/>
        <pt x="360" y="239" on="0"/>
        <pt x="335" y="250" on="1"/>
      </contour>
      <contour>
        <pt x="292" y="499" on="1"/>
        <pt x="259" y="499" on="0"/>
        <pt x="223" y="476" on="0"/>
        <pt x="223" y="453" on="1"/>
        <pt x="223" y="439" on="0"/>
        <pt x="252" y="418" on="0"/>
        <pt x="276" y="409" on="1"/>
      </contour>
      <contour>
        <pt x="359" y="379" on="1"/>
        <pt x="390" y="368" on="0"/>
        <pt x="452" y="340" on="0"/>
        <pt x="501" y="300" on="0"/>
        <pt x="532" y="246" on="0"/>
        <pt x="532" y="209" on="1"/>
        <pt x="532" y="172" on="0"/>
        <pt x="501" y="108" on="0"/>
        <pt x="441" y="61" on="0"/>
        <pt x="352" y="34" on="0"/>
        <pt x="295" y="34" on="1"/>
        <pt x="267" y="-115" on="1"/>
        <pt x="180" y="-105" on="1"/>
        <pt x="208" y="46" on="1"/>
        <pt x="169" y="56" on="0"/>
        <pt x="93" y="91" on="0"/>
        <pt x="64" y="115" on="1"/>
        <pt x="128" y="215" on="1"/>
        <pt x="155" y="199" on="0"/>
        <pt x="205" y="175" on="0"/>
        <pt x="231" y="167" on="1"/>
        <pt x="252" y="281" on="1"/>
        <pt x="221" y="293" on="0"/>
        <pt x="161" y="321" on="0"/>
        <pt x="113" y="361" on="0"/>
        <pt x="83" y="414" on="0"/>
        <pt x="83" y="451" on="1"/>
        <pt x="83" y="489" on="0"/>
        <pt x="114" y="551" on="0"/>
        <pt x="171" y="594" on="0"/>
        <pt x="252" y="618" on="0"/>
        <pt x="302" y="618" on="1"/>
        <pt x="314" y="618" on="1"/>
        <pt x="339" y="750" on="1"/>
        <pt x="427" y="740" on="1"/>
        <pt x="401" y="603" on="1"/>
        <pt x="435" y="592" on="0"/>
        <pt x="490" y="556" on="0"/>
        <pt x="513" y="533" on="1"/>
        <pt x="440" y="449" on="1"/>
        <pt x="423" y="460" on="0"/>
        <pt x="394" y="477" on="0"/>
        <pt x="379" y="483" on="1"/>
      </contour>
    </TTGlyph>
    <TTGlyph name="dong" xMin="91" yMin="0" xMax="562" yMax="651">
      <contour>
        <pt x="104" y="74" on="1"/>
        <pt x="523" y="74" on="1"/>
        <pt x="523" y="0" on="1"/>
        <pt x="104" y="0" on="1"/>
      </contour>
      <contour>
        <pt x="369" y="360" on="1"/>
        <pt x="351" y="374" on="0"/>
        <pt x="317" y="386" on="0"/>
        <pt x="296" y="386" on="1"/>
        <pt x="265" y="386" on="0"/>
        <pt x="215" y="343" on="0"/>
        <pt x="215" y="305" on="1"/>
        <pt x="215" y="257" on="0"/>
        <pt x="257" y="213" on="0"/>
        <pt x="292" y="213" on="1"/>
        <pt x="315" y="213" on="0"/>
        <pt x="350" y="229" on="0"/>
        <pt x="369" y="249" on="1"/>
      </contour>
      <contour>
        <pt x="562" y="602" on="1"/>
        <pt x="562" y="534" on="1"/>
        <pt x="490" y="528" on="1"/>
        <pt x="490" y="126" on="1"/>
        <pt x="390" y="126" on="1"/>
        <pt x="381" y="162" on="1"/>
        <pt x="378" y="162" on="1"/>
        <pt x="356" y="141" on="0"/>
        <pt x="297" y="116" on="0"/>
        <pt x="262" y="116" on="1"/>
        <pt x="184" y="116" on="0"/>
        <pt x="91" y="214" on="0"/>
        <pt x="91" y="306" on="1"/>
        <pt x="91" y="348" on="0"/>
        <pt x="121" y="414" on="0"/>
        <pt x="171" y="461" on="0"/>
        <pt x="234" y="485" on="0"/>
        <pt x="266" y="485" on="1"/>
        <pt x="303" y="485" on="0"/>
        <pt x="350" y="466" on="0"/>
        <pt x="373" y="446" on="1"/>
        <pt x="369" y="513" on="1"/>
        <pt x="369" y="528" on="1"/>
        <pt x="215" y="528" on="1"/>
        <pt x="215" y="602" on="1"/>
        <pt x="369" y="602" on="1"/>
        <pt x="369" y="651" on="1"/>
        <pt x="490" y="651" on="1"/>
        <pt x="490" y="602" on="1"/>
      </contour>
    </TTGlyph>
    <TTGlyph name="dotaccent" xMin="202" yMin="569" xMax="398" yMax="750">
      <component glyphName="uni0307" x="0" y="0" flags="0x204"/>
    </TTGlyph>
    <TTGlyph name="dotlessi" xMin="79" yMin="0" xMax="425" yMax="496">
      <contour>
        <pt x="79" y="496" on="1"/>
        <pt x="425" y="496" on="1"/>
        <pt x="425" y="0" on="1"/>
        <pt x="278" y="0" on="1"/>
        <pt x="278" y="381" on="1"/>
        <pt x="79" y="381" on="1"/>
      </contour>
    </TTGlyph>
    <TTGlyph name="e" xMin="55" yMin="-12" xMax="546" yMax="508">
      <contour>
        <pt x="55" y="248" on="1"/>
        <pt x="55" y="309" on="0"/>
        <pt x="98" y="405" on="0"/>
        <pt x="170" y="472" on="0"/>
        <pt x="263" y="508" on="0"/>
        <pt x="313" y="508" on="1"/>
        <pt x="370" y="508" on="0"/>
        <pt x="458" y="472" on="0"/>
        <pt x="516" y="408" on="0"/>
        <pt x="546" y="321" on="0"/>
        <pt x="546" y="270" on="1"/>
        <pt x="546" y="250" on="0"/>
        <pt x="542" y="214" on="0"/>
        <pt x="540" y="205" on="1"/>
        <pt x="206" y="205" on="1"/>
        <pt x="214" y="149" on="0"/>
        <pt x="295" y="100" on="0"/>
        <pt x="350" y="100" on="1"/>
        <pt x="384" y="100" on="0"/>
        <pt x="445" y="117" on="0"/>
        <pt x="478" y="134" on="1"/>
        <pt x="526" y="46" on="1"/>
        <pt x="484" y="19" on="0"/>
        <pt x="380" y="-12" on="0"/>
        <pt x="330" y="-12" on="1"/>
        <pt x="272" y="-12" on="0"/>
        <pt x="172" y="23" on="0"/>
        <pt x="98" y="90" on="0"/>
        <pt x="55" y="186" on="0"/>
      </contour>
      <contour>
        <pt x="413" y="302" on="1"/>
        <pt x="413" y="344" on="0"/>
        <pt x="367" y="396" on="0"/>
        <pt x="316" y="396" on="1"/>
        <pt x="276" y="396" on="0"/>
        <pt x="214" y="350" on="0"/>
        <pt x="204" y="302" on="1"/>
      </contour>
    </TTGlyph>
    <TTGlyph name="e.sups" xMin="148" yMin="252" xMax="465" yMax="597">
      <contour>
        <pt x="148" y="424" on="1"/>
        <pt x="148" y="464" on="0"/>
        <pt x="176" y="528" on="0"/>
        <pt x="223" y="573" on="0"/>
        <pt x="282" y="597" on="0"/>
        <pt x="314" y="597" on="1"/>
        <pt x="352" y="597" on="0"/>
        <pt x="409" y="572" on="0"/>
        <pt x="446" y="529" on="0"/>
        <pt x="465" y="471" on="0"/>
        <pt x="465" y="438" on="1"/>
        <pt x="465" y="424" on="0"/>
        <pt x="462" y="402" on="0"/>
        <pt x="461" y="396" on="1"/>
        <pt x="248" y="396" on="1"/>
        <pt x="256" y="361" on="0"/>
        <pt x="306" y="330" on="0"/>
        <pt x="340" y="330" on="1"/>
        <pt x="378" y="330" on="0"/>
        <pt x="417" y="351" on="1"/>
        <pt x="452" y="290" on="1"/>
        <pt x="424" y="272" on="0"/>
        <pt x="356" y="252" on="0"/>
        <pt x="325" y="252" on="1"/>
        <pt x="287" y="252" on="0"/>
        <pt x="223" y="275" on="0"/>
        <pt x="175" y="319" on="0"/>
        <pt x="148" y="383" on="0"/>
      </contour>
      <contour>
        <pt x="377" y="459" on="1"/>
        <pt x="377" y="485" on="0"/>
        <pt x="349" y="518" on="0"/>
        <pt x="317" y="518" on="1"/>
        <pt x="291" y="518" on="0"/>
        <pt x="252" y="491" on="0"/>
        <pt x="247" y="459" on="1"/>
      </contour>
    </TTGlyph>
    <TTGlyph name="eacute" xMin="55" yMin="-12" xMax="546" yMax="741">
      <component glyphName="e" x="0" y="0" flags="0x204"/>
      <component glyphName="uni0301" x="13" y="0" flags="0x4"/>
    </TTGlyph>
    <TTGlyph name="eacute.sups" xMin="148" yMin="252" xMax="465" yMax="750">
      <contour>
        <pt x="148" y="424" on="1"/>
        <pt x="148" y="464" on="0"/>
        <pt x="176" y="528" on="0"/>
        <pt x="223" y="573" on="0"/>
        <pt x="282" y="597" on="0"/>
        <pt x="314" y="597" on="1"/>
        <pt x="352" y="597" on="0"/>
        <pt x="409" y="572" on="0"/>
        <pt x="446" y="529" on="0"/>
        <pt x="465" y="471" on="0"/>
        <pt x="465" y="438" on="1"/>
        <pt x="465" y="424" on="0"/>
        <pt x="462" y="402" on="0"/>
        <pt x="461" y="396" on="1"/>
        <pt x="248" y="396" on="1"/>
        <pt x="256" y="361" on="0"/>
        <pt x="306" y="330" on="0"/>
        <pt x="340" y="330" on="1"/>
        <pt x="378" y="330" on="0"/>
        <pt x="417" y="351" on="1"/>
        <pt x="452" y="290" on="1"/>
        <pt x="424" y="272" on="0"/>
        <pt x="356" y="252" on="0"/>
        <pt x="325" y="252" on="1"/>
        <pt x="287" y="252" on="0"/>
        <pt x="223" y="275" on="0"/>
        <pt x="175" y="319" on="0"/>
        <pt x="148" y="383" on="0"/>
      </contour>
      <contour>
        <pt x="377" y="459" on="1"/>
        <pt x="377" y="485" on="0"/>
        <pt x="349" y="518" on="0"/>
        <pt x="317" y="518" on="1"/>
        <pt x="291" y="518" on="0"/>
        <pt x="252" y="491" on="0"/>
        <pt x="247" y="459" on="1"/>
      </contour>
      <contour>
        <pt x="333" y="639" on="1"/>
        <pt x="257" y="639" on="1"/>
        <pt x="316" y="750" on="1"/>
        <pt x="423" y="750" on="1"/>
      </contour>
    </TTGlyph>
    <TTGlyph name="ebreve" xMin="55" yMin="-12" xMax="546" yMax="730">
      <component glyphName="e" x="0" y="0" flags="0x204"/>
      <component glyphName="uni0306" x="13" y="0" flags="0x4"/>
    </TTGlyph>
    <TTGlyph name="ecaron" xMin="55" yMin="-12" xMax="546" yMax="741">
      <component glyphName="e" x="0" y="0" flags="0x204"/>
      <component glyphName="uni030C" x="13" y="0" flags="0x4"/>
    </TTGlyph>
    <TTGlyph name="ecircumflex" xMin="55" yMin="-12" xMax="546" yMax="741">
      <component glyphName="e" x="0" y="0" flags="0x204"/>
      <component glyphName="uni0302" x="13" y="0" flags="0x4"/>
    </TTGlyph>
    <TTGlyph name="edieresis" xMin="55" yMin="-12" xMax="546" yMax="728">
      <component glyphName="e" x="0" y="0" flags="0x204"/>
      <component glyphName="uni0308" x="12" y="0" flags="0x4"/>
    </TTGlyph>
    <TTGlyph name="edotaccent" xMin="55" yMin="-12" xMax="546" yMax="750">
      <component glyphName="e" x="0" y="0" flags="0x204"/>
      <component glyphName="uni0307" x="13" y="0" flags="0x4"/>
    </TTGlyph>
    <TTGlyph name="egrave" xMin="55" yMin="-12" xMax="546" yMax="741">
      <component glyphName="e" x="0" y="0" flags="0x204"/>
      <component glyphName="uni0300" x="13" y="0" flags="0x4"/>
    </TTGlyph>
    <TTGlyph name="egrave.sups" xMin="148" yMin="252" xMax="465" yMax="750">
      <contour>
        <pt x="148" y="424" on="1"/>
        <pt x="148" y="464" on="0"/>
        <pt x="176" y="528" on="0"/>
        <pt x="223" y="573" on="0"/>
        <pt x="282" y="597" on="0"/>
        <pt x="314" y="597" on="1"/>
        <pt x="352" y="597" on="0"/>
        <pt x="409" y="572" on="0"/>
        <pt x="446" y="529" on="0"/>
        <pt x="465" y="471" on="0"/>
        <pt x="465" y="438" on="1"/>
        <pt x="465" y="424" on="0"/>
        <pt x="462" y="402" on="0"/>
        <pt x="461" y="396" on="1"/>
        <pt x="248" y="396" on="1"/>
        <pt x="256" y="361" on="0"/>
        <pt x="306" y="330" on="0"/>
        <pt x="340" y="330" on="1"/>
        <pt x="378" y="330" on="0"/>
        <pt x="417" y="351" on="1"/>
        <pt x="452" y="290" on="1"/>
        <pt x="424" y="272" on="0"/>
        <pt x="356" y="252" on="0"/>
        <pt x="325" y="252" on="1"/>
        <pt x="287" y="252" on="0"/>
        <pt x="223" y="275" on="0"/>
        <pt x="175" y="319" on="0"/>
        <pt x="148" y="383" on="0"/>
      </contour>
      <contour>
        <pt x="377" y="459" on="1"/>
        <pt x="377" y="485" on="0"/>
        <pt x="349" y="518" on="0"/>
        <pt x="317" y="518" on="1"/>
        <pt x="291" y="518" on="0"/>
        <pt x="252" y="491" on="0"/>
        <pt x="247" y="459" on="1"/>
      </contour>
      <contour>
        <pt x="204" y="750" on="1"/>
        <pt x="310" y="750" on="1"/>
        <pt x="369" y="639" on="1"/>
        <pt x="294" y="639" on="1"/>
      </contour>
    </TTGlyph>
    <TTGlyph name="eight" xMin="61" yMin="-12" xMax="540" yMax="647">
      <contour>
        <pt x="188" y="179" on="1"/>
        <pt x="188" y="137" on="0"/>
        <pt x="254" y="90" on="0"/>
        <pt x="303" y="90" on="1"/>
        <pt x="348" y="90" on="0"/>
        <pt x="403" y="129" on="0"/>
        <pt x="403" y="169" on="1"/>
        <pt x="403" y="191" on="0"/>
        <pt x="381" y="221" on="0"/>
        <pt x="340" y="246" on="0"/>
        <pt x="284" y="267" on="0"/>
        <pt x="250" y="280" on="1"/>
        <pt x="223" y="260" on="0"/>
        <pt x="188" y="210" on="0"/>
      </contour>
      <contour>
        <pt x="343" y="370" on="1"/>
        <pt x="391" y="413" on="0"/>
        <pt x="391" y="463" on="1"/>
        <pt x="391" y="500" on="0"/>
        <pt x="345" y="545" on="0"/>
        <pt x="301" y="545" on="1"/>
        <pt x="266" y="545" on="0"/>
        <pt x="217" y="509" on="0"/>
        <pt x="217" y="472" on="1"/>
        <pt x="217" y="433" on="0"/>
        <pt x="287" y="389" on="0"/>
      </contour>
      <contour>
        <pt x="61" y="162" on="1"/>
        <pt x="61" y="191" on="0"/>
        <pt x="80" y="238" on="0"/>
        <pt x="113" y="276" on="0"/>
        <pt x="156" y="306" on="0"/>
        <pt x="181" y="318" on="1"/>
        <pt x="181" y="322" on="1"/>
        <pt x="141" y="350" on="0"/>
        <pt x="88" y="421" on="0"/>
        <pt x="88" y="472" on="1"/>
        <pt x="88" y="512" on="0"/>
        <pt x="120" y="577" on="0"/>
        <pt x="177" y="623" on="0"/>
        <pt x="257" y="647" on="0"/>
        <pt x="304" y="647" on="1"/>
        <pt x="352" y="647" on="0"/>
        <pt x="429" y="622" on="0"/>
        <pt x="483" y="577" on="0"/>
        <pt x="512" y="512" on="0"/>
        <pt x="512" y="473" on="1"/>
        <pt x="512" y="428" on="0"/>
        <pt x="459" y="358" on="0"/>
        <pt x="421" y="334" on="1"/>
        <pt x="421" y="330" on="1"/>
        <pt x="446" y="318" on="0"/>
        <pt x="490" y="287" on="0"/>
        <pt x="522" y="247" on="0"/>
        <pt x="540" y="196" on="0"/>
        <pt x="540" y="164" on="1"/>
        <pt x="540" y="126" on="0"/>
        <pt x="508" y="62" on="0"/>
        <pt x="447" y="15" on="0"/>
        <pt x="357" y="-12" on="0"/>
        <pt x="299" y="-12" on="1"/>
        <pt x="244" y="-12" on="0"/>
        <pt x="156" y="13" on="0"/>
        <pt x="94" y="59" on="0"/>
        <pt x="61" y="123" on="0"/>
      </contour>
    </TTGlyph>
    <TTGlyph name="eight.dnom" xMin="166" yMin="-12" xMax="434" yMax="324">
      <contour>
        <pt x="260" y="87" on="1"/>
        <pt x="260" y="73" on="0"/>
        <pt x="283" y="56" on="0"/>
        <pt x="300" y="56" on="1"/>
        <pt x="317" y="56" on="0"/>
        <pt x="340" y="72" on="0"/>
        <pt x="340" y="85" on="1"/>
        <pt x="340" y="101" on="0"/>
        <pt x="309" y="119" on="0"/>
        <pt x="286" y="126" on="1"/>
        <pt x="274" y="120" on="0"/>
        <pt x="260" y="98" on="0"/>
      </contour>
      <contour>
        <pt x="313" y="194" on="1"/>
        <pt x="332" y="206" on="0"/>
        <pt x="332" y="226" on="1"/>
        <pt x="332" y="238" on="0"/>
        <pt x="314" y="254" on="0"/>
        <pt x="299" y="254" on="1"/>
        <pt x="286" y="254" on="0"/>
        <pt x="269" y="241" on="0"/>
        <pt x="269" y="230" on="1"/>
        <pt x="269" y="216" on="0"/>
        <pt x="293" y="201" on="0"/>
      </contour>
      <contour>
        <pt x="166" y="79" on="1"/>
        <pt x="166" y="110" on="0"/>
        <pt x="204" y="144" on="0"/>
        <pt x="227" y="156" on="1"/>
        <pt x="227" y="160" on="1"/>
        <pt x="204" y="175" on="0"/>
        <pt x="175" y="203" on="0"/>
        <pt x="175" y="233" on="1"/>
        <pt x="175" y="254" on="0"/>
        <pt x="195" y="287" on="0"/>
        <pt x="229" y="311" on="0"/>
        <pt x="274" y="324" on="0"/>
        <pt x="300" y="324" on="1"/>
        <pt x="354" y="324" on="0"/>
        <pt x="426" y="275" on="0"/>
        <pt x="426" y="233" on="1"/>
        <pt x="426" y="207" on="0"/>
        <pt x="396" y="179" on="0"/>
        <pt x="373" y="168" on="1"/>
        <pt x="373" y="164" on="1"/>
        <pt x="386" y="157" on="0"/>
        <pt x="408" y="142" on="0"/>
        <pt x="425" y="123" on="0"/>
        <pt x="434" y="97" on="0"/>
        <pt x="434" y="79" on="1"/>
        <pt x="434" y="61" on="0"/>
        <pt x="414" y="28" on="0"/>
        <pt x="379" y="3" on="0"/>
        <pt x="330" y="-12" on="0"/>
        <pt x="300" y="-12" on="1"/>
        <pt x="240" y="-12" on="0"/>
        <pt x="166" y="41" on="0"/>
      </contour>
    </TTGlyph>
    <TTGlyph name="eight.numr" xMin="166" yMin="312" xMax="434" yMax="648">
      <component glyphName="eight.dnom" x="0" y="324" flags="0x204"/>
    </TTGlyph>
    <TTGlyph name="eight.onum" xMin="61" yMin="-12" xMax="540" yMax="647">
      <component glyphName="eight" x="0" y="0" flags="0x204"/>
    </TTGlyph>
    <TTGlyph name="eight.subs" xMin="166" yMin="-181" xMax="434" yMax="155">
      <component glyphName="eight.dnom" x="0" y="-169" flags="0x204"/>
    </TTGlyph>
    <TTGlyph name="eight.sups" xMin="166" yMin="428" xMax="434" yMax="764">
      <component glyphName="eight.dnom" x="0" y="440" flags="0x204"/>
    </TTGlyph>
    <TTGlyph name="ellipsis" xMin="-1" yMin="-12" xMax="601" yMax="180">
      <contour>
        <pt x="-1" y="84" on="1"/>
        <pt x="-1" y="125" on="0"/>
        <pt x="49" y="180" on="0"/>
        <pt x="91" y="180" on="1"/>
        <pt x="133" y="180" on="0"/>
        <pt x="183" y="125" on="0"/>
        <pt x="183" y="84" on="1"/>
        <pt x="183" y="43" on="0"/>
        <pt x="133" y="-12" on="0"/>
        <pt x="91" y="-12" on="1"/>
        <pt x="49" y="-12" on="0"/>
        <pt x="-1" y="43" on="0"/>
      </contour>
      <contour>
        <pt x="208" y="84" on="1"/>
        <pt x="208" y="125" on="0"/>
        <pt x="258" y="180" on="0"/>
        <pt x="300" y="180" on="1"/>
        <pt x="342" y="180" on="0"/>
        <pt x="392" y="125" on="0"/>
        <pt x="392" y="84" on="1"/>
        <pt x="392" y="43" on="0"/>
        <pt x="342" y="-12" on="0"/>
        <pt x="300" y="-12" on="1"/>
        <pt x="258" y="-12" on="0"/>
        <pt x="208" y="43" on="0"/>
      </contour>
      <contour>
        <pt x="417" y="84" on="1"/>
        <pt x="417" y="125" on="0"/>
        <pt x="467" y="180" on="0"/>
        <pt x="509" y="180" on="1"/>
        <pt x="551" y="180" on="0"/>
        <pt x="601" y="125" on="0"/>
        <pt x="601" y="84" on="1"/>
        <pt x="601" y="43" on="0"/>
        <pt x="551" y="-12" on="0"/>
        <pt x="509" y="-12" on="1"/>
        <pt x="467" y="-12" on="0"/>
        <pt x="417" y="43" on="0"/>
      </contour>
    </TTGlyph>
    <TTGlyph name="emacron" xMin="55" yMin="-12" xMax="546" yMax="685">
      <component glyphName="e" x="0" y="0" flags="0x204"/>
      <component glyphName="uni0304" x="13" y="0" flags="0x4"/>
    </TTGlyph>
    <TTGlyph name="emdash" xMin="20" yMin="199" xMax="580" yMax="310">
      <contour>
        <pt x="20" y="310" on="1"/>
        <pt x="580" y="310" on="1"/>
        <pt x="580" y="199" on="1"/>
        <pt x="20" y="199" on="1"/>
      </contour>
    </TTGlyph>
    <TTGlyph name="endash" xMin="80" yMin="199" xMax="520" yMax="310">
      <contour>
        <pt x="80" y="310" on="1"/>
        <pt x="520" y="310" on="1"/>
        <pt x="520" y="199" on="1"/>
        <pt x="80" y="199" on="1"/>
      </contour>
    </TTGlyph>
    <TTGlyph name="eogonek" xMin="55" yMin="-210" xMax="546" yMax="508">
      <contour>
        <pt x="526" y="46" on="1"/>
        <pt x="493" y="23" on="0"/>
        <pt x="450" y="-13" on="0"/>
        <pt x="426" y="-43" on="0"/>
        <pt x="417" y="-70" on="0"/>
        <pt x="417" y="-85" on="1"/>
        <pt x="417" y="-105" on="0"/>
        <pt x="442" y="-123" on="0"/>
        <pt x="460" y="-123" on="1"/>
        <pt x="470" y="-123" on="0"/>
        <pt x="487" y="-116" on="0"/>
        <pt x="495" y="-111" on="1"/>
        <pt x="525" y="-177" on="1"/>
        <pt x="506" y="-192" on="0"/>
        <pt x="448" y="-210" on="0"/>
        <pt x="424" y="-210" on="1"/>
        <pt x="379" y="-210" on="0"/>
        <pt x="320" y="-164" on="0"/>
        <pt x="320" y="-119" on="1"/>
        <pt x="320" y="-82" on="0"/>
        <pt x="357" y="-24" on="0"/>
        <pt x="377" y="-7" on="1"/>
        <pt x="360" y="-11" on="0"/>
        <pt x="341" y="-12" on="0"/>
        <pt x="330" y="-12" on="1"/>
        <pt x="272" y="-12" on="0"/>
        <pt x="172" y="23" on="0"/>
        <pt x="98" y="90" on="0"/>
        <pt x="55" y="186" on="0"/>
        <pt x="55" y="248" on="1"/>
        <pt x="55" y="309" on="0"/>
        <pt x="98" y="405" on="0"/>
        <pt x="170" y="472" on="0"/>
        <pt x="263" y="508" on="0"/>
        <pt x="313" y="508" on="1"/>
        <pt x="370" y="508" on="0"/>
        <pt x="458" y="472" on="0"/>
        <pt x="516" y="408" on="0"/>
        <pt x="546" y="321" on="0"/>
        <pt x="546" y="270" on="1"/>
        <pt x="546" y="250" on="0"/>
        <pt x="542" y="214" on="0"/>
        <pt x="540" y="205" on="1"/>
        <pt x="206" y="205" on="1"/>
        <pt x="214" y="149" on="0"/>
        <pt x="295" y="100" on="0"/>
        <pt x="350" y="100" on="1"/>
        <pt x="384" y="100" on="0"/>
        <pt x="445" y="117" on="0"/>
        <pt x="478" y="134" on="1"/>
      </contour>
      <contour>
        <pt x="413" y="302" on="1"/>
        <pt x="413" y="344" on="0"/>
        <pt x="367" y="396" on="0"/>
        <pt x="316" y="396" on="1"/>
        <pt x="276" y="396" on="0"/>
        <pt x="214" y="350" on="0"/>
        <pt x="204" y="302" on="1"/>
      </contour>
    </TTGlyph>
    <TTGlyph name="equal" xMin="70" yMin="163" xMax="530" yMax="498">
      <component glyphName="minus" x="0" y="116" flags="0x204"/>
      <component glyphName="minus" x="0" y="-115" flags="0x4"/>
    </TTGlyph>
    <TTGlyph name="estimated" xMin="26" yMin="-12" xMax="574" yMax="660">
      <contour>
        <pt x="164" y="68" on="1"/>
        <pt x="190" y="39" on="0"/>
        <pt x="261" y="8" on="0"/>
        <pt x="302" y="8" on="1"/>
        <pt x="355" y="8" on="0"/>
        <pt x="449" y="69" on="0"/>
        <pt x="484" y="120" on="1"/>
        <pt x="522" y="120" on="1"/>
        <pt x="481" y="60" on="0"/>
        <pt x="368" y="-12" on="0"/>
        <pt x="300" y="-12" on="1"/>
        <pt x="243" y="-12" on="0"/>
        <pt x="144" y="41" on="0"/>
        <pt x="69" y="132" on="0"/>
        <pt x="26" y="254" on="0"/>
        <pt x="26" y="324" on="1"/>
        <pt x="26" y="394" on="0"/>
        <pt x="69" y="516" on="0"/>
        <pt x="144" y="607" on="0"/>
        <pt x="243" y="660" on="0"/>
        <pt x="300" y="660" on="1"/>
        <pt x="357" y="660" on="0"/>
        <pt x="456" y="607" on="0"/>
        <pt x="531" y="516" on="0"/>
        <pt x="574" y="394" on="0"/>
        <pt x="574" y="324" on="1"/>
        <pt x="574" y="316" on="1"/>
        <pt x="160" y="316" on="1"/>
        <pt x="156" y="316" on="0"/>
        <pt x="156" y="312" on="1"/>
        <pt x="156" y="88" on="1"/>
        <pt x="156" y="82" on="0"/>
        <pt x="161" y="73" on="0"/>
      </contour>
      <contour>
        <pt x="440" y="334" on="1"/>
        <pt x="446" y="334" on="0"/>
        <pt x="446" y="340" on="1"/>
        <pt x="446" y="564" on="1"/>
        <pt x="446" y="576" on="0"/>
        <pt x="436" y="586" on="1"/>
        <pt x="410" y="612" on="0"/>
        <pt x="340" y="640" on="0"/>
        <pt x="302" y="640" on="1"/>
        <pt x="261" y="640" on="0"/>
        <pt x="190" y="609" on="0"/>
        <pt x="164" y="582" on="1"/>
        <pt x="161" y="577" on="0"/>
        <pt x="156" y="565" on="0"/>
        <pt x="156" y="560" on="1"/>
        <pt x="156" y="340" on="1"/>
        <pt x="156" y="334" on="0"/>
        <pt x="160" y="334" on="1"/>
      </contour>
    </TTGlyph>
    <TTGlyph name="eth" xMin="47" yMin="-12" xMax="550" yMax="740">
      <contour>
        <pt x="300" y="107" on="1"/>
        <pt x="352" y="107" on="0"/>
        <pt x="413" y="183" on="0"/>
        <pt x="413" y="258" on="1"/>
        <pt x="413" y="267" on="0"/>
        <pt x="413" y="284" on="0"/>
        <pt x="412" y="292" on="1"/>
        <pt x="386" y="321" on="0"/>
        <pt x="330" y="346" on="0"/>
        <pt x="298" y="346" on="1"/>
        <pt x="244" y="346" on="0"/>
        <pt x="181" y="288" on="0"/>
        <pt x="181" y="228" on="1"/>
        <pt x="181" y="198" on="0"/>
        <pt x="200" y="153" on="0"/>
        <pt x="232" y="123" on="0"/>
        <pt x="276" y="107" on="0"/>
      </contour>
      <contour>
        <pt x="407" y="606" on="1"/>
        <pt x="471" y="546" on="0"/>
        <pt x="550" y="380" on="0"/>
        <pt x="550" y="266" on="1"/>
        <pt x="550" y="206" on="0"/>
        <pt x="515" y="104" on="0"/>
        <pt x="450" y="30" on="0"/>
        <pt x="355" y="-12" on="0"/>
        <pt x="295" y="-12" on="1"/>
        <pt x="244" y="-12" on="0"/>
        <pt x="154" y="22" on="0"/>
        <pt x="87" y="84" on="0"/>
        <pt x="47" y="173" on="0"/>
        <pt x="47" y="228" on="1"/>
        <pt x="47" y="282" on="0"/>
        <pt x="83" y="366" on="0"/>
        <pt x="145" y="424" on="0"/>
        <pt x="224" y="455" on="0"/>
        <pt x="268" y="455" on="1"/>
        <pt x="304" y="455" on="0"/>
        <pt x="370" y="429" on="0"/>
        <pt x="394" y="400" on="1"/>
        <pt x="380" y="445" on="0"/>
        <pt x="331" y="518" on="0"/>
        <pt x="296" y="550" on="1"/>
        <pt x="147" y="475" on="1"/>
        <pt x="109" y="540" on="1"/>
        <pt x="229" y="600" on="1"/>
        <pt x="186" y="628" on="0"/>
        <pt x="135" y="651" on="1"/>
        <pt x="199" y="740" on="1"/>
        <pt x="237" y="723" on="0"/>
        <pt x="310" y="682" on="0"/>
        <pt x="344" y="658" on="1"/>
        <pt x="480" y="727" on="1"/>
        <pt x="518" y="662" on="1"/>
      </contour>
    </TTGlyph>
    <TTGlyph name="exclam" xMin="200" yMin="-12" xMax="400" yMax="670">
      <contour>
        <pt x="232" y="537" on="1"/>
        <pt x="227" y="670" on="1"/>
        <pt x="373" y="670" on="1"/>
        <pt x="368" y="537" on="1"/>
        <pt x="348" y="255" on="1"/>
        <pt x="252" y="255" on="1"/>
      </contour>
      <contour>
        <pt x="200" y="90" on="1"/>
        <pt x="200" y="135" on="0"/>
        <pt x="257" y="190" on="0"/>
        <pt x="300" y="190" on="1"/>
        <pt x="343" y="190" on="0"/>
        <pt x="400" y="135" on="0"/>
        <pt x="400" y="90" on="1"/>
        <pt x="400" y="45" on="0"/>
        <pt x="343" y="-12" on="0"/>
        <pt x="300" y="-12" on="1"/>
        <pt x="257" y="-12" on="0"/>
        <pt x="200" y="45" on="0"/>
      </contour>
    </TTGlyph>
    <TTGlyph name="exclamdown" xMin="200" yMin="-174" xMax="400" yMax="508">
      <contour>
        <pt x="368" y="-41" on="1"/>
        <pt x="373" y="-174" on="1"/>
        <pt x="227" y="-174" on="1"/>
        <pt x="232" y="-41" on="1"/>
        <pt x="252" y="241" on="1"/>
        <pt x="348" y="241" on="1"/>
      </contour>
      <contour>
        <pt x="400" y="406" on="1"/>
        <pt x="400" y="361" on="0"/>
        <pt x="343" y="306" on="0"/>
        <pt x="300" y="306" on="1"/>
        <pt x="257" y="306" on="0"/>
        <pt x="200" y="361" on="0"/>
        <pt x="200" y="406" on="1"/>
        <pt x="200" y="451" on="0"/>
        <pt x="257" y="508" on="0"/>
        <pt x="300" y="508" on="1"/>
        <pt x="343" y="508" on="0"/>
        <pt x="400" y="451" on="0"/>
      </contour>
    </TTGlyph>
    <TTGlyph name="f" xMin="82" yMin="0" xMax="585" yMax="713">
      <contour>
        <pt x="557" y="578" on="1"/>
        <pt x="508" y="597" on="0"/>
        <pt x="453" y="597" on="1"/>
        <pt x="405" y="597" on="0"/>
        <pt x="360" y="555" on="0"/>
        <pt x="360" y="510" on="1"/>
        <pt x="360" y="496" on="1"/>
        <pt x="531" y="496" on="1"/>
        <pt x="531" y="381" on="1"/>
        <pt x="360" y="381" on="1"/>
        <pt x="360" y="0" on="1"/>
        <pt x="213" y="0" on="1"/>
        <pt x="213" y="381" on="1"/>
        <pt x="82" y="381" on="1"/>
        <pt x="82" y="490" on="1"/>
        <pt x="213" y="496" on="1"/>
        <pt x="213" y="509" on="1"/>
        <pt x="213" y="552" on="0"/>
        <pt x="239" y="626" on="0"/>
        <pt x="293" y="681" on="0"/>
        <pt x="377" y="713" on="0"/>
        <pt x="435" y="713" on="1"/>
        <pt x="478" y="713" on="0"/>
        <pt x="553" y="697" on="0"/>
        <pt x="585" y="686" on="1"/>
      </contour>
    </TTGlyph>
    <TTGlyph name="f.sups" xMin="183" yMin="260" xMax="508" yMax="730">
      <contour>
        <pt x="488" y="637" on="1"/>
        <pt x="474" y="642" on="0"/>
        <pt x="439" y="649" on="0"/>
        <pt x="420" y="649" on="1"/>
        <pt x="360" y="649" on="0"/>
        <pt x="360" y="598" on="1"/>
        <pt x="360" y="589" on="1"/>
        <pt x="471" y="589" on="1"/>
        <pt x="471" y="508" on="1"/>
        <pt x="360" y="508" on="1"/>
        <pt x="360" y="260" on="1"/>
        <pt x="257" y="260" on="1"/>
        <pt x="257" y="508" on="1"/>
        <pt x="183" y="508" on="1"/>
        <pt x="183" y="585" on="1"/>
        <pt x="257" y="589" on="1"/>
        <pt x="257" y="598" on="1"/>
        <pt x="257" y="626" on="0"/>
        <pt x="274" y="674" on="0"/>
        <pt x="311" y="710" on="0"/>
        <pt x="368" y="730" on="0"/>
        <pt x="407" y="730" on="1"/>
        <pt x="436" y="730" on="0"/>
        <pt x="487" y="719" on="0"/>
        <pt x="508" y="712" on="1"/>
      </contour>
    </TTGlyph>
    <TTGlyph name="fi" xMin="7" yMin="0" xMax="581" yMax="753">
      <contour>
        <pt x="73" y="522" on="1"/>
        <pt x="73" y="561" on="0"/>
        <pt x="92" y="631" on="0"/>
        <pt x="136" y="683" on="0"/>
        <pt x="206" y="713" on="0"/>
        <pt x="256" y="713" on="1"/>
        <pt x="287" y="713" on="0"/>
        <pt x="338" y="701" on="0"/>
        <pt x="355" y="695" on="1"/>
        <pt x="328" y="587" on="1"/>
        <pt x="316" y="592" on="0"/>
        <pt x="289" y="597" on="0"/>
        <pt x="277" y="597" on="1"/>
        <pt x="250" y="597" on="0"/>
        <pt x="220" y="564" on="0"/>
        <pt x="220" y="526" on="1"/>
        <pt x="220" y="496" on="1"/>
        <pt x="310" y="496" on="1"/>
        <pt x="310" y="381" on="1"/>
        <pt x="220" y="381" on="1"/>
        <pt x="220" y="0" on="1"/>
        <pt x="73" y="0" on="1"/>
        <pt x="73" y="381" on="1"/>
        <pt x="7" y="381" on="1"/>
        <pt x="7" y="490" on="1"/>
        <pt x="73" y="495" on="1"/>
      </contour>
      <contour>
        <pt x="407" y="496" on="1"/>
        <pt x="554" y="496" on="1"/>
        <pt x="554" y="0" on="1"/>
        <pt x="407" y="0" on="1"/>
      </contour>
      <contour>
        <pt x="479" y="753" on="1"/>
        <pt x="524" y="753" on="0"/>
        <pt x="581" y="702" on="0"/>
        <pt x="581" y="661" on="1"/>
        <pt x="581" y="620" on="0"/>
        <pt x="524" y="569" on="0"/>
        <pt x="479" y="569" on="1"/>
        <pt x="435" y="569" on="0"/>
        <pt x="378" y="620" on="0"/>
        <pt x="378" y="661" on="1"/>
        <pt x="378" y="702" on="0"/>
        <pt x="435" y="753" on="0"/>
      </contour>
    </TTGlyph>
    <TTGlyph name="figuredash" xMin="80" yMin="199" xMax="520" yMax="310">
      <contour>
        <pt x="80" y="310" on="1"/>
        <pt x="520" y="310" on="1"/>
        <pt x="520" y="199" on="1"/>
        <pt x="80" y="199" on="1"/>
      </contour>
    </TTGlyph>
    <TTGlyph name="five" xMin="46" yMin="-12" xMax="532" yMax="635">
      <contour>
        <pt x="112" y="170" on="1"/>
        <pt x="144" y="144" on="0"/>
        <pt x="217" y="107" on="0"/>
        <pt x="262" y="107" on="1"/>
        <pt x="316" y="107" on="0"/>
        <pt x="385" y="157" on="0"/>
        <pt x="385" y="206" on="1"/>
        <pt x="385" y="254" on="0"/>
        <pt x="320" y="304" on="0"/>
        <pt x="269" y="304" on="1"/>
        <pt x="253" y="304" on="0"/>
        <pt x="228" y="301" on="0"/>
        <pt x="204" y="293" on="0"/>
        <pt x="178" y="281" on="0"/>
        <pt x="162" y="272" on="1"/>
        <pt x="97" y="314" on="1"/>
        <pt x="114" y="635" on="1"/>
        <pt x="503" y="635" on="1"/>
        <pt x="503" y="511" on="1"/>
        <pt x="241" y="511" on="1"/>
        <pt x="230" y="392" on="1"/>
        <pt x="252" y="400" on="0"/>
        <pt x="290" y="407" on="0"/>
        <pt x="314" y="407" on="1"/>
        <pt x="358" y="407" on="0"/>
        <pt x="437" y="383" on="0"/>
        <pt x="497" y="335" on="0"/>
        <pt x="532" y="261" on="0"/>
        <pt x="532" y="210" on="1"/>
        <pt x="532" y="157" on="0"/>
        <pt x="491" y="75" on="0"/>
        <pt x="422" y="18" on="0"/>
        <pt x="332" y="-12" on="0"/>
        <pt x="283" y="-12" on="1"/>
        <pt x="200" y="-12" on="0"/>
        <pt x="85" y="39" on="0"/>
        <pt x="46" y="77" on="1"/>
      </contour>
    </TTGlyph>
    <TTGlyph name="five.dnom" xMin="165" yMin="-12" xMax="436" yMax="312">
      <contour>
        <pt x="206" y="96" on="1"/>
        <pt x="223" y="85" on="0"/>
        <pt x="266" y="67" on="0"/>
        <pt x="288" y="67" on="1"/>
        <pt x="306" y="67" on="0"/>
        <pt x="332" y="85" on="0"/>
        <pt x="332" y="102" on="1"/>
        <pt x="332" y="120" on="0"/>
        <pt x="307" y="138" on="0"/>
        <pt x="288" y="138" on="1"/>
        <pt x="273" y="138" on="0"/>
        <pt x="251" y="130" on="0"/>
        <pt x="237" y="122" on="1"/>
        <pt x="194" y="151" on="1"/>
        <pt x="208" y="312" on="1"/>
        <pt x="421" y="312" on="1"/>
        <pt x="421" y="224" on="1"/>
        <pt x="288" y="224" on="1"/>
        <pt x="284" y="189" on="1"/>
        <pt x="292" y="192" on="0"/>
        <pt x="316" y="195" on="0"/>
        <pt x="327" y="195" on="1"/>
        <pt x="377" y="195" on="0"/>
        <pt x="436" y="144" on="0"/>
        <pt x="436" y="98" on="1"/>
        <pt x="436" y="75" on="0"/>
        <pt x="416" y="35" on="0"/>
        <pt x="380" y="5" on="0"/>
        <pt x="331" y="-12" on="0"/>
        <pt x="302" y="-12" on="1"/>
        <pt x="268" y="-12" on="0"/>
        <pt x="200" y="4" on="0"/>
        <pt x="165" y="30" on="1"/>
      </contour>
    </TTGlyph>
    <TTGlyph name="five.numr" xMin="165" yMin="312" xMax="436" yMax="636">
      <component glyphName="five.dnom" x="0" y="324" flags="0x204"/>
    </TTGlyph>
    <TTGlyph name="five.onum" xMin="46" yMin="-90" xMax="532" yMax="578">
      <contour>
        <pt x="112" y="92" on="1"/>
        <pt x="144" y="66" on="0"/>
        <pt x="217" y="28" on="0"/>
        <pt x="262" y="28" on="1"/>
        <pt x="316" y="28" on="0"/>
        <pt x="385" y="82" on="0"/>
        <pt x="385" y="136" on="1"/>
        <pt x="385" y="189" on="0"/>
        <pt x="320" y="239" on="0"/>
        <pt x="269" y="239" on="1"/>
        <pt x="253" y="239" on="0"/>
        <pt x="228" y="236" on="0"/>
        <pt x="204" y="228" on="0"/>
        <pt x="178" y="216" on="0"/>
        <pt x="162" y="207" on="1"/>
        <pt x="97" y="249" on="1"/>
        <pt x="114" y="578" on="1"/>
        <pt x="503" y="578" on="1"/>
        <pt x="503" y="455" on="1"/>
        <pt x="241" y="455" on="1"/>
        <pt x="230" y="327" on="1"/>
        <pt x="252" y="336" on="0"/>
        <pt x="290" y="342" on="0"/>
        <pt x="314" y="342" on="1"/>
        <pt x="358" y="342" on="0"/>
        <pt x="437" y="319" on="0"/>
        <pt x="497" y="269" on="0"/>
        <pt x="532" y="193" on="0"/>
        <pt x="532" y="140" on="1"/>
        <pt x="532" y="85" on="0"/>
        <pt x="491" y="0" on="0"/>
        <pt x="422" y="-59" on="0"/>
        <pt x="332" y="-90" on="0"/>
        <pt x="283" y="-90" on="1"/>
        <pt x="200" y="-90" on="0"/>
        <pt x="85" y="-39" on="0"/>
        <pt x="46" y="-1" on="1"/>
      </contour>
    </TTGlyph>
    <TTGlyph name="five.subs" xMin="165" yMin="-181" xMax="436" yMax="143">
      <component glyphName="five.dnom" x="0" y="-169" flags="0x204"/>
    </TTGlyph>
    <TTGlyph name="five.sups" xMin="165" yMin="428" xMax="436" yMax="752">
      <component glyphName="five.dnom" x="0" y="440" flags="0x204"/>
    </TTGlyph>
    <TTGlyph name="fiveeighths" xMin="17" yMin="-12" xMax="583" yMax="636">
      <component glyphName="five.dnom" x="-126" y="324" flags="0x204"/>
      <component glyphName="fraction" x="0" y="0" flags="0x4"/>
      <component glyphName="eight.dnom" x="128" y="0" flags="0x4"/>
    </TTGlyph>
    <TTGlyph name="fl" xMin="11" yMin="-12" xMax="602" yMax="713">
      <contour>
        <pt x="77" y="522" on="1"/>
        <pt x="77" y="561" on="0"/>
        <pt x="96" y="631" on="0"/>
        <pt x="140" y="683" on="0"/>
        <pt x="210" y="713" on="0"/>
        <pt x="260" y="713" on="1"/>
        <pt x="291" y="713" on="0"/>
        <pt x="342" y="701" on="0"/>
        <pt x="359" y="695" on="1"/>
        <pt x="332" y="587" on="1"/>
        <pt x="320" y="592" on="0"/>
        <pt x="293" y="597" on="0"/>
        <pt x="281" y="597" on="1"/>
        <pt x="254" y="597" on="0"/>
        <pt x="224" y="564" on="0"/>
        <pt x="224" y="526" on="1"/>
        <pt x="224" y="496" on="1"/>
        <pt x="314" y="496" on="1"/>
        <pt x="314" y="381" on="1"/>
        <pt x="224" y="381" on="1"/>
        <pt x="224" y="0" on="1"/>
        <pt x="77" y="0" on="1"/>
        <pt x="77" y="381" on="1"/>
        <pt x="11" y="381" on="1"/>
        <pt x="11" y="490" on="1"/>
        <pt x="77" y="495" on="1"/>
      </contour>
      <contour>
        <pt x="602" y="0" on="1"/>
        <pt x="590" y="-5" on="0"/>
        <pt x="554" y="-12" on="0"/>
        <pt x="528" y="-12" on="1"/>
        <pt x="490" y="-12" on="0"/>
        <pt x="438" y="12" on="0"/>
        <pt x="407" y="55" on="0"/>
        <pt x="393" y="116" on="0"/>
        <pt x="393" y="154" on="1"/>
        <pt x="393" y="701" on="1"/>
        <pt x="540" y="701" on="1"/>
        <pt x="540" y="148" on="1"/>
        <pt x="540" y="125" on="0"/>
        <pt x="558" y="107" on="0"/>
        <pt x="567" y="107" on="1"/>
        <pt x="571" y="107" on="0"/>
        <pt x="578" y="107" on="0"/>
        <pt x="585" y="109" on="1"/>
      </contour>
    </TTGlyph>
    <TTGlyph name="four" xMin="35" yMin="0" xMax="558" yMax="635">
      <contour>
        <pt x="341" y="264" on="1"/>
        <pt x="341" y="371" on="1"/>
        <pt x="341" y="401" on="0"/>
        <pt x="344" y="480" on="0"/>
        <pt x="346" y="510" on="1"/>
        <pt x="342" y="510" on="1"/>
        <pt x="326" y="483" on="0"/>
        <pt x="290" y="429" on="0"/>
        <pt x="273" y="402" on="1"/>
        <pt x="177" y="264" on="1"/>
      </contour>
      <contour>
        <pt x="558" y="152" on="1"/>
        <pt x="478" y="152" on="1"/>
        <pt x="478" y="0" on="1"/>
        <pt x="341" y="0" on="1"/>
        <pt x="341" y="152" on="1"/>
        <pt x="35" y="152" on="1"/>
        <pt x="35" y="253" on="1"/>
        <pt x="300" y="635" on="1"/>
        <pt x="478" y="635" on="1"/>
        <pt x="478" y="264" on="1"/>
        <pt x="558" y="264" on="1"/>
      </contour>
    </TTGlyph>
    <TTGlyph name="four.dnom" xMin="161" yMin="0" xMax="466" yMax="312">
      <contour>
        <pt x="321" y="127" on="1"/>
        <pt x="321" y="149" on="1"/>
        <pt x="327" y="248" on="1"/>
        <pt x="323" y="248" on="1"/>
        <pt x="289" y="186" on="1"/>
        <pt x="256" y="127" on="1"/>
      </contour>
      <contour>
        <pt x="466" y="61" on="1"/>
        <pt x="415" y="61" on="1"/>
        <pt x="415" y="0" on="1"/>
        <pt x="321" y="0" on="1"/>
        <pt x="321" y="61" on="1"/>
        <pt x="161" y="61" on="1"/>
        <pt x="161" y="112" on="1"/>
        <pt x="281" y="312" on="1"/>
        <pt x="415" y="312" on="1"/>
        <pt x="415" y="127" on="1"/>
        <pt x="466" y="127" on="1"/>
      </contour>
    </TTGlyph>
    <TTGlyph name="four.numr" xMin="161" yMin="324" xMax="466" yMax="636">
      <component glyphName="four.dnom" x="0" y="324" flags="0x204"/>
    </TTGlyph>
    <TTGlyph name="four.onum" xMin="35" yMin="-78" xMax="558" yMax="578">
      <contour>
        <pt x="341" y="195" on="1"/>
        <pt x="341" y="314" on="1"/>
        <pt x="341" y="345" on="0"/>
        <pt x="344" y="423" on="0"/>
        <pt x="346" y="454" on="1"/>
        <pt x="342" y="454" on="1"/>
        <pt x="326" y="426" on="0"/>
        <pt x="291" y="371" on="0"/>
        <pt x="274" y="344" on="1"/>
        <pt x="177" y="195" on="1"/>
      </contour>
      <contour>
        <pt x="558" y="83" on="1"/>
        <pt x="478" y="83" on="1"/>
        <pt x="478" y="-78" on="1"/>
        <pt x="341" y="-78" on="1"/>
        <pt x="341" y="83" on="1"/>
        <pt x="35" y="83" on="1"/>
        <pt x="35" y="184" on="1"/>
        <pt x="300" y="578" on="1"/>
        <pt x="478" y="578" on="1"/>
        <pt x="478" y="195" on="1"/>
        <pt x="558" y="195" on="1"/>
      </contour>
    </TTGlyph>
    <TTGlyph name="four.subs" xMin="161" yMin="-169" xMax="466" yMax="143">
      <component glyphName="four.dnom" x="0" y="-169" flags="0x204"/>
    </TTGlyph>
    <TTGlyph name="four.sups" xMin="161" yMin="440" xMax="466" yMax="752">
      <component glyphName="four.dnom" x="0" y="440" flags="0x204"/>
    </TTGlyph>
    <TTGlyph name="fraction" xMin="17" yMin="28" xMax="583" yMax="624">
      <contour>
        <pt x="17" y="101" on="1"/>
        <pt x="203" y="274" on="1"/>
        <pt x="254" y="227" on="1"/>
        <pt x="92" y="28" on="1"/>
      </contour>
      <contour>
        <pt x="583" y="551" on="1"/>
        <pt x="397" y="377" on="1"/>
        <pt x="346" y="425" on="1"/>
        <pt x="508" y="624" on="1"/>
      </contour>
    </TTGlyph>
    <TTGlyph name="g" xMin="52" yMin="-211" xMax="572" yMax="508">
      <contour>
        <pt x="172" y="-62" on="1"/>
        <pt x="172" y="-90" on="0"/>
        <pt x="239" y="-119" on="0"/>
        <pt x="298" y="-119" on="1"/>
        <pt x="358" y="-119" on="0"/>
        <pt x="432" y="-84" on="0"/>
        <pt x="432" y="-58" on="1"/>
        <pt x="432" y="-34" on="0"/>
        <pt x="388" y="-19" on="0"/>
        <pt x="345" y="-19" on="1"/>
        <pt x="283" y="-19" on="1"/>
        <pt x="256" y="-19" on="0"/>
        <pt x="221" y="-16" on="0"/>
        <pt x="207" y="-13" on="1"/>
        <pt x="188" y="-25" on="0"/>
        <pt x="172" y="-48" on="0"/>
      </contour>
      <contour>
        <pt x="52" y="-84" on="1"/>
        <pt x="52" y="-23" on="0"/>
        <pt x="129" y="15" on="1"/>
        <pt x="129" y="19" on="1"/>
        <pt x="109" y="32" on="0"/>
        <pt x="79" y="72" on="0"/>
        <pt x="79" y="104" on="1"/>
        <pt x="79" y="129" on="0"/>
        <pt x="112" y="179" on="0"/>
        <pt x="138" y="197" on="1"/>
        <pt x="138" y="201" on="1"/>
        <pt x="111" y="219" on="0"/>
        <pt x="73" y="284" on="0"/>
        <pt x="73" y="328" on="1"/>
        <pt x="73" y="373" on="0"/>
        <pt x="108" y="440" on="0"/>
        <pt x="166" y="485" on="0"/>
        <pt x="243" y="508" on="0"/>
        <pt x="285" y="508" on="1"/>
        <pt x="331" y="508" on="0"/>
        <pt x="367" y="496" on="1"/>
        <pt x="568" y="496" on="1"/>
        <pt x="568" y="389" on="1"/>
        <pt x="467" y="389" on="1"/>
        <pt x="476" y="378" on="0"/>
        <pt x="490" y="343" on="0"/>
        <pt x="490" y="323" on="1"/>
        <pt x="490" y="280" on="0"/>
        <pt x="458" y="218" on="0"/>
        <pt x="403" y="177" on="0"/>
        <pt x="328" y="157" on="0"/>
        <pt x="285" y="157" on="1"/>
        <pt x="253" y="157" on="0"/>
        <pt x="217" y="167" on="1"/>
        <pt x="206" y="159" on="0"/>
        <pt x="195" y="143" on="0"/>
        <pt x="195" y="131" on="1"/>
        <pt x="195" y="111" on="0"/>
        <pt x="235" y="93" on="0"/>
        <pt x="279" y="93" on="1"/>
        <pt x="371" y="93" on="1"/>
        <pt x="469" y="93" on="0"/>
        <pt x="572" y="35" on="0"/>
        <pt x="572" y="-32" on="1"/>
        <pt x="572" y="-71" on="0"/>
        <pt x="530" y="-137" on="0"/>
        <pt x="454" y="-184" on="0"/>
        <pt x="344" y="-211" on="0"/>
        <pt x="277" y="-211" on="1"/>
        <pt x="229" y="-211" on="0"/>
        <pt x="146" y="-196" on="0"/>
        <pt x="86" y="-165" on="0"/>
        <pt x="52" y="-117" on="0"/>
      </contour>
      <contour>
        <pt x="285" y="246" on="1"/>
        <pt x="316" y="246" on="0"/>
        <pt x="361" y="287" on="0"/>
        <pt x="361" y="328" on="1"/>
        <pt x="361" y="368" on="0"/>
        <pt x="316" y="409" on="0"/>
        <pt x="285" y="409" on="1"/>
        <pt x="254" y="409" on="0"/>
        <pt x="211" y="368" on="0"/>
        <pt x="211" y="328" on="1"/>
        <pt x="211" y="287" on="0"/>
        <pt x="254" y="246" on="0"/>
      </contour>
    </TTGlyph>
    <TTGlyph name="g.a" xMin="47" yMin="-196" xMax="528" yMax="508">
      <component glyphName="uni0261" x="0" y="0" flags="0x204"/>
    </TTGlyph>
    <TTGlyph name="g.supa" xMin="128" yMin="134" xMax="452" yMax="597">
      <contour>
        <pt x="184" y="237" on="1"/>
        <pt x="207" y="225" on="0"/>
        <pt x="257" y="213" on="0"/>
        <pt x="277" y="213" on="1"/>
        <pt x="313" y="213" on="0"/>
        <pt x="347" y="241" on="0"/>
        <pt x="349" y="263" on="1"/>
        <pt x="351" y="301" on="1"/>
        <pt x="334" y="286" on="0"/>
        <pt x="290" y="269" on="0"/>
        <pt x="267" y="269" on="1"/>
        <pt x="236" y="269" on="0"/>
        <pt x="185" y="293" on="0"/>
        <pt x="148" y="336" on="0"/>
        <pt x="128" y="395" on="0"/>
        <pt x="128" y="430" on="1"/>
        <pt x="128" y="467" on="0"/>
        <pt x="153" y="529" on="0"/>
        <pt x="194" y="573" on="0"/>
        <pt x="246" y="597" on="0"/>
        <pt x="272" y="597" on="1"/>
        <pt x="296" y="597" on="0"/>
        <pt x="340" y="578" on="0"/>
        <pt x="359" y="558" on="1"/>
        <pt x="361" y="558" on="1"/>
        <pt x="369" y="589" on="1"/>
        <pt x="452" y="589" on="1"/>
        <pt x="452" y="265" on="1"/>
        <pt x="452" y="201" on="0"/>
        <pt x="361" y="134" on="0"/>
        <pt x="277" y="134" on="1"/>
        <pt x="250" y="134" on="0"/>
        <pt x="178" y="151" on="0"/>
        <pt x="149" y="170" on="1"/>
      </contour>
      <contour>
        <pt x="295" y="351" on="1"/>
        <pt x="310" y="351" on="0"/>
        <pt x="337" y="364" on="0"/>
        <pt x="349" y="380" on="1"/>
        <pt x="349" y="493" on="1"/>
        <pt x="336" y="504" on="0"/>
        <pt x="307" y="513" on="0"/>
        <pt x="293" y="513" on="1"/>
        <pt x="270" y="513" on="0"/>
        <pt x="234" y="472" on="0"/>
        <pt x="234" y="431" on="1"/>
        <pt x="234" y="393" on="0"/>
        <pt x="268" y="351" on="0"/>
      </contour>
    </TTGlyph>
    <TTGlyph name="g.sups" xMin="133" yMin="122" xMax="484" yMax="597">
      <contour>
        <pt x="218" y="221" on="1"/>
        <pt x="218" y="203" on="0"/>
        <pt x="262" y="186" on="0"/>
        <pt x="299" y="186" on="1"/>
        <pt x="337" y="186" on="0"/>
        <pt x="386" y="207" on="0"/>
        <pt x="386" y="223" on="1"/>
        <pt x="386" y="237" on="0"/>
        <pt x="356" y="246" on="0"/>
        <pt x="329" y="246" on="1"/>
        <pt x="289" y="246" on="1"/>
        <pt x="271" y="246" on="0"/>
        <pt x="248" y="248" on="0"/>
        <pt x="239" y="250" on="1"/>
        <pt x="218" y="237" on="0"/>
      </contour>
      <contour>
        <pt x="133" y="205" on="1"/>
        <pt x="133" y="244" on="0"/>
        <pt x="185" y="270" on="1"/>
        <pt x="185" y="273" on="1"/>
        <pt x="171" y="281" on="0"/>
        <pt x="151" y="308" on="0"/>
        <pt x="151" y="329" on="1"/>
        <pt x="151" y="345" on="0"/>
        <pt x="173" y="378" on="0"/>
        <pt x="192" y="390" on="1"/>
        <pt x="192" y="392" on="1"/>
        <pt x="172" y="405" on="0"/>
        <pt x="147" y="448" on="0"/>
        <pt x="147" y="477" on="1"/>
        <pt x="147" y="507" on="0"/>
        <pt x="171" y="552" on="0"/>
        <pt x="210" y="582" on="0"/>
        <pt x="262" y="597" on="0"/>
        <pt x="290" y="597" on="1"/>
        <pt x="320" y="597" on="0"/>
        <pt x="346" y="589" on="1"/>
        <pt x="481" y="589" on="1"/>
        <pt x="481" y="514" on="1"/>
        <pt x="416" y="514" on="1"/>
        <pt x="421" y="507" on="0"/>
        <pt x="429" y="485" on="0"/>
        <pt x="429" y="474" on="1"/>
        <pt x="429" y="445" on="0"/>
        <pt x="408" y="403" on="0"/>
        <pt x="370" y="376" on="0"/>
        <pt x="320" y="363" on="0"/>
        <pt x="290" y="363" on="1"/>
        <pt x="280" y="363" on="0"/>
        <pt x="259" y="367" on="0"/>
        <pt x="246" y="370" on="1"/>
        <pt x="239" y="365" on="0"/>
        <pt x="233" y="356" on="0"/>
        <pt x="233" y="348" on="1"/>
        <pt x="233" y="335" on="0"/>
        <pt x="258" y="324" on="0"/>
        <pt x="287" y="324" on="1"/>
        <pt x="347" y="324" on="1"/>
        <pt x="413" y="324" on="0"/>
        <pt x="484" y="286" on="0"/>
        <pt x="484" y="241" on="1"/>
        <pt x="484" y="188" on="0"/>
        <pt x="376" y="122" on="0"/>
        <pt x="284" y="122" on="1"/>
        <pt x="252" y="122" on="0"/>
        <pt x="196" y="131" on="0"/>
        <pt x="156" y="151" on="0"/>
        <pt x="133" y="183" on="0"/>
      </contour>
      <contour>
        <pt x="290" y="426" on="1"/>
        <pt x="310" y="426" on="0"/>
        <pt x="338" y="451" on="0"/>
        <pt x="338" y="477" on="1"/>
        <pt x="338" y="502" on="0"/>
        <pt x="310" y="528" on="0"/>
        <pt x="290" y="528" on="1"/>
        <pt x="271" y="528" on="0"/>
        <pt x="244" y="502" on="0"/>
        <pt x="244" y="477" on="1"/>
        <pt x="244" y="451" on="0"/>
        <pt x="271" y="426" on="0"/>
      </contour>
    </TTGlyph>
    <TTGlyph name="gbreve" xMin="52" yMin="-211" xMax="572" yMax="730">
      <component glyphName="g" x="0" y="0" flags="0x204"/>
      <component glyphName="uni0306" x="4" y="0" flags="0x4"/>
    </TTGlyph>
    <TTGlyph name="gbreve.a" xMin="47" yMin="-196" xMax="528" yMax="730">
      <component glyphName="uni0261" x="0" y="0" flags="0x204"/>
      <component glyphName="uni0306" x="9" y="0" flags="0x4"/>
    </TTGlyph>
    <TTGlyph name="gcaron" xMin="52" yMin="-211" xMax="572" yMax="741">
      <component glyphName="g" x="0" y="0" flags="0x204"/>
      <component glyphName="uni030C" x="4" y="0" flags="0x4"/>
    </TTGlyph>
    <TTGlyph name="gcaron.a" xMin="47" yMin="-196" xMax="528" yMax="741">
      <component glyphName="uni0261" x="0" y="0" flags="0x204"/>
      <component glyphName="uni030C" x="9" y="0" flags="0x4"/>
    </TTGlyph>
    <TTGlyph name="gcircumflex" xMin="52" yMin="-211" xMax="572" yMax="741">
      <component glyphName="g" x="0" y="0" flags="0x204"/>
      <component glyphName="uni0302" x="4" y="0" flags="0x4"/>
    </TTGlyph>
    <TTGlyph name="gcircumflex.a" xMin="47" yMin="-196" xMax="528" yMax="741">
      <component glyphName="uni0261" x="0" y="0" flags="0x204"/>
      <component glyphName="uni0302" x="9" y="0" flags="0x4"/>
    </TTGlyph>
    <TTGlyph name="gdotaccent" xMin="52" yMin="-211" xMax="572" yMax="750">
      <component glyphName="g" x="0" y="0" flags="0x204"/>
      <component glyphName="uni0307" x="4" y="0" flags="0x4"/>
    </TTGlyph>
    <TTGlyph name="gdotaccent.a" xMin="47" yMin="-196" xMax="528" yMax="750">
      <component glyphName="uni0261" x="0" y="0" flags="0x204"/>
      <component glyphName="uni0307" x="9" y="0" flags="0x4"/>
    </TTGlyph>
    <TTGlyph name="germandbls" xMin="61" yMin="-12" xMax="571" yMax="713">
      <contour>
        <pt x="61" y="495" on="1"/>
        <pt x="61" y="541" on="0"/>
        <pt x="89" y="621" on="0"/>
        <pt x="145" y="680" on="0"/>
        <pt x="231" y="713" on="0"/>
        <pt x="288" y="713" on="1"/>
        <pt x="336" y="713" on="0"/>
        <pt x="408" y="684" on="0"/>
        <pt x="454" y="637" on="0"/>
        <pt x="477" y="576" on="0"/>
        <pt x="477" y="544" on="1"/>
        <pt x="477" y="508" on="0"/>
        <pt x="458" y="459" on="0"/>
        <pt x="435" y="420" on="0"/>
        <pt x="416" y="387" on="0"/>
        <pt x="416" y="368" on="1"/>
        <pt x="416" y="351" on="0"/>
        <pt x="439" y="327" on="0"/>
        <pt x="473" y="303" on="0"/>
        <pt x="514" y="276" on="0"/>
        <pt x="548" y="239" on="0"/>
        <pt x="571" y="188" on="0"/>
        <pt x="571" y="152" on="1"/>
        <pt x="571" y="118" on="0"/>
        <pt x="549" y="58" on="0"/>
        <pt x="505" y="14" on="0"/>
        <pt x="440" y="-12" on="0"/>
        <pt x="397" y="-12" on="1"/>
        <pt x="355" y="-12" on="0"/>
        <pt x="292" y="7" on="0"/>
        <pt x="258" y="25" on="1"/>
        <pt x="307" y="125" on="1"/>
        <pt x="330" y="110" on="0"/>
        <pt x="372" y="97" on="0"/>
        <pt x="392" y="97" on="1"/>
        <pt x="412" y="97" on="0"/>
        <pt x="435" y="120" on="0"/>
        <pt x="435" y="140" on="1"/>
        <pt x="435" y="159" on="0"/>
        <pt x="412" y="187" on="0"/>
        <pt x="378" y="211" on="0"/>
        <pt x="337" y="237" on="0"/>
        <pt x="303" y="271" on="0"/>
        <pt x="280" y="317" on="0"/>
        <pt x="280" y="350" on="1"/>
        <pt x="280" y="380" on="0"/>
        <pt x="299" y="424" on="0"/>
        <pt x="321" y="464" on="0"/>
        <pt x="340" y="507" on="0"/>
        <pt x="340" y="536" on="1"/>
        <pt x="340" y="562" on="0"/>
        <pt x="312" y="597" on="0"/>
        <pt x="287" y="597" on="1"/>
        <pt x="246" y="597" on="0"/>
        <pt x="208" y="537" on="0"/>
        <pt x="208" y="486" on="1"/>
        <pt x="208" y="0" on="1"/>
        <pt x="61" y="0" on="1"/>
      </contour>
    </TTGlyph>
    <TTGlyph name="grave" xMin="143" yMin="574" xMax="382" yMax="741">
      <component glyphName="uni0300" x="0" y="0" flags="0x204"/>
    </TTGlyph>
    <TTGlyph name="greater" xMin="98" yMin="31" xMax="484" yMax="633">
      <contour>
        <pt x="484" y="281" on="1"/>
        <pt x="98" y="31" on="1"/>
        <pt x="98" y="164" on="1"/>
        <pt x="363" y="330" on="1"/>
        <pt x="363" y="334" on="1"/>
        <pt x="98" y="500" on="1"/>
        <pt x="98" y="633" on="1"/>
        <pt x="484" y="383" on="1"/>
      </contour>
    </TTGlyph>
    <TTGlyph name="greaterequal" xMin="70" yMin="0" xMax="530" yMax="560">
      <contour>
        <pt x="70" y="104" on="1"/>
        <pt x="530" y="104" on="1"/>
        <pt x="530" y="0" on="1"/>
        <pt x="70" y="0" on="1"/>
      </contour>
      <contour>
        <pt x="530" y="296" on="1"/>
        <pt x="70" y="154" on="1"/>
        <pt x="70" y="275" on="1"/>
        <pt x="242" y="321" on="1"/>
        <pt x="381" y="355" on="1"/>
        <pt x="381" y="359" on="1"/>
        <pt x="242" y="393" on="1"/>
        <pt x="70" y="439" on="1"/>
        <pt x="70" y="560" on="1"/>
        <pt x="530" y="418" on="1"/>
      </contour>
    </TTGlyph>
    <TTGlyph name="guillemotleft" xMin="43" yMin="25" xMax="541" yMax="479">
      <component glyphName="guilsinglleft" x="-132" y="0" flags="0x204"/>
      <component glyphName="guilsinglleft" x="133" y="0" flags="0x4"/>
    </TTGlyph>
    <TTGlyph name="guillemotright" xMin="60" yMin="25" xMax="558" yMax="479">
      <component glyphName="guilsinglright" x="-132" y="0" flags="0x204"/>
      <component glyphName="guilsinglright" x="133" y="0" flags="0x4"/>
    </TTGlyph>
    <TTGlyph name="guilsinglleft" xMin="175" yMin="25" xMax="408" yMax="479">
      <contour>
        <pt x="175" y="179" on="1"/>
        <pt x="175" y="325" on="1"/>
        <pt x="346" y="479" on="1"/>
        <pt x="408" y="424" on="1"/>
        <pt x="281" y="252" on="1"/>
        <pt x="408" y="80" on="1"/>
        <pt x="346" y="25" on="1"/>
      </contour>
    </TTGlyph>
    <TTGlyph name="guilsinglright" xMin="192" yMin="25" xMax="425" yMax="479">
      <contour>
        <pt x="319" y="252" on="1"/>
        <pt x="192" y="424" on="1"/>
        <pt x="254" y="479" on="1"/>
        <pt x="425" y="325" on="1"/>
        <pt x="425" y="179" on="1"/>
        <pt x="254" y="25" on="1"/>
        <pt x="192" y="80" on="1"/>
      </contour>
    </TTGlyph>
    <TTGlyph name="h" xMin="72" yMin="0" xMax="540" yMax="701">
      <contour>
        <pt x="72" y="701" on="1"/>
        <pt x="219" y="701" on="1"/>
        <pt x="219" y="529" on="1"/>
        <pt x="211" y="434" on="1"/>
        <pt x="226" y="448" on="0"/>
        <pt x="261" y="475" on="0"/>
        <pt x="302" y="496" on="0"/>
        <pt x="351" y="508" on="0"/>
        <pt x="379" y="508" on="1"/>
        <pt x="463" y="508" on="0"/>
        <pt x="540" y="400" on="0"/>
        <pt x="540" y="306" on="1"/>
        <pt x="540" y="0" on="1"/>
        <pt x="393" y="0" on="1"/>
        <pt x="393" y="287" on="1"/>
        <pt x="393" y="337" on="0"/>
        <pt x="361" y="383" on="0"/>
        <pt x="320" y="383" on="1"/>
        <pt x="290" y="383" on="0"/>
        <pt x="245" y="357" on="0"/>
        <pt x="219" y="331" on="1"/>
        <pt x="219" y="0" on="1"/>
        <pt x="72" y="0" on="1"/>
      </contour>
    </TTGlyph>
    <TTGlyph name="h.sups" xMin="156" yMin="260" xMax="469" yMax="722">
      <contour>
        <pt x="156" y="722" on="1"/>
        <pt x="260" y="722" on="1"/>
        <pt x="260" y="610" on="1"/>
        <pt x="255" y="550" on="1"/>
        <pt x="273" y="567" on="0"/>
        <pt x="326" y="597" on="0"/>
        <pt x="362" y="597" on="1"/>
        <pt x="419" y="597" on="0"/>
        <pt x="469" y="525" on="0"/>
        <pt x="469" y="463" on="1"/>
        <pt x="469" y="260" on="1"/>
        <pt x="365" y="260" on="1"/>
        <pt x="365" y="450" on="1"/>
        <pt x="365" y="481" on="0"/>
        <pt x="345" y="509" on="0"/>
        <pt x="320" y="509" on="1"/>
        <pt x="302" y="509" on="0"/>
        <pt x="276" y="493" on="0"/>
        <pt x="260" y="479" on="1"/>
        <pt x="260" y="260" on="1"/>
        <pt x="156" y="260" on="1"/>
      </contour>
    </TTGlyph>
    <TTGlyph name="hbar" xMin="6" yMin="0" xMax="540" yMax="701">
      <contour>
        <pt x="211" y="414" on="1"/>
        <pt x="226" y="428" on="0"/>
        <pt x="261" y="455" on="0"/>
        <pt x="302" y="476" on="0"/>
        <pt x="351" y="488" on="0"/>
        <pt x="379" y="488" on="1"/>
        <pt x="463" y="488" on="0"/>
        <pt x="540" y="380" on="0"/>
        <pt x="540" y="286" on="1"/>
        <pt x="540" y="0" on="1"/>
        <pt x="393" y="0" on="1"/>
        <pt x="393" y="267" on="1"/>
        <pt x="393" y="317" on="0"/>
        <pt x="361" y="363" on="0"/>
        <pt x="320" y="363" on="1"/>
        <pt x="290" y="363" on="0"/>
        <pt x="245" y="337" on="0"/>
        <pt x="219" y="311" on="1"/>
        <pt x="219" y="0" on="1"/>
        <pt x="72" y="0" on="1"/>
        <pt x="72" y="556" on="1"/>
        <pt x="6" y="556" on="1"/>
        <pt x="6" y="621" on="1"/>
        <pt x="72" y="626" on="1"/>
        <pt x="72" y="701" on="1"/>
        <pt x="219" y="701" on="1"/>
        <pt x="219" y="627" on="1"/>
        <pt x="401" y="627" on="1"/>
        <pt x="401" y="556" on="1"/>
        <pt x="219" y="556" on="1"/>
        <pt x="219" y="509" on="1"/>
      </contour>
    </TTGlyph>
    <TTGlyph name="hcircumflex" xMin="-18" yMin="0" xMax="540" yMax="870">
      <component glyphName="h" x="0" y="0" flags="0x204"/>
      <component glyphName="uni0302.cap" x="-150" y="48" flags="0x4"/>
    </TTGlyph>
    <TTGlyph name="hungarumlaut" xMin="175" yMin="573" xMax="531" yMax="724">
      <component glyphName="uni030B" x="0" y="0" flags="0x204"/>
    </TTGlyph>
    <TTGlyph name="hyphen" xMin="70" yMin="278" xMax="530" yMax="382">
      <component glyphName="minus" x="0" y="0" flags="0x204"/>
    </TTGlyph>
    <TTGlyph name="hyphen.a" xMin="124" yMin="199" xMax="476" yMax="310">
      <contour>
        <pt x="124" y="310" on="1"/>
        <pt x="476" y="310" on="1"/>
        <pt x="476" y="199" on="1"/>
        <pt x="124" y="199" on="1"/>
      </contour>
    </TTGlyph>
    <TTGlyph name="i" xMin="79" yMin="0" xMax="443" yMax="750">
      <contour>
        <pt x="79" y="496" on="1"/>
        <pt x="425" y="496" on="1"/>
        <pt x="425" y="0" on="1"/>
        <pt x="278" y="0" on="1"/>
        <pt x="278" y="381" on="1"/>
        <pt x="79" y="381" on="1"/>
      </contour>
      <contour>
        <pt x="345" y="569" on="1"/>
        <pt x="302" y="569" on="0"/>
        <pt x="247" y="617" on="0"/>
        <pt x="247" y="658" on="1"/>
        <pt x="247" y="699" on="0"/>
        <pt x="302" y="750" on="0"/>
        <pt x="345" y="750" on="1"/>
        <pt x="388" y="750" on="0"/>
        <pt x="443" y="699" on="0"/>
        <pt x="443" y="658" on="1"/>
        <pt x="443" y="617" on="0"/>
        <pt x="388" y="569" on="0"/>
      </contour>
    </TTGlyph>
    <TTGlyph name="i.sups" xMin="169" yMin="260" xMax="413" yMax="758">
      <contour>
        <pt x="169" y="589" on="1"/>
        <pt x="398" y="589" on="1"/>
        <pt x="398" y="260" on="1"/>
        <pt x="294" y="260" on="1"/>
        <pt x="294" y="508" on="1"/>
        <pt x="169" y="508" on="1"/>
      </contour>
      <contour>
        <pt x="345" y="634" on="1"/>
        <pt x="315" y="634" on="0"/>
        <pt x="277" y="667" on="0"/>
        <pt x="277" y="696" on="1"/>
        <pt x="277" y="723" on="0"/>
        <pt x="315" y="758" on="0"/>
        <pt x="345" y="758" on="1"/>
        <pt x="374" y="758" on="0"/>
        <pt x="413" y="723" on="0"/>
        <pt x="413" y="696" on="1"/>
        <pt x="413" y="667" on="0"/>
        <pt x="374" y="634" on="0"/>
      </contour>
    </TTGlyph>
    <TTGlyph name="iacute" xMin="79" yMin="0" xMax="502" yMax="741">
      <component glyphName="dotlessi" x="0" y="0" flags="0x204"/>
      <component glyphName="uni0301" x="45" y="0" flags="0x4"/>
    </TTGlyph>
    <TTGlyph name="icircumflex" xMin="79" yMin="0" xMax="507" yMax="741">
      <component glyphName="dotlessi" x="0" y="0" flags="0x204"/>
      <component glyphName="uni0302" x="45" y="0" flags="0x4"/>
    </TTGlyph>
    <TTGlyph name="idieresis" xMin="79" yMin="0" xMax="533" yMax="728">
      <component glyphName="dotlessi" x="0" y="0" flags="0x204"/>
      <component glyphName="uni0308" x="45" y="0" flags="0x4"/>
    </TTGlyph>
    <TTGlyph name="igrave" xMin="79" yMin="0" xMax="427" yMax="741">
      <component glyphName="dotlessi" x="0" y="0" flags="0x204"/>
      <component glyphName="uni0300" x="45" y="0" flags="0x4"/>
    </TTGlyph>
    <TTGlyph name="imacron" xMin="79" yMin="0" xMax="483" yMax="685">
      <component glyphName="dotlessi" x="0" y="0" flags="0x204"/>
      <component glyphName="uni0304" x="45" y="0" flags="0x4"/>
    </TTGlyph>
    <TTGlyph name="infinity" xMin="-13" yMin="121" xMax="613" yMax="531">
      <contour>
        <pt x="130" y="147" on="1"/>
        <pt x="100" y="147" on="0"/>
        <pt x="48" y="175" on="0"/>
        <pt x="9" y="222" on="0"/>
        <pt x="-13" y="283" on="0"/>
        <pt x="-13" y="317" on="1"/>
        <pt x="-13" y="411" on="0"/>
        <pt x="77" y="515" on="0"/>
        <pt x="150" y="515" on="1"/>
        <pt x="197" y="515" on="0"/>
        <pt x="261" y="471" on="0"/>
        <pt x="284" y="431" on="1"/>
        <pt x="288" y="431" on="1"/>
        <pt x="323" y="484" on="0"/>
        <pt x="399" y="531" on="0"/>
        <pt x="450" y="531" on="1"/>
        <pt x="484" y="531" on="0"/>
        <pt x="543" y="502" on="0"/>
        <pt x="587" y="451" on="0"/>
        <pt x="613" y="381" on="0"/>
        <pt x="613" y="340" on="1"/>
        <pt x="613" y="287" on="0"/>
        <pt x="587" y="206" on="0"/>
        <pt x="540" y="150" on="0"/>
        <pt x="478" y="121" on="0"/>
        <pt x="442" y="121" on="1"/>
        <pt x="389" y="121" on="0"/>
        <pt x="308" y="167" on="0"/>
        <pt x="268" y="231" on="1"/>
        <pt x="264" y="231" on="1"/>
        <pt x="241" y="193" on="0"/>
        <pt x="176" y="147" on="0"/>
      </contour>
      <contour>
        <pt x="329" y="350" on="1"/>
        <pt x="352" y="303" on="0"/>
        <pt x="400" y="257" on="0"/>
        <pt x="434" y="257" on="1"/>
        <pt x="468" y="257" on="0"/>
        <pt x="506" y="305" on="0"/>
        <pt x="506" y="337" on="1"/>
        <pt x="506" y="378" on="0"/>
        <pt x="463" y="424" on="0"/>
        <pt x="427" y="424" on="1"/>
        <pt x="373" y="424" on="0"/>
      </contour>
      <contour>
        <pt x="151" y="254" on="1"/>
        <pt x="174" y="254" on="0"/>
        <pt x="210" y="281" on="0"/>
        <pt x="224" y="312" on="1"/>
        <pt x="207" y="349" on="0"/>
        <pt x="168" y="379" on="0"/>
        <pt x="146" y="379" on="1"/>
        <pt x="120" y="379" on="0"/>
        <pt x="94" y="346" on="0"/>
        <pt x="94" y="320" on="1"/>
        <pt x="94" y="294" on="0"/>
        <pt x="125" y="254" on="0"/>
      </contour>
    </TTGlyph>
    <TTGlyph name="integral" xMin="147" yMin="-158" xMax="468" yMax="791">
      <contour>
        <pt x="161" y="-44" on="1"/>
        <pt x="169" y="-46" on="0"/>
        <pt x="186" y="-48" on="0"/>
        <pt x="197" y="-48" on="1"/>
        <pt x="236" y="-48" on="0"/>
        <pt x="260" y="14" on="0"/>
        <pt x="260" y="85" on="1"/>
        <pt x="260" y="142" on="0"/>
        <pt x="248" y="254" on="0"/>
        <pt x="234" y="366" on="0"/>
        <pt x="222" y="482" on="0"/>
        <pt x="222" y="544" on="1"/>
        <pt x="222" y="597" on="0"/>
        <pt x="237" y="687" on="0"/>
        <pt x="278" y="753" on="0"/>
        <pt x="352" y="791" on="0"/>
        <pt x="411" y="791" on="1"/>
        <pt x="428" y="791" on="0"/>
        <pt x="460" y="786" on="0"/>
        <pt x="468" y="784" on="1"/>
        <pt x="453" y="677" on="1"/>
        <pt x="441" y="681" on="0"/>
        <pt x="418" y="681" on="1"/>
        <pt x="379" y="681" on="0"/>
        <pt x="355" y="619" on="0"/>
        <pt x="355" y="548" on="1"/>
        <pt x="355" y="491" on="0"/>
        <pt x="367" y="379" on="0"/>
        <pt x="380" y="267" on="0"/>
        <pt x="392" y="151" on="0"/>
        <pt x="392" y="89" on="1"/>
        <pt x="392" y="36" on="0"/>
        <pt x="377" y="-54" on="0"/>
        <pt x="336" y="-120" on="0"/>
        <pt x="263" y="-158" on="0"/>
        <pt x="204" y="-158" on="1"/>
        <pt x="186" y="-158" on="0"/>
        <pt x="155" y="-153" on="0"/>
        <pt x="147" y="-150" on="1"/>
        <pt x="161" y="-44" on="1"/>
      </contour>
    </TTGlyph>
    <TTGlyph name="iogonek" xMin="79" yMin="-210" xMax="462" yMax="750">
      <contour>
        <pt x="278" y="381" on="1"/>
        <pt x="79" y="381" on="1"/>
        <pt x="79" y="496" on="1"/>
        <pt x="425" y="496" on="1"/>
        <pt x="425" y="0" on="1"/>
        <pt x="385" y="-15" on="0"/>
        <pt x="354" y="-62" on="0"/>
        <pt x="354" y="-85" on="1"/>
        <pt x="354" y="-105" on="0"/>
        <pt x="379" y="-123" on="0"/>
        <pt x="396" y="-123" on="1"/>
        <pt x="406" y="-123" on="0"/>
        <pt x="423" y="-116" on="0"/>
        <pt x="431" y="-111" on="1"/>
        <pt x="462" y="-177" on="1"/>
        <pt x="442" y="-192" on="0"/>
        <pt x="384" y="-210" on="0"/>
        <pt x="361" y="-210" on="1"/>
        <pt x="316" y="-210" on="0"/>
        <pt x="255" y="-164" on="0"/>
        <pt x="255" y="-119" on="1"/>
        <pt x="255" y="-97" on="0"/>
        <pt x="268" y="-60" on="0"/>
        <pt x="288" y="-30" on="0"/>
        <pt x="311" y="-8" on="0"/>
        <pt x="320" y="0" on="1"/>
        <pt x="278" y="0" on="1"/>
      </contour>
      <contour>
        <pt x="345" y="569" on="1"/>
        <pt x="302" y="569" on="0"/>
        <pt x="247" y="617" on="0"/>
        <pt x="247" y="658" on="1"/>
        <pt x="247" y="699" on="0"/>
        <pt x="302" y="750" on="0"/>
        <pt x="345" y="750" on="1"/>
        <pt x="388" y="750" on="0"/>
        <pt x="443" y="699" on="0"/>
        <pt x="443" y="658" on="1"/>
        <pt x="443" y="617" on="0"/>
        <pt x="388" y="569" on="0"/>
      </contour>
    </TTGlyph>
    <TTGlyph name="iogonek.d" xMin="79" yMin="-210" xMax="462" yMax="496">
      <contour>
        <pt x="278" y="381" on="1"/>
        <pt x="79" y="381" on="1"/>
        <pt x="79" y="496" on="1"/>
        <pt x="425" y="496" on="1"/>
        <pt x="425" y="0" on="1"/>
        <pt x="385" y="-15" on="0"/>
        <pt x="354" y="-62" on="0"/>
        <pt x="354" y="-85" on="1"/>
        <pt x="354" y="-105" on="0"/>
        <pt x="379" y="-123" on="0"/>
        <pt x="396" y="-123" on="1"/>
        <pt x="406" y="-123" on="0"/>
        <pt x="423" y="-116" on="0"/>
        <pt x="431" y="-111" on="1"/>
        <pt x="462" y="-177" on="1"/>
        <pt x="442" y="-192" on="0"/>
        <pt x="384" y="-210" on="0"/>
        <pt x="361" y="-210" on="1"/>
        <pt x="316" y="-210" on="0"/>
        <pt x="255" y="-164" on="0"/>
        <pt x="255" y="-119" on="1"/>
        <pt x="255" y="-97" on="0"/>
        <pt x="268" y="-60" on="0"/>
        <pt x="288" y="-30" on="0"/>
        <pt x="311" y="-8" on="0"/>
        <pt x="320" y="0" on="1"/>
        <pt x="278" y="0" on="1"/>
      </contour>
    </TTGlyph>
    <TTGlyph name="itilde" xMin="79" yMin="0" xMax="516" yMax="718">
      <component glyphName="dotlessi" x="0" y="0" flags="0x204"/>
      <component glyphName="uni0303" x="45" y="0" flags="0x4"/>
    </TTGlyph>
    <TTGlyph name="j" xMin="42" yMin="-196" xMax="443" yMax="750">
      <contour>
        <pt x="79" y="496" on="1"/>
        <pt x="425" y="496" on="1"/>
        <pt x="425" y="30" on="1"/>
        <pt x="425" y="-15" on="0"/>
        <pt x="404" y="-97" on="0"/>
        <pt x="351" y="-159" on="0"/>
        <pt x="262" y="-196" on="0"/>
        <pt x="195" y="-196" on="1"/>
        <pt x="149" y="-196" on="0"/>
        <pt x="74" y="-177" on="0"/>
        <pt x="42" y="-162" on="1"/>
        <pt x="85" y="-57" on="1"/>
        <pt x="115" y="-71" on="0"/>
        <pt x="164" y="-81" on="0"/>
        <pt x="186" y="-81" on="1"/>
        <pt x="239" y="-81" on="0"/>
        <pt x="278" y="-30" on="0"/>
        <pt x="278" y="24" on="1"/>
        <pt x="278" y="381" on="1"/>
        <pt x="79" y="381" on="1"/>
      </contour>
      <contour>
        <pt x="345" y="569" on="1"/>
        <pt x="302" y="569" on="0"/>
        <pt x="247" y="617" on="0"/>
        <pt x="247" y="658" on="1"/>
        <pt x="247" y="699" on="0"/>
        <pt x="302" y="750" on="0"/>
        <pt x="345" y="750" on="1"/>
        <pt x="388" y="750" on="0"/>
        <pt x="443" y="699" on="0"/>
        <pt x="443" y="658" on="1"/>
        <pt x="443" y="617" on="0"/>
        <pt x="388" y="569" on="0"/>
      </contour>
    </TTGlyph>
    <TTGlyph name="j.sups" xMin="133" yMin="132" xMax="401" yMax="758">
      <contour>
        <pt x="157" y="589" on="1"/>
        <pt x="386" y="589" on="1"/>
        <pt x="386" y="283" on="1"/>
        <pt x="386" y="253" on="0"/>
        <pt x="372" y="198" on="0"/>
        <pt x="336" y="157" on="0"/>
        <pt x="276" y="132" on="0"/>
        <pt x="230" y="132" on="1"/>
        <pt x="201" y="132" on="0"/>
        <pt x="153" y="145" on="0"/>
        <pt x="133" y="155" on="1"/>
        <pt x="163" y="228" on="1"/>
        <pt x="182" y="219" on="0"/>
        <pt x="211" y="213" on="0"/>
        <pt x="223" y="213" on="1"/>
        <pt x="257" y="213" on="0"/>
        <pt x="283" y="244" on="0"/>
        <pt x="283" y="279" on="1"/>
        <pt x="283" y="508" on="1"/>
        <pt x="157" y="508" on="1"/>
      </contour>
      <contour>
        <pt x="333" y="634" on="1"/>
        <pt x="303" y="634" on="0"/>
        <pt x="265" y="667" on="0"/>
        <pt x="265" y="696" on="1"/>
        <pt x="265" y="723" on="0"/>
        <pt x="303" y="758" on="0"/>
        <pt x="333" y="758" on="1"/>
        <pt x="362" y="758" on="0"/>
        <pt x="401" y="723" on="0"/>
        <pt x="401" y="696" on="1"/>
        <pt x="401" y="667" on="0"/>
        <pt x="362" y="634" on="0"/>
      </contour>
    </TTGlyph>
    <TTGlyph name="jcircumflex" xMin="42" yMin="-196" xMax="507" yMax="741">
      <component glyphName="uni0237" x="0" y="0" flags="0x204"/>
      <component glyphName="uni0302" x="45" y="0" flags="0x4"/>
    </TTGlyph>
    <TTGlyph name="k" xMin="76" yMin="0" xMax="585" yMax="701">
      <contour>
        <pt x="76" y="701" on="1"/>
        <pt x="223" y="701" on="1"/>
        <pt x="223" y="296" on="1"/>
        <pt x="227" y="296" on="1"/>
        <pt x="409" y="496" on="1"/>
        <pt x="570" y="496" on="1"/>
        <pt x="382" y="292" on="1"/>
        <pt x="585" y="0" on="1"/>
        <pt x="426" y="0" on="1"/>
        <pt x="296" y="202" on="1"/>
        <pt x="223" y="125" on="1"/>
        <pt x="223" y="0" on="1"/>
        <pt x="76" y="0" on="1"/>
      </contour>
    </TTGlyph>
    <TTGlyph name="k.sups" xMin="160" yMin="260" xMax="502" yMax="722">
      <contour>
        <pt x="160" y="722" on="1"/>
        <pt x="264" y="722" on="1"/>
        <pt x="264" y="464" on="1"/>
        <pt x="266" y="464" on="1"/>
        <pt x="380" y="589" on="1"/>
        <pt x="493" y="589" on="1"/>
        <pt x="369" y="453" on="1"/>
        <pt x="502" y="260" on="1"/>
        <pt x="390" y="260" on="1"/>
        <pt x="309" y="385" on="1"/>
        <pt x="264" y="341" on="1"/>
        <pt x="264" y="260" on="1"/>
        <pt x="160" y="260" on="1"/>
      </contour>
    </TTGlyph>
    <TTGlyph name="kgreenlandic" xMin="76" yMin="0" xMax="585" yMax="496">
      <contour>
        <pt x="76" y="496" on="1"/>
        <pt x="223" y="496" on="1"/>
        <pt x="223" y="299" on="1"/>
        <pt x="226" y="300" on="1"/>
        <pt x="409" y="496" on="1"/>
        <pt x="570" y="496" on="1"/>
        <pt x="382" y="292" on="1"/>
        <pt x="585" y="0" on="1"/>
        <pt x="426" y="0" on="1"/>
        <pt x="297" y="195" on="1"/>
        <pt x="223" y="123" on="1"/>
        <pt x="223" y="0" on="1"/>
        <pt x="76" y="0" on="1"/>
      </contour>
    </TTGlyph>
    <TTGlyph name="l" xMin="62" yMin="-12" xMax="544" yMax="701">
      <contour>
        <pt x="62" y="701" on="1"/>
        <pt x="353" y="701" on="1"/>
        <pt x="353" y="188" on="1"/>
        <pt x="353" y="165" on="0"/>
        <pt x="366" y="134" on="0"/>
        <pt x="389" y="115" on="0"/>
        <pt x="418" y="107" on="0"/>
        <pt x="433" y="107" on="1"/>
        <pt x="450" y="107" on="0"/>
        <pt x="488" y="114" on="0"/>
        <pt x="511" y="123" on="1"/>
        <pt x="544" y="15" on="1"/>
        <pt x="524" y="9" on="0"/>
        <pt x="490" y="-1" on="0"/>
        <pt x="456" y="-8" on="0"/>
        <pt x="418" y="-12" on="0"/>
        <pt x="395" y="-12" on="1"/>
        <pt x="301" y="-12" on="0"/>
        <pt x="206" y="99" on="0"/>
        <pt x="206" y="194" on="1"/>
        <pt x="206" y="585" on="1"/>
        <pt x="62" y="585" on="1"/>
      </contour>
    </TTGlyph>
</ttFont>
